<?xml version="1.0" encoding="utf-8"?>
<!-- Generator: Adobe Illustrator 16.0.0, SVG Export Plug-In . SVG Version: 6.00 Build 0)  -->
<!DOCTYPE svg PUBLIC "-//W3C//DTD SVG 1.0//EN" "http://www.w3.org/TR/2001/REC-SVG-20010904/DTD/svg10.dtd">
<svg version="1.0" id="Слой_1" xmlns="http://www.w3.org/2000/svg" xmlns:xlink="http://www.w3.org/1999/xlink" x="0px" y="0px"
	 width="18px" height="18px" viewBox="0 0 18 18" enable-background="new 0 0 18 18" xml:space="preserve">
<g enable-background="new    ">
	<g>
		<defs>
			<rect id="SVGID_1_" width="18" height="18"/>
		</defs>
		<clipPath id="SVGID_2_">
			<use xlink:href="#SVGID_1_"  overflow="visible"/>
		</clipPath>
		<g clip-path="url(#SVGID_2_)">
			<defs>
				<rect id="SVGID_3_" x="-420" y="-152" width="1200" height="1937"/>
			</defs>
			<clipPath id="SVGID_4_">
				<use xlink:href="#SVGID_3_"  overflow="visible"/>
			</clipPath>
			<g display="none" clip-path="url(#SVGID_4_)">
				<defs>
					<path id="SVGID_5_" d="M1.995,0C0.893,0,0,0.893,0,1.995v14.01C0,17.106,0.893,18,1.995,18h14.01
						C17.106,18,18,17.107,18,16.005V1.995C18,0.893,17.107,0,16.005,0H1.995z"/>
				</defs>
				<clipPath id="SVGID_6_" display="inline">
					<use xlink:href="#SVGID_5_"  overflow="visible"/>
				</clipPath>
				<g display="inline" clip-path="url(#SVGID_6_)">
					<defs>
						<rect id="SVGID_7_" width="18" height="18"/>
					</defs>
					<clipPath id="SVGID_8_">
						<use xlink:href="#SVGID_7_"  overflow="visible"/>
					</clipPath>
					<rect x="-5" y="-5" clip-path="url(#SVGID_8_)" fill="#0055A6" width="28" height="28"/>
				</g>
			</g>
		</g>
		<g clip-path="url(#SVGID_2_)">
			<defs>
				<rect id="SVGID_9_" x="-420" y="-152" width="1200" height="1937"/>
			</defs>
			<clipPath id="SVGID_10_">
				<use xlink:href="#SVGID_9_"  overflow="visible"/>
			</clipPath>
			<g clip-path="url(#SVGID_10_)">
				<defs>
					<path id="SVGID_11_" d="M7.203,12.858L3.808,9.441c-0.189-0.188-0.189-0.494,0-0.683l0.687-0.684
						c0.189-0.187,0.496-0.187,0.686,0l2.365,2.393l5.274-5.325c0.19-0.189,0.497-0.189,0.687,0l0.686,0.683
						c0.189,0.189,0.189,0.495,0,0.683l-6.303,6.351C7.699,13.047,7.392,13.047,7.203,12.858"/>
				</defs>
				<clipPath id="SVGID_12_">
					<use xlink:href="#SVGID_11_"  overflow="visible"/>
				</clipPath>
				<g clip-path="url(#SVGID_12_)">
					<defs>
						<rect id="SVGID_13_" width="18" height="18"/>
					</defs>
					<clipPath id="SVGID_14_">
						<use xlink:href="#SVGID_13_"  overflow="visible"/>
					</clipPath>
					<rect x="-1.333" y="0" clip-path="url(#SVGID_14_)" fill="#FFFFFF" width="20.667" height="18"/>
				</g>
			</g>
		</g>
	</g>
</g>
</svg>
