<?xml version="1.0" encoding="utf-8"?>
<!-- Generator: Adobe Illustrator 16.0.0, SVG Export Plug-In . SVG Version: 6.00 Build 0)  -->
<!DOCTYPE svg PUBLIC "-//W3C//DTD SVG 1.1//EN" "http://www.w3.org/Graphics/SVG/1.1/DTD/svg11.dtd">
<svg version="1.1" id="Layer_1" xmlns:sketch="http://www.bohemiancoding.com/sketch/ns"
	 xmlns="http://www.w3.org/2000/svg" xmlns:xlink="http://www.w3.org/1999/xlink" x="0px" y="0px" width="120px" height="59.864px"
	 viewBox="0 0.291 120 59.864" enable-background="new 0 0.291 120 59.864" xml:space="preserve">
<title>PR_Reflex_A4 Copy</title>
<desc>Created with Sketch.</desc>
<path id="Fill-3" sketch:type="MSShapeGroup" fill="#0055A6" d="M61.781,0.291v59.864h58.213V0.291h-1.746H61.781z"/>
<path id="Fill-3_1_" sketch:type="MSShapeGroup" fill="#0055A6" d="M-0.053,0.291v59.864H58.16V0.291h-1.746H-0.053z"/>
<path id="Fill-5" sketch:type="MSShapeGroup" fill="#FFFFFF" d="M116.502,3.882v52.68H65.273V3.882H116.502"/>
<path id="Fill-6" sketch:type="MSShapeGroup" fill="#FFFFFF" d="M31.423,42.467c-0.639-0.801-0.962-1.853-0.962-3.125
	c0-1.305,0.309-2.356,0.918-3.124c0.664-0.841,1.642-1.267,2.908-1.267h0.097v-2.178h-0.097c-1.975,0-3.499,0.636-4.53,1.889
	c-0.938,1.135-1.414,2.714-1.414,4.697c0,1.916,0.516,3.491,1.534,4.682c1.071,1.252,2.564,1.888,4.439,1.888h0.097v-2.178h-0.097
	C33.08,43.751,32.106,43.319,31.423,42.467L31.423,42.467z M23.901,42.467c-0.639-0.801-0.963-1.852-0.963-3.125
	c0-1.305,0.309-2.356,0.918-3.124c0.664-0.841,1.642-1.267,2.908-1.267h0.097v-2.178h-0.097c-1.975,0-3.499,0.636-4.53,1.889
	c-0.938,1.135-1.414,2.714-1.414,4.697c0,1.916,0.517,3.491,1.535,4.682c1.071,1.252,2.564,1.888,4.439,1.888h0.097v-2.178h-0.097
	C25.558,43.751,24.584,43.319,23.901,42.467L23.901,42.467z M30.814,21.256v6.063h2.246V14.767h-2.246v4.372h-1.222
	c-0.504,0-0.88-0.118-1.118-0.351c-0.172-0.165-0.255-0.385-0.255-0.674v-3.347h-2.246v3.584c0,0.825,0.317,1.524,0.943,2.078
	c0.619,0.549,1.377,0.827,2.256,0.827H30.814L30.814,21.256z M52.3,32.475l-0.158,0.17c0,0-4.177,4.486-4.487,4.819v-4.391h-1.962
	v12.481h1.962v-5.127c0.049-0.054,2.562-2.791,2.845-3.099c0.016,0.449,0.285,8.226,0.285,8.226h2L52.3,32.475L52.3,32.475z
	 M37.608,27.319h2.245V16.854h1.893v-2.086h-6v2.086h1.862V27.319L37.608,27.319z M42.78,32.645c0,0-4.177,4.486-4.487,4.819v-4.391
	h-1.962v12.481h1.962v-5.127c0.049-0.054,2.562-2.791,2.845-3.099c0.016,0.449,0.284,8.226,0.284,8.226h2l-0.483-13.08L42.78,32.645
	L42.78,32.645z M46.819,16.854h0.813c0.579,0,0.977,0.178,1.218,0.546c0.194,0.306,0.332,0.897,0.42,1.707h-2.505
	C46.771,18.853,46.813,17.096,46.819,16.854L46.819,16.854z M46.725,21.193c0.244,0,2.575,0.001,2.803,0.001
	c0.026,0.256,0.63,6.126,0.63,6.126l2.262-0.001l-1.036-9.176c0.001-1.203-0.36-2.111-1.073-2.682
	c-0.567-0.46-1.344-0.694-2.309-0.694h-3.327l-0.413,12.552h2.246C46.508,27.319,46.715,21.468,46.725,21.193L46.725,21.193z
	 M7.583,16.854h2.781v10.466h2.246V14.767H5.337v12.552h2.246V16.854L7.583,16.854z M8.633,39.887
	c-0.161,0.32-0.349,0.48-0.558,0.48c-0.203,0-0.374-0.138-0.521-0.424c-0.157-0.303-0.236-0.746-0.236-1.319v-3.673H7.4
	c0.464,0,0.818,0.264,1.083,0.805c0.272,0.558,0.41,1.449,0.41,2.652C8.892,39.047,8.805,39.545,8.633,39.887L8.633,39.887z
	 M7.405,33.092H5.324v12.454h1.994v-3.62c0.386,0.349,0.807,0.557,1.268,0.557c0.664,0,1.216-0.361,1.643-1.072
	c0.478-0.799,0.719-1.982,0.719-3.52c0-1.068-0.194-2.027-0.576-2.846C9.77,33.75,8.771,33.092,7.405,33.092L7.405,33.092z
	 M20.765,24.249c-0.292,0.813-0.704,1.208-1.257,1.208c-0.53,0-0.93-0.4-1.223-1.224c-0.306-0.861-0.461-1.953-0.461-3.246
	c0-1.327,0.152-2.419,0.453-3.246c0.286-0.791,0.689-1.175,1.231-1.175c0.608,0,1.042,0.389,1.324,1.189
	c0.262,0.737,0.394,1.812,0.394,3.196C21.226,22.289,21.071,23.398,20.765,24.249L20.765,24.249z M22.499,25.668
	c0.666-1.183,1.004-2.77,1.004-4.717c0-1.924-0.35-3.5-1.038-4.684c-0.704-1.208-1.7-1.82-2.961-1.82
	c-1.196,0-2.148,0.616-2.828,1.831c-0.666,1.186-1.004,2.764-1.004,4.689c0,1.993,0.323,3.602,0.961,4.783
	c0.652,1.21,1.618,1.824,2.871,1.824C20.777,27.575,21.785,26.934,22.499,25.668L22.499,25.668z M16.876,42.546
	c-0.263,0.821-0.65,1.237-1.148,1.237c-0.479,0-0.855-0.422-1.119-1.254c-0.274-0.867-0.414-1.966-0.414-3.268
	c0-1.335,0.137-2.434,0.406-3.267c0.258-0.799,0.637-1.204,1.126-1.204c0.555,0,0.951,0.4,1.208,1.221
	c0.235,0.742,0.354,1.823,0.354,3.216C17.29,40.573,17.151,41.689,16.876,42.546L16.876,42.546z M18.359,34.572
	c-0.625-1.193-1.509-1.799-2.629-1.799c-1.062,0-1.907,0.609-2.511,1.811c-0.593,1.18-0.895,2.748-0.895,4.66
	c0,1.981,0.289,3.582,0.856,4.756c0.578,1.195,1.436,1.801,2.549,1.801c1.13,0,2.025-0.634,2.66-1.887
	c0.593-1.173,0.894-2.75,0.894-4.687C19.284,37.313,18.973,35.747,18.359,34.572L18.359,34.572L18.359,34.572z"/>
<path id="Fill-7" sketch:type="MSShapeGroup" fill="#0055A6" d="M79.438,19.657c0.43,0.979,1.137,1.981,3.061,3.333
	c0.43,0.303,0.905,0.933,0.543,1.818c-0.363,0.886-1.043,2.145-0.635,2.633c0.408,0.491,1.857,0.747,3.037,0.257
	c0,0,0.249,0.769,0.68,1.258c0,0-0.203,0.42-0.883,0.211c0,0,0.249,0.629-0.091,1.305c0,0-0.794-0.139-1.134-0.887
	c0,0-0.318,0.584-0.951,0.792c0,0-0.522-0.278-0.408-1.351c0,0-0.386,0.956-1.564,1.118c0,0-0.68-0.885,0.204-2.075
	c0,0-0.636,0.584-1.79,0.305c0,0-0.183-0.606,0.86-1.447c0,0-1.18-0.045-1.632-1.071c0,0,0.498-0.629,1.723-0.489
	c0,0-1.134-0.257-1.383-1.656c0,0,0.816-0.536,2.109,0.326c0,0-0.228-0.442-0.771-0.885C79.867,22.71,79.211,21.474,79.438,19.657"
	/>
<path id="Fill-8" sketch:type="MSShapeGroup" fill="#0055A6" d="M84.18,33.716c-0.171-0.233-0.299-0.467-0.395-0.694
	c0.203,1.697,0.276,2.841,1.166,3.938c0,0,0.538-0.735,0.191-2.521c-0.15-0.044-0.316-0.116-0.48-0.229c0,0,0.204,0.725,0.077,1.456
	C84.739,35.665,84.418,35.424,84.18,33.716"/>
<path id="Fill-9" sketch:type="MSShapeGroup" fill="#0055A6" d="M82.64,33.54c-0.105-0.138-0.31-0.429-0.418-0.638
	c-0.075,0.984-0.327,3.577,0.517,4.388c0,0,0.579-0.435,0.783-4.215c-0.122,0.211-0.336,0.436-0.441,0.559
	c0,0,0.141,1.2-0.277,2.046C82.803,35.68,82.383,35.352,82.64,33.54"/>
<path id="Fill-10" sketch:type="MSShapeGroup" fill="#0055A6" d="M80.628,35.521c0.71-0.874,0.923-3.492,0.923-3.492
	c0.098-0.067,0.195-0.142,0.295-0.223c0.041-0.033,0.08-0.068,0.117-0.105c-0.001,0.096,0.004,0.194,0.012,0.293
	c-0.102,1.575-0.223,3.199-0.701,4.008c-0.469,0.793-1.329,1.203-1.329,1.203c-0.809-1.477,0.168-3.462,0.985-4.84
	c0.1-0.04,0.201-0.088,0.306-0.143C80.948,33.285,80.404,34.547,80.628,35.521"/>
<path id="Fill-11" sketch:type="MSShapeGroup" fill="#0055A6" d="M78.625,30.976c-0.006,0.17,0.025,0.306,0.047,0.379
	c0.009,0.027,0.02,0.066,0.039,0.105c-0.678,0.685-1.179,1.336-2.182,2.77c-1.005,1.435-2.594,1.491-2.594,1.491
	c0.152-1.16,0.46-2.079,1.31-3.067c0.851-0.99,1.938-1.893,2.739-2.493c0.205,0.099,0.474,0.16,0.813,0.119
	c0.025-0.003,0.051-0.006,0.079-0.011c-0.109,0.143-0.173,0.287-0.209,0.422c-0.605,0.357-2.361,1.274-3.074,2.75
	C75.594,33.441,76.706,33.084,78.625,30.976"/>
<path id="Fill-12" sketch:type="MSShapeGroup" fill="#0055A6" d="M77.364,29.53l0.067-0.122c0.021-0.04,0.045-0.077,0.07-0.113
	c-0.652,0.262-2.98,1.165-3.733,1.565c-0.753,0.403-1.843,1.315-2.435,3.167c0,0,1.57,0.146,2.867-0.957
	c1.295-1.105,2.806-2.645,3.451-3.136c-0.064-0.062-0.114-0.122-0.15-0.17c0,0-1.754,1.599-3.609,2.288c0,0,0.398-0.74,1.131-1.278
	C75.915,30.122,76.584,29.902,77.364,29.53"/>
<path id="Fill-13" sketch:type="MSShapeGroup" fill="#0055A6" d="M76.034,28.44c0.024-0.064,0.051-0.125,0.077-0.184
	c-0.768,0.162-2.688,0.397-3.546,0.667c-0.856,0.271-2.408,0.917-3.329,2.721c0,0,1.352,0.43,3.901-0.805
	c2.548-1.233,3.347-1.488,3.835-1.62c-0.389-0.03-0.664-0.165-0.807-0.254c-1.017,0.464-2.377,1.017-3.727,1.052
	c0,0,0.668-0.484,1.365-0.786C74.564,28.903,75.399,28.606,76.034,28.44"/>
<path id="Fill-14" sketch:type="MSShapeGroup" fill="#0055A6" d="M76.098,27.14c0.25,0.121,0.441,0.182,0.767,0.217
	c-0.177,0.117-0.347,0.268-0.497,0.469c-0.898,0.266-2.43,0.557-4.955,0.745c-2.527,0.188-3.874-0.291-3.874-0.291
	c0.881-0.553,2.284-1.115,3.233-1.303c0.949-0.188,3.441-0.169,4.533-0.321c0.014,0.011,0.146,0.124,0.359,0.257
	c-0.918,0.085-2.876,0.18-3.887,0.705C71.777,27.618,73.643,27.875,76.098,27.14"/>
<path id="Fill-15" sketch:type="MSShapeGroup" fill="#0055A6" d="M75.909,25.647c0.127-0.078,0.281-0.154,0.468-0.227
	c-1.277-0.398-3.035-1.033-5.675-1.212c-1.938-0.131-3.339-0.017-4.062,0.176c0,0,1.764,1.279,3.781,1.731s3.656,0.165,4.855,0.175
	c0.078-0.121,0.167-0.257,0.308-0.394c-1.399,0.009-3.731-0.364-4.565-0.649C71.02,25.248,73.053,24.811,75.909,25.647"/>
<path id="Fill-16" sketch:type="MSShapeGroup" fill="#0055A6" d="M75.902,24.101c0.007,0.036,0.155,0.778,0.991,1.189
	c-1.794-0.809-5.333-1.275-7.233-2.087c-2.571-1.098-3.039-2.469-3.039-2.469c2.224-0.06,4.022,0.499,5.408,0.935
	c1.623,0.512,4.094,1.46,4.959,1.856c-0.324,0.014-0.68,0.109-0.979,0.315c-1.209-0.477-1.771-0.677-2.867-0.993
	c-0.865-0.249-1.506-0.298-2.045-0.352c0,0,0.76,0.518,2.015,0.932C74.355,23.834,74.894,23.902,75.902,24.101"/>
<path id="Fill-17" sketch:type="MSShapeGroup" fill="#0055A6" d="M75.766,22.083c0.072,0.132,0.285,0.445,0.369,0.569
	c-2.841-0.489-5.963-2.698-6.928-4.066c-0.966-1.369-0.691-3.414-0.691-3.414c0.936,0.195,2.972,2,3.498,2.541
	c0.527,0.542,2.12,2.135,3.221,3.026l0.346,1.027c-0.944-0.78-2.066-1.653-2.764-2.193c-0.537-0.417-1.342-1.006-2.141-1.288
	c0,0,0.736,0.987,1.33,1.467c0.686,0.558,1.385,1.042,1.958,1.367C74.475,21.406,74.734,21.57,75.766,22.083"/>
<path id="Fill-18" sketch:type="MSShapeGroup" fill="#0055A6" d="M83.775,30.257c0.086-0.076,0.16-0.153,0.223-0.224
	c0.131,0.17,0.568,0.735,0.783,1.295c0.165,0.479,0.338,1.131,0.426,1.506c0.086,0.372,0.346,1.146,0.502,1.414
	c0,0-0.692,0.089-1.204-0.525c-0.503-0.604-0.675-1.211-0.753-1.835C83.689,31.399,83.71,30.724,83.775,30.257"/>
<path id="Fill-19" sketch:type="MSShapeGroup" fill="#0055A6" d="M82.684,30.351c0.129,0.177,0.253,0.249,0.266,0.255l0.092,0.049
	l0.098-0.032c0.086-0.029,0.165-0.062,0.24-0.1c0.099,0.288,0.141,0.427,0.166,0.672c0.033,0.324,0.096,0.836-0.023,1.254
	c-0.145,0.51-0.441,0.82-0.605,1.018c0,0-0.451-0.512-0.582-0.935c-0.135-0.442-0.184-0.957-0.017-1.483
	C82.408,30.764,82.555,30.5,82.684,30.351"/>
<path id="Fill-20" sketch:type="MSShapeGroup" fill="#0055A6" d="M81.125,30.399c0.462-0.064,0.813-0.236,1.076-0.436
	c0.06,0.168,0.15,0.394,0.083,0.713c-0.068,0.32-0.282,0.675-0.593,0.931c-0.467,0.383-1.092,0.744-1.781,0.633
	C79.91,32.24,79.752,31.709,81.125,30.399"/>
<path id="Fill-21" sketch:type="MSShapeGroup" fill="#0055A6" d="M80.603,29.51c0.056,0.474,0.276,0.771,0.294,0.794
	c-0.162,0.198-0.744,1.227-1.959,1.053c0,0-0.328-0.699,0.48-1.256C79.967,29.724,80.227,29.647,80.603,29.51"/>
<path id="Fill-22" sketch:type="MSShapeGroup" fill="#0055A6" d="M80.709,28.632c-0.324,0.084-0.745,0.117-1.262-0.009l-0.139-0.033
	l-0.041-0.14c-0.624,0.524-1.365,0.61-1.619,1.082c0,0,0.311,0.594,1.119,0.494c0.809-0.099,1.418-0.488,1.85-1.046
	C80.635,28.894,80.67,28.739,80.709,28.632"/>
<path id="Fill-23" sketch:type="MSShapeGroup" fill="#0055A6" d="M79.308,27.896c0.116-0.175,0.195-0.447,0.437-0.722
	c-0.533-0.094-1.018-0.102-1.645,0.021c-0.746,0.146-1.508,0.326-1.889,1.493c0,0,0.479,0.419,1.35,0.237
	C78.297,28.77,78.941,28.443,79.308,27.896"/>
<path id="Fill-24" sketch:type="MSShapeGroup" fill="#0055A6" d="M78.992,26.629c-0.189-0.167-0.359-0.384-0.484-0.667l-0.064-0.145
	c-0.645-0.271-1.32-0.411-1.979-0.158c-0.658,0.254-0.834,0.547-1,0.799c0,0,0.73,0.629,1.571,0.653
	C77.878,27.138,78.654,26.889,78.992,26.629"/>
<path id="Fill-25" sketch:type="MSShapeGroup" fill="#0055A6" d="M79.187,25.265c0.111-0.044,0.237-0.084,0.378-0.113
	c-0.286-0.259-0.568-0.653-0.705-1.245c-0.299,0.072-1.006,0.072-1.315-0.05c-0.31-0.122-0.921-0.13-1.397,0.196
	c0,0,0.16,0.857,1.238,1.151C78.398,25.479,78.776,25.408,79.187,25.265"/>
<path id="Fill-26" sketch:type="MSShapeGroup" fill="#0055A6" d="M78.799,23.59l0.143-0.093c0.019-0.013,0.26-0.165,0.672-0.197
	c-0.347-0.267-1.172-0.979-1.76-1.32c-0.638-0.369-1.699-0.857-2.238-0.93c0,0,0.506,1.367,1.096,1.917
	C77.322,23.538,77.75,23.75,78.799,23.59"/>
<path id="Fill-27" sketch:type="MSShapeGroup" fill="#0055A6" d="M79.889,22.962c-0.258-0.346-0.461-0.821-0.611-1.383
	c-0.123-0.457-0.4-1.591-0.566-1.885c-0.166-0.294-0.762-1.323-1.928-1.641c0,0-0.311,1.338,0.276,2.399
	C77.564,21.366,78.602,22.33,79.889,22.962"/>
<path id="Fill-28" sketch:type="MSShapeGroup" fill="#0055A6" d="M86.353,29.19c0.146,0.148,0.256,0.232,0.517,0.366
	c0,0,0.371,0.729-0.078,1.61c-0.451,0.882-0.831,1.782-1.014,2.28c0,0-0.242-0.035-0.51-1.416c-0.183-0.936-0.412-1.168-0.652-1.488
	c0.261,0.136,0.474,0.178,0.49,0.181l0.182,0.032l0.082-0.166c0.16-0.317,0.208-0.624,0.208-0.878c0-0.084-0.006-0.162-0.014-0.232
	c0.418,0.01,0.642-0.207,0.726-0.319c0.008-0.01,0.016-0.019,0.021-0.028L86.353,29.19"/>
<path id="Fill-29" sketch:type="MSShapeGroup" fill="#0055A6" d="M76.455,18.615c-0.004,0.127-0.006,0.271-0.002,0.421l0.023,0.329
	c-0.686-0.902-1.51-1.992-2.297-2.994c-0.539-0.688-0.992-1.104-1.499-1.439c0.427,1.274,1.188,2.29,1.73,2.797
	c0.54,0.506,1.321,1.363,2.083,1.885l0.074,0.258c0.059,0.237,0.148,0.479,0.275,0.708c0.178,0.321,0.412,0.639,0.688,0.944
	c-0.222-0.111-0.477-0.233-0.731-0.345l-0.236-0.101c-2.097-1.144-4.178-3.512-5.02-5.163c-0.842-1.648-0.492-3.561-0.268-4.587
	c0.951,0.83,2.322,2.465,2.92,3.354c0.734,1.091,1.675,2.637,2.258,3.894V18.615"/>
<path id="Fill-30" sketch:type="MSShapeGroup" fill="#0055A6" d="M105.866,25.647c-0.128-0.078-0.28-0.154-0.469-0.227
	c1.278-0.398,3.036-1.033,5.677-1.212c1.938-0.131,3.336-0.017,4.061,0.176c0,0-1.764,1.279-3.783,1.731
	c-2.017,0.452-3.655,0.165-4.854,0.175c-0.079-0.121-0.167-0.257-0.308-0.394c1.399,0.009,3.731-0.364,4.564-0.649
	C110.755,25.248,108.723,24.811,105.866,25.647"/>
<path id="Fill-31" sketch:type="MSShapeGroup" fill="#0055A6" d="M105.872,24.101c-0.006,0.036-0.155,0.778-0.991,1.189
	c1.795-0.809,5.334-1.275,7.234-2.087c2.571-1.098,3.039-2.469,3.039-2.469c-2.223-0.06-4.023,0.499-5.408,0.935
	c-1.623,0.512-4.095,1.46-4.959,1.856c0.324,0.014,0.679,0.109,0.978,0.315c1.21-0.477,1.771-0.677,2.868-0.993
	c0.864-0.249,1.506-0.298,2.045-0.352c0,0-0.762,0.518-2.016,0.932C107.419,23.834,106.883,23.902,105.872,24.101"/>
<path id="Fill-32" sketch:type="MSShapeGroup" fill="#0055A6" d="M106.008,22.083c-0.072,0.132-0.284,0.445-0.367,0.569
	c2.841-0.489,5.963-2.698,6.929-4.066c0.965-1.369,0.689-3.414,0.689-3.414c-0.937,0.195-2.971,2-3.497,2.541
	c-0.527,0.542-2.121,2.135-3.221,3.026l-0.346,1.027c0.943-0.78,2.065-1.653,2.764-2.193c0.537-0.417,1.34-1.006,2.142-1.288
	c0,0-0.737,0.987-1.331,1.467c-0.688,0.558-1.384,1.042-1.959,1.367C107.303,21.406,107.04,21.57,106.008,22.083"/>
<path id="Fill-33" sketch:type="MSShapeGroup" fill="#0055A6" d="M105.32,18.615c0.002,0.127,0.006,0.271,0.002,0.421l-0.025,0.329
	c0.688-0.902,1.512-1.992,2.299-2.994c0.539-0.688,0.992-1.104,1.498-1.439c-0.426,1.274-1.188,2.29-1.729,2.797
	c-0.54,0.506-1.32,1.363-2.083,1.885l-0.074,0.258c-0.059,0.237-0.148,0.479-0.275,0.708c-0.18,0.321-0.412,0.639-0.688,0.944
	c0.222-0.111,0.477-0.233,0.731-0.345l0.236-0.101c2.096-1.144,4.178-3.512,5.02-5.163c0.84-1.648,0.492-3.561,0.268-4.587
	c-0.952,0.83-2.322,2.465-2.921,3.354c-0.735,1.091-1.674,2.637-2.257,3.894V18.615"/>
<path id="Fill-34" sketch:type="MSShapeGroup" fill="#0055A6" d="M79.136,31.636c-0.864,0.89-2.687,2.883-2.515,5.048
	c0,0,1.692-0.545,2.389-1.822c0.697-1.275,1.128-2.075,1.422-2.363c-0.189,0.026-0.377,0.025-0.561-0.004l-0.152-0.026
	c-0.43,0.804-1.281,2.122-2.047,2.581c0,0-0.195-1.066,2.057-3.229c0.031-0.089,0.077-0.188,0.141-0.3
	c-0.207,0.074-0.441,0.12-0.706,0.113"/>
<path id="Fill-35" sketch:type="MSShapeGroup" fill="#0055A6" d="M102.338,19.657c-0.432,0.979-1.139,1.981-3.061,3.333
	c-0.43,0.303-0.905,0.933-0.543,1.818c0.363,0.886,1.043,2.145,0.633,2.633c-0.407,0.491-1.857,0.747-3.036,0.257
	c0,0-0.248,0.769-0.68,1.258c0,0,0.204,0.42,0.884,0.211c0,0-0.249,0.629,0.091,1.305c0,0,0.793-0.139,1.133-0.887
	c0,0,0.317,0.584,0.952,0.792c0,0,0.521-0.278,0.408-1.351c0,0,0.386,0.956,1.563,1.118c0,0,0.681-0.885-0.203-2.075
	c0,0,0.634,0.584,1.79,0.305c0,0,0.182-0.606-0.861-1.447c0,0,1.178-0.045,1.633-1.071c0,0-0.5-0.629-1.723-0.489
	c0,0,1.133-0.257,1.382-1.656c0,0-0.815-0.536-2.106,0.326c0,0,0.226-0.442,0.77-0.885C101.906,22.71,102.564,21.474,102.338,19.657
	"/>
<path id="Fill-36" sketch:type="MSShapeGroup" fill="#0055A6" d="M97.594,33.716c0.172-0.233,0.3-0.467,0.395-0.694
	c-0.201,1.697-0.275,2.841-1.166,3.938c0,0-0.537-0.735-0.189-2.521c0.149-0.044,0.316-0.116,0.479-0.229
	c0,0-0.204,0.725-0.077,1.456C97.035,35.665,97.357,35.424,97.594,33.716"/>
<path id="Fill-37" sketch:type="MSShapeGroup" fill="#0055A6" d="M99.134,33.54c0.107-0.138,0.312-0.429,0.42-0.638
	c0.073,0.984,0.325,3.577-0.518,4.388c0,0-0.58-0.435-0.782-4.215c0.121,0.211,0.336,0.436,0.439,0.559c0,0-0.14,1.2,0.279,2.046
	C98.973,35.68,99.392,35.352,99.134,33.54"/>
<path id="Fill-38" sketch:type="MSShapeGroup" fill="#0055A6" d="M101.147,35.521c-0.711-0.874-0.923-3.492-0.923-3.492
	c-0.1-0.067-0.197-0.142-0.295-0.223c-0.041-0.033-0.081-0.068-0.118-0.105c0.001,0.096-0.003,0.194-0.013,0.293
	c0.104,1.575,0.225,3.199,0.703,4.008c0.469,0.793,1.329,1.203,1.329,1.203c0.809-1.477-0.169-3.462-0.983-4.84
	c-0.104-0.04-0.205-0.088-0.307-0.143C100.827,33.285,101.37,34.547,101.147,35.521"/>
<path id="Fill-39" sketch:type="MSShapeGroup" fill="#0055A6" d="M103.149,30.976c0.006,0.17-0.025,0.306-0.048,0.379
	c-0.008,0.027-0.018,0.066-0.037,0.105c0.676,0.685,1.179,1.336,2.182,2.77c1.004,1.435,2.594,1.491,2.594,1.491
	c-0.154-1.16-0.461-2.079-1.311-3.067c-0.851-0.99-1.939-1.893-2.738-2.493c-0.207,0.099-0.475,0.16-0.812,0.119
	c-0.027-0.003-0.053-0.006-0.08-0.011c0.107,0.143,0.172,0.287,0.209,0.422c0.605,0.357,2.363,1.274,3.074,2.75
	C106.182,33.441,105.069,33.084,103.149,30.976"/>
<path id="Fill-40" sketch:type="MSShapeGroup" fill="#0055A6" d="M104.41,29.53l-0.066-0.122c-0.021-0.04-0.045-0.077-0.07-0.113
	c0.651,0.262,2.98,1.165,3.733,1.565c0.753,0.403,1.842,1.315,2.435,3.167c0,0-1.57,0.146-2.867-0.957
	c-1.297-1.105-2.807-2.645-3.452-3.136c0.065-0.062,0.114-0.122,0.151-0.17c0,0,1.754,1.599,3.607,2.288c0,0-0.396-0.74-1.129-1.278
	C105.859,30.122,105.192,29.902,104.41,29.53"/>
<path id="Fill-41" sketch:type="MSShapeGroup" fill="#0055A6" d="M105.741,28.44c-0.025-0.064-0.052-0.125-0.079-0.184
	c0.769,0.162,2.689,0.397,3.547,0.667s2.408,0.917,3.328,2.721c0,0-1.35,0.43-3.9-0.805c-2.549-1.233-3.346-1.488-3.834-1.62
	c0.389-0.03,0.663-0.165,0.807-0.254c1.018,0.464,2.376,1.017,3.726,1.052c0,0-0.667-0.484-1.366-0.786
	C107.211,28.903,106.376,28.606,105.741,28.44"/>
<path id="Fill-42" sketch:type="MSShapeGroup" fill="#0055A6" d="M105.678,27.14c-0.25,0.121-0.442,0.182-0.768,0.217
	c0.178,0.117,0.347,0.268,0.498,0.469c0.898,0.266,2.429,0.557,4.955,0.745c2.526,0.188,3.873-0.291,3.873-0.291
	c-0.879-0.553-2.284-1.115-3.232-1.303c-0.949-0.188-3.442-0.169-4.535-0.321c-0.012,0.011-0.145,0.124-0.359,0.257
	c0.92,0.085,2.877,0.18,3.888,0.705C109.997,27.618,108.133,27.875,105.678,27.14"/>
<path id="Fill-43" sketch:type="MSShapeGroup" fill="#0055A6" d="M98,30.257c-0.088-0.076-0.16-0.153-0.223-0.224
	c-0.133,0.17-0.568,0.735-0.783,1.295c-0.166,0.479-0.34,1.131-0.426,1.506c-0.087,0.372-0.346,1.146-0.502,1.414
	c0,0,0.692,0.089,1.203-0.525c0.503-0.604,0.676-1.211,0.752-1.835C98.083,31.399,98.065,30.724,98,30.257"/>
<path id="Fill-44" sketch:type="MSShapeGroup" fill="#0055A6" d="M99.089,30.351c-0.128,0.177-0.251,0.249-0.263,0.255l-0.092,0.049
	l-0.1-0.032c-0.086-0.029-0.164-0.062-0.238-0.1c-0.099,0.288-0.141,0.427-0.166,0.672c-0.033,0.324-0.097,0.836,0.023,1.254
	c0.145,0.51,0.439,0.82,0.604,1.018c0,0,0.453-0.512,0.582-0.935c0.136-0.442,0.186-0.957,0.018-1.483
	C99.367,30.764,99.22,30.5,99.089,30.351"/>
<path id="Fill-45" sketch:type="MSShapeGroup" fill="#0055A6" d="M100.65,30.399c-0.463-0.064-0.814-0.236-1.078-0.436
	c-0.059,0.168-0.148,0.394-0.08,0.713c0.066,0.32,0.281,0.675,0.592,0.931c0.465,0.383,1.092,0.744,1.781,0.633
	C101.865,32.24,102.023,31.709,100.65,30.399"/>
<path id="Fill-46" sketch:type="MSShapeGroup" fill="#0055A6" d="M101.172,29.51c-0.055,0.474-0.276,0.771-0.293,0.794
	c0.161,0.198,0.743,1.227,1.958,1.053c0,0,0.328-0.699-0.479-1.256C101.807,29.724,101.549,29.647,101.172,29.51"/>
<path id="Fill-47" sketch:type="MSShapeGroup" fill="#0055A6" d="M101.066,28.632c0.324,0.084,0.745,0.117,1.261-0.009l0.138-0.033
	l0.043-0.14c0.623,0.524,1.363,0.61,1.618,1.082c0,0-0.311,0.594-1.118,0.494c-0.81-0.099-1.418-0.488-1.851-1.046
	C101.141,28.894,101.105,28.739,101.066,28.632"/>
<path id="Fill-48" sketch:type="MSShapeGroup" fill="#0055A6" d="M102.468,27.896c-0.117-0.175-0.196-0.447-0.438-0.722
	c0.535-0.094,1.02-0.102,1.646,0.021c0.746,0.146,1.508,0.326,1.888,1.493c0,0-0.479,0.419-1.349,0.237
	C103.477,28.77,102.834,28.443,102.468,27.896"/>
<path id="Fill-49" sketch:type="MSShapeGroup" fill="#0055A6" d="M102.783,26.629c0.188-0.167,0.358-0.384,0.483-0.667l0.063-0.145
	c0.648-0.271,1.321-0.411,1.979-0.158c0.66,0.254,0.834,0.547,1.002,0.799c0,0-0.73,0.629-1.572,0.653
	C103.896,27.138,103.12,26.889,102.783,26.629"/>
<path id="Fill-50" sketch:type="MSShapeGroup" fill="#0055A6" d="M102.586,25.265c-0.109-0.044-0.234-0.084-0.375-0.113
	c0.286-0.259,0.566-0.653,0.703-1.245c0.301,0.072,1.008,0.072,1.317-0.05c0.31-0.122,0.921-0.13,1.396,0.196
	c0,0-0.156,0.857-1.238,1.151C103.375,25.479,103,25.408,102.586,25.265"/>
<path id="Fill-51" sketch:type="MSShapeGroup" fill="#0055A6" d="M102.976,23.59l-0.142-0.093c-0.02-0.013-0.262-0.165-0.674-0.197
	c0.349-0.267,1.174-0.979,1.762-1.32c0.637-0.369,1.697-0.857,2.238-0.93c0,0-0.506,1.367-1.096,1.917
	C104.453,23.538,104.025,23.75,102.976,23.59"/>
<path id="Fill-52" sketch:type="MSShapeGroup" fill="#0055A6" d="M101.885,22.962c0.258-0.346,0.463-0.821,0.613-1.383
	c0.122-0.457,0.4-1.591,0.566-1.885c0.167-0.294,0.762-1.323,1.928-1.641c0,0,0.31,1.338-0.277,2.399
	C104.208,21.366,103.174,22.33,101.885,22.962"/>
<path id="Fill-53" sketch:type="MSShapeGroup" fill="#0055A6" d="M95.423,29.19c-0.148,0.148-0.257,0.232-0.517,0.366
	c0,0-0.371,0.729,0.078,1.61c0.449,0.882,0.832,1.782,1.013,2.28c0,0,0.242-0.035,0.511-1.416c0.182-0.936,0.412-1.168,0.651-1.488
	c-0.261,0.136-0.474,0.178-0.491,0.181l-0.18,0.032l-0.084-0.166c-0.159-0.317-0.207-0.624-0.207-0.878
	c0-0.084,0.006-0.162,0.014-0.232c-0.418,0.01-0.641-0.207-0.727-0.319c-0.008-0.01-0.014-0.019-0.02-0.028L95.423,29.19"/>
<path id="Fill-54" sketch:type="MSShapeGroup" fill="#0055A6" d="M102.64,31.636c0.864,0.89,2.687,2.883,2.515,5.048
	c0,0-1.693-0.545-2.39-1.822c-0.696-1.275-1.128-2.075-1.421-2.363c0.188,0.026,0.375,0.025,0.561-0.004l0.152-0.026
	c0.43,0.804,1.28,2.122,2.047,2.581c0,0,0.194-1.066-2.057-3.229c-0.032-0.089-0.078-0.188-0.141-0.3
	c0.205,0.074,0.44,0.12,0.705,0.113"/>
<path id="Fill-55" sketch:type="MSShapeGroup" fill="#0055A6" d="M89.565,14.38c0-0.159,0.593-0.289,1.321-0.289
	c0.73,0,1.322,0.13,1.322,0.289c0,0.16-0.592,0.289-1.322,0.289C90.158,14.669,89.565,14.541,89.565,14.38"/>
<path id="Fill-56" sketch:type="MSShapeGroup" fill="#0055A6" d="M85.078,15.945c0-0.088,0.381-0.158,0.854-0.158
	c0.469,0,0.85,0.07,0.85,0.158c0,0.087-0.381,0.158-0.85,0.158C85.459,16.103,85.078,16.032,85.078,15.945"/>
<path id="Fill-57" sketch:type="MSShapeGroup" fill="#0055A6" d="M91.146,15.018c0,0.148-0.115,0.267-0.26,0.267
	c-0.144,0-0.26-0.119-0.26-0.267c0-0.147,0.116-0.267,0.26-0.267C91.031,14.751,91.146,14.871,91.146,15.018"/>
<path id="Fill-58" sketch:type="MSShapeGroup" fill="#0055A6" d="M89.47,14.099c-0.44-1.08-0.733-1.874-0.722-2.141
	c0.008-0.163,0.194-0.282,0.369-0.337c0.175-0.056,0.331-0.066,0.448,0.025c0.229,0.181,0.442,1.636,0.521,2.242
	C89.862,13.933,89.729,13.961,89.47,14.099"/>
<path id="Fill-59" sketch:type="MSShapeGroup" fill="#0055A6" d="M90.273,13.864c0.111-0.012,0.227-0.02,0.342-0.023
	c-0.07-0.578-0.264-1.542-0.379-1.922c-0.114-0.379-0.261-0.653-0.502-0.722c0,0,0.188,0.529,0.29,1.077
	S90.207,13.345,90.273,13.864"/>
<path id="Fill-60" sketch:type="MSShapeGroup" fill="#0055A6" d="M88.881,15.795c0.484-0.119,0.981-0.652,0.981-0.652
	C89.08,15.26,88.881,15.795,88.881,15.795L88.881,15.795z M89.607,15.746c-0.675,0.406-1.434,0.342-1.434,0.342
	c0.146-0.274,0.284-0.529,0.707-0.84c0.424-0.312,1.113-0.39,1.385-0.351C90.205,15.106,89.928,15.553,89.607,15.746L89.607,15.746z
	"/>
<path id="Fill-61" sketch:type="MSShapeGroup" fill="#0055A6" d="M87.084,16.891v-0.057c-0.666,0.087-1.451,0.05-1.451,0.05
	c0.042,0.255,0.145,0.448,0.32,0.567C85.996,16.897,87.084,16.891,87.084,16.891L87.084,16.891z M84.877,16.156
	c0,0,0.84,0.323,1.682,0.28c0.84-0.044,2.389-0.062,2.891-0.311c0,0-0.084,0.323-0.483,0.511c0,0,0.212,0,0.418,0.187
	c0,0-0.121,0.267-0.478,0.41c0,0,0.641,0.684,1.324,0.635c0,0-0.315,0.404-1.017,0.248c-0.7-0.155-0.925-0.559-1.046-0.715
	c0,0,0.09,0.385,0.047,0.542c0,0-0.308-0.019-0.549-0.331c0,0,0.176,0.312,0.211,0.573c0,0-0.193,0.025-0.539-0.187
	c0,0,0.072,0.192,0.086,0.416c0,0-0.812-0.268-1.205-0.646c0,0-0.006,0.26,0.014,0.411C86.232,18.179,84.973,18.048,84.877,16.156
	L84.877,16.156z"/>
<path id="Fill-62" sketch:type="MSShapeGroup" fill="#0055A6" d="M84.684,16.288c0.029,0.41,0.133,0.815,0.271,1.101
	c0,0-0.496-0.385-0.617-0.708C84.217,16.355,84.188,16.132,84.684,16.288"/>
<path id="Fill-63" sketch:type="MSShapeGroup" fill="#0055A6" d="M83.689,17.842c0.115,0,0.207-0.094,0.207-0.21
	c0-0.117-0.092-0.212-0.207-0.212c-0.112,0-0.205,0.095-0.205,0.212C83.484,17.749,83.577,17.842,83.689,17.842L83.689,17.842z
	 M84.902,17.594c0.332,0.155,0.627,0.522,0.627,0.522c-0.502,0.119-0.727,0.268-0.727,0.268c-0.961-0.697-1.753,0.006-1.753,0.006
	c-0.521-0.305-0.623-1.045-0.362-1.437c0.26-0.392,0.847-0.323,1.125-0.256C83.988,17.271,84.604,17.456,84.902,17.594
	L84.902,17.594z"/>
<path id="Fill-64" sketch:type="MSShapeGroup" fill="#0055A6" d="M85.639,18.247c0,0,0.352,0.479,0.605,0.69
	c0,0-1.295-0.012-1.621,1.14c0,0-0.448-0.704-0.121-1.164C84.854,18.416,85.179,18.354,85.639,18.247"/>
<path id="Fill-65" sketch:type="MSShapeGroup" fill="#0055A6" d="M87.061,18.533c0,0,0.418,0.125,0.556,0.162
	c0,0,0.007-0.249-0.005-0.367c0.127,0.03,0.283,0.075,0.417,0.086c0,0,0.417,0.958,0.743,1.344c0,0,0.019,0.212-0.162,0.535
	c0,0-0.236-0.566-0.66-1.019C87.709,19.017,87.557,18.888,87.061,18.533"/>
<path id="Fill-66" sketch:type="MSShapeGroup" fill="#0055A6" d="M85.959,18.329c0.135,0.037,0.801,0.252,1.125,0.491
	c0.406,0.298,0.684,0.64,0.641,1.23c0,0-0.326-0.465-0.688-0.677C86.75,19.206,86.232,18.739,85.959,18.329"/>
<path id="Fill-67" sketch:type="MSShapeGroup" fill="#0055A6" d="M85.969,13.996c0.123,0,0.362,0.06,0.362,0.263
	c0,0.205-0.31,0.698-0.394,0.918h-0.006c-0.084-0.22-0.395-0.713-0.395-0.918c0-0.203,0.24-0.263,0.363-0.263H85.969"/>
<path id="Fill-68" sketch:type="MSShapeGroup" fill="#0055A6" d="M85.698,15.587c-0.059-0.288-0.169-1.034-0.342-1.199
	c-0.164-0.157-0.405-0.172-0.524-0.164c-0.121,0.007-0.249,0.136-0.198,0.303c0.05,0.168,0.586,0.995,0.655,1.099
	C85.414,15.605,85.39,15.612,85.698,15.587"/>
<path id="Fill-69" sketch:type="MSShapeGroup" fill="#0055A6" d="M86.172,15.587c0.061-0.288,0.17-1.034,0.342-1.199
	c0.163-0.157,0.406-0.172,0.524-0.164c0.122,0.007,0.25,0.136,0.198,0.303c-0.049,0.168-0.586,0.995-0.656,1.099
	C86.455,15.605,86.48,15.612,86.172,15.587"/>
<path id="Fill-70" sketch:type="MSShapeGroup" fill="#0055A6" d="M86.518,12.993H86.1v-0.475h-0.338v0.475h-0.42v0.299h0.42v0.56
	H86.1v-0.56h0.418V12.993"/>
<path id="Fill-71" sketch:type="MSShapeGroup" fill="#0055A6" d="M81.452,16.057c0.001-0.091,0.007-0.183,0.019-0.273
	c0.033-0.23,0.035-0.429,0.01-0.592c-0.299,0.118-0.504,0.193-0.918,0.88C80.562,16.072,81.223,15.653,81.452,16.057"/>
<path id="Fill-72" sketch:type="MSShapeGroup" fill="#0055A6" d="M82.029,17.147c0.009-0.171,0.117-0.709,0.255-1.09
	c0.169-0.465,0.073-1.143-0.13-1.553c-0.197-0.396-0.305-0.77-0.27-1.181c0,0-0.393,0.135-0.617,0.277
	c-0.037,0.477,0.233,0.953,0.363,1.225c0.152,0.32,0.121,0.737,0.087,0.993C81.66,16.251,81.746,16.714,82.029,17.147"/>
<path id="Fill-73" sketch:type="MSShapeGroup" fill="#0055A6" d="M82.074,13.503C82.06,13.45,82.06,13.3,82.088,13.24
	c0,0,0.615-0.617,1.134-0.722c0.327-0.067,0.53,0.082,0.624,0.165c0,0-0.182-0.022-0.457,0.208c-0.275,0.231-0.619,0.51-0.879,0.58
	C82.253,13.54,82.197,13.519,82.074,13.503"/>
<path id="Fill-74" sketch:type="MSShapeGroup" fill="#0055A6" d="M83.896,12.729c0.232,0.239,0.428,0.49,0.424,0.708
	c-0.004,0.227-0.26,0.793-0.394,1.011c-0.134,0.218-0.33,0.499-0.308,0.844c0.012,0.172,0.128,0.349,0.266,0.494
	c0,0-0.754-0.184-0.846-0.663c-0.082-0.428,0.096-0.729,0.217-0.966c0.113-0.222,0.461-0.743,0.549-0.959
	C83.884,13.001,83.926,12.837,83.896,12.729"/>
<path id="Fill-75" sketch:type="MSShapeGroup" fill="#0055A6" d="M88.304,18.125c0.151,0.547,0.407,1.062,0.659,1.467
	c0.227,0.367,0.371,0.968,0.35,1.171c0,0,0.342-0.773,0.166-1.32C89.344,19.022,88.978,18.392,88.304,18.125"/>
<path id="Fill-76" sketch:type="MSShapeGroup" fill="#0055A6" d="M89.152,18.306c0,0,0.516,0.007,0.759,0.171
	c0.312,0.212,0.606,0.672,0.72,1.226c0,0-0.522-0.093-0.78-0.358C89.593,19.078,89.274,18.681,89.152,18.306"/>
<path id="Fill-77" sketch:type="MSShapeGroup" fill="#0055A6" d="M86.475,19.266c-0.1,0.009-0.365,0.071-0.494,0.11
	c0,0,0.441,0.132,0.66,0.319c0.188,0.159,0.35,0.405,0.426,0.819c0.106,0.578,0.438,1.202,0.537,1.389l0.04-0.008
	c-0.062-0.398,0.181-1.224,0.241-1.342c0,0-0.348-0.226-0.508-0.461C87.26,19.92,87.051,19.633,86.475,19.266"/>
<path id="Fill-78" sketch:type="MSShapeGroup" fill="#0055A6" d="M88.767,20.507c0.128,0.304,0.47,0.842,0.31,1.404
	c-0.16,0.562-0.515,0.804-0.736,1.279c0,0-0.175-0.858-0.135-1.521C88.242,21.006,88.478,20.749,88.767,20.507"/>
<path id="Fill-79" sketch:type="MSShapeGroup" fill="#0055A6" d="M89.76,20.53c0,0,0.514,1.025,0.607,1.428
	c0.09,0.397,0.007,0.663-0.168,0.904s-0.471,0.5-0.742,1.007c0,0-0.318-0.429-0.358-0.656c-0.038-0.226,0.023-0.765,0.093-0.991
	C89.259,21.997,89.531,21.271,89.76,20.53"/>
<path id="Fill-80" sketch:type="MSShapeGroup" fill="#0055A6" d="M90.024,23.804c-0.114,0.125-0.715,0.868-0.796,1.085
	c-0.08,0.217-0.219,0.626-0.033,0.91c0.188,0.284,0.615,0.739,0.99,0.932c0,0-0.406-0.652-0.365-1.187
	c0.027-0.341,0.283-0.646,0.332-0.855C90.201,24.48,90.17,24.129,90.024,23.804"/>
<path id="Fill-81" sketch:type="MSShapeGroup" fill="#0055A6" d="M88.848,23.393c0.092,0.132,0.253,0.451,0.274,0.764
	c0.021,0.306-0.026,0.553-0.189,1.003c-0.205,0.567-0.524,1.199-0.672,1.482c0,0-0.283-0.415-0.438-0.785
	c0,0,0.441-0.621,0.629-1.061C88.67,24.279,88.762,23.8,88.848,23.393"/>
<path id="Fill-82" sketch:type="MSShapeGroup" fill="#0055A6" d="M88.642,23.153c0,0-0.189,1.459-1.024,2.544
	c-0.564,0.734-1.025,0.989-1.328,0.989c-0.459,0-0.92-0.393-1.075-0.843c-0.155-0.45-0.106-1.148,0.19-1.396
	c0,0,0.276,0.876,0.863,0.908C86.932,25.393,87.787,24.629,88.642,23.153"/>
<path id="Fill-83" sketch:type="MSShapeGroup" fill="#0055A6" d="M87.957,22.543c0.07,0.261,0.092,0.662,0,1.04
	c-0.07,0.286-0.24,0.663-0.566,0.872c-0.281,0.181-0.947,0.225-1.201-0.422C86.189,24.033,87.404,24.127,87.957,22.543"/>
<path id="Fill-84" sketch:type="MSShapeGroup" fill="#0055A6" d="M89.946,28.43c0.167,0.438,0.762,0.994,0.759,1.336
	c-0.012,0.909-0.396,1.465-0.488,1.765c0,0-0.707-0.578-0.833-1.241C89.32,29.951,89.395,28.932,89.946,28.43"/>
<path id="Fill-85" sketch:type="MSShapeGroup" fill="#0055A6" d="M89.155,29.071c0.083-0.235,0.343-0.876,0.644-1.101
	c0,0,0.387-1.166-0.852-1.881c0,0-0.509,0.695-0.644,1.347C88.168,28.088,88.844,28.483,89.155,29.071"/>
<path id="Fill-86" sketch:type="MSShapeGroup" fill="#0055A6" d="M87.607,26.132c-0.199,0.245-0.479,0.587-0.697,0.694
	c0,0-0.073,0.521-0.032,0.866c0.063,0.513,0.384,1.038,0.521,1.422c0,0,0.541-0.727,0.604-1.155c0.062-0.428,0.051-0.78,0.072-0.983
	C88.074,26.976,87.773,26.473,87.607,26.132"/>
<path id="Fill-87" sketch:type="MSShapeGroup" fill="#0055A6" d="M86.182,28.625c-0.153-0.239-0.65-1.122-0.657-1.762
	c0,0,0.611,0.333,1.122,0.089c0,0,0.068,0.833-0.031,1.115C86.535,28.296,86.43,28.433,86.182,28.625"/>
<path id="Fill-88" sketch:type="MSShapeGroup" fill="#0055A6" d="M86.322,28.804c0.1-0.088,0.343-0.319,0.442-0.441
	c0,0,0.404,0.763,0.474,0.986c0,0-0.203,0.053-0.425-0.113C86.592,29.069,86.54,29.027,86.322,28.804"/>
<path id="Fill-89" sketch:type="MSShapeGroup" fill="#0055A6" d="M88.197,28.356c-0.049,0.193-0.704,1.128-0.816,1.243
	c0,0,0.051,0.339,0.293,0.826c0.242,0.487,0.58,0.827,0.76,1c0,0,0.403-0.725,0.523-1.044c0.137-0.365,0.121-0.725,0.062-0.858
	C88.883,29.208,88.408,28.753,88.197,28.356"/>
<path id="Fill-90" sketch:type="MSShapeGroup" fill="#0055A6" d="M89.182,30.804c0.143,0.302,0.58,0.794,0.648,1.185
	c0.053,0.307,0.005,0.557-0.075,0.769c-0.081,0.211-0.343,0.622-0.519,0.937c0,0-0.597-0.58-0.729-0.994
	c-0.1-0.312-0.062-0.756,0.082-1.031C88.732,31.393,89.045,31.091,89.182,30.804"/>
<path id="Fill-91" sketch:type="MSShapeGroup" fill="#0055A6" d="M87.487,30.72c0.156,0.347,0.524,0.694,0.61,0.999
	c0.1,0.359,0.131,0.589-0.037,1.006c-0.15,0.369-0.332,0.583-0.394,0.807c0,0-0.485-0.645-0.565-0.914
	c-0.082-0.27-0.107-0.713-0.008-0.994C87.194,31.342,87.369,30.975,87.487,30.72"/>
<path id="Fill-92" sketch:type="MSShapeGroup" fill="#0055A6" d="M89.879,33.18c0,0-0.836,1.038-0.816,1.588
	c0.025,0.687,0.467,1.142,0.53,1.564c0,0,0.437-0.51,0.604-0.852c0.187-0.385,0.33-0.712,0.281-1.147
	C90.428,33.898,90.314,33.617,89.879,33.18"/>
<path id="Fill-93" sketch:type="MSShapeGroup" fill="#0055A6" d="M88.34,33.078c0.132,0.198,0.506,0.877,0.399,1.281
	c-0.105,0.403-0.517,0.973-0.653,1.217c0,0-0.332-0.699-0.406-1.019C87.606,34.237,87.674,33.719,88.34,33.078"/>
<path id="Fill-94" sketch:type="MSShapeGroup" fill="#0055A6" d="M96.695,15.945c0-0.088-0.381-0.158-0.852-0.158
	c-0.47,0-0.851,0.07-0.851,0.158c0,0.087,0.381,0.158,0.851,0.158C96.314,16.103,96.695,16.032,96.695,15.945"/>
<path id="Fill-95" sketch:type="MSShapeGroup" fill="#0055A6" d="M90.895,13.257c0.056-0.392,0.498-1.226,0.498-1.592
	c0-0.287-0.227-0.52-0.506-0.52s-0.506,0.233-0.506,0.52c0,0.366,0.443,1.2,0.497,1.592H90.895"/>
<path id="Fill-96" sketch:type="MSShapeGroup" fill="#0055A6" d="M92.305,14.099c0.441-1.08,0.733-1.874,0.722-2.141
	c-0.009-0.163-0.193-0.282-0.369-0.337c-0.177-0.056-0.333-0.066-0.447,0.025c-0.229,0.181-0.442,1.636-0.521,2.242
	C91.912,13.933,92.047,13.961,92.305,14.099"/>
<path id="Fill-97" sketch:type="MSShapeGroup" fill="#0055A6" d="M91.502,13.864c-0.112-0.012-0.227-0.02-0.342-0.023
	c0.069-0.578,0.263-1.542,0.378-1.922c0.114-0.379,0.261-0.653,0.502-0.722c0,0-0.188,0.529-0.29,1.077S91.568,13.345,91.502,13.864
	"/>
<path id="Fill-98" sketch:type="MSShapeGroup" fill="#0055A6" d="M91.914,15.144c0,0,0.494,0.533,0.98,0.652
	C92.895,15.795,92.693,15.26,91.914,15.144L91.914,15.144z M91.508,14.897c0.271-0.039,0.963,0.039,1.387,0.351
	c0.423,0.312,0.561,0.566,0.707,0.84c0,0-0.76,0.064-1.436-0.342C91.848,15.553,91.57,15.106,91.508,14.897L91.508,14.897z"/>
<path id="Fill-99" sketch:type="MSShapeGroup" fill="#0055A6" d="M95.821,17.451c0.176-0.119,0.278-0.312,0.319-0.567
	c0,0-0.785,0.037-1.45-0.05v0.057C94.69,16.891,95.779,16.897,95.821,17.451L95.821,17.451z M95.543,18.179
	c0.02-0.15,0.013-0.411,0.013-0.411c-0.394,0.379-1.204,0.646-1.204,0.646c0.012-0.224,0.084-0.416,0.084-0.416
	c-0.344,0.211-0.539,0.187-0.539,0.187c0.037-0.262,0.213-0.573,0.213-0.573c-0.242,0.312-0.551,0.331-0.551,0.331
	c-0.042-0.156,0.049-0.542,0.049-0.542c-0.121,0.156-0.346,0.56-1.047,0.715c-0.703,0.156-1.017-0.248-1.017-0.248
	c0.685,0.049,1.325-0.635,1.325-0.635c-0.357-0.143-0.479-0.41-0.479-0.41c0.207-0.187,0.418-0.187,0.418-0.187
	c-0.4-0.188-0.484-0.511-0.484-0.511c0.503,0.249,2.051,0.267,2.893,0.311c0.84,0.043,1.682-0.28,1.682-0.28
	C96.801,18.048,95.543,18.179,95.543,18.179L95.543,18.179z"/>
<path id="Fill-100" sketch:type="MSShapeGroup" fill="#0055A6" d="M97.092,16.288c-0.031,0.41-0.133,0.815-0.272,1.101
	c0,0,0.495-0.385,0.616-0.708C97.558,16.355,97.588,16.132,97.092,16.288"/>
<path id="Fill-101" sketch:type="MSShapeGroup" fill="#0055A6" d="M98.289,17.632c0-0.117-0.092-0.212-0.206-0.212
	c-0.112,0-0.206,0.095-0.206,0.212c0,0.117,0.094,0.21,0.206,0.21C98.197,17.842,98.289,17.749,98.289,17.632L98.289,17.632z
	 M97.962,16.698c0.279-0.067,0.866-0.136,1.125,0.256c0.261,0.392,0.158,1.132-0.361,1.437c0,0-0.794-0.703-1.755-0.006
	c0,0-0.225-0.149-0.727-0.268c0,0,0.297-0.367,0.629-0.522C97.17,17.456,97.786,17.271,97.962,16.698L97.962,16.698z"/>
<path id="Fill-102" sketch:type="MSShapeGroup" fill="#0055A6" d="M96.137,18.247c0,0-0.352,0.479-0.605,0.69
	c0,0,1.295-0.012,1.621,1.14c0,0,0.447-0.704,0.12-1.164C96.921,18.416,96.596,18.354,96.137,18.247"/>
<path id="Fill-103" sketch:type="MSShapeGroup" fill="#0055A6" d="M94.715,18.533c0,0-0.418,0.125-0.557,0.162
	c0,0-0.007-0.249,0.006-0.367c-0.127,0.03-0.285,0.075-0.418,0.086c0,0-0.417,0.958-0.743,1.344c0,0-0.019,0.212,0.163,0.535
	c0,0,0.235-0.566,0.659-1.019C94.064,19.017,94.219,18.888,94.715,18.533"/>
<path id="Fill-104" sketch:type="MSShapeGroup" fill="#0055A6" d="M95.816,18.329c-0.135,0.037-0.803,0.252-1.126,0.491
	c-0.405,0.298-0.685,0.64-0.642,1.23c0,0,0.328-0.465,0.689-0.677C95.025,19.206,95.543,18.739,95.816,18.329"/>
<path id="Fill-105" sketch:type="MSShapeGroup" fill="#0055A6" d="M95.807,13.996c-0.124,0-0.363,0.06-0.363,0.263
	c0,0.205,0.311,0.698,0.393,0.918h0.008c0.082-0.22,0.393-0.713,0.393-0.918c0-0.203-0.239-0.263-0.363-0.263H95.807"/>
<path id="Fill-106" sketch:type="MSShapeGroup" fill="#0055A6" d="M96.076,15.587c0.059-0.288,0.169-1.034,0.342-1.199
	c0.164-0.157,0.404-0.172,0.525-0.164c0.121,0.007,0.248,0.136,0.198,0.303c-0.05,0.168-0.587,0.995-0.657,1.099
	C96.359,15.605,96.385,15.612,96.076,15.587"/>
<path id="Fill-107" sketch:type="MSShapeGroup" fill="#0055A6" d="M95.602,15.587c-0.059-0.288-0.168-1.034-0.342-1.199
	c-0.164-0.157-0.404-0.172-0.525-0.164c-0.119,0.007-0.248,0.136-0.197,0.303c0.051,0.168,0.586,0.995,0.656,1.099
	C95.319,15.605,95.294,15.612,95.602,15.587"/>
<path id="Fill-108" sketch:type="MSShapeGroup" fill="#0055A6" d="M95.258,12.993h0.417v-0.475h0.337v0.475h0.42v0.299h-0.42v0.56
	h-0.337v-0.56h-0.417V12.993"/>
<path id="Fill-109" sketch:type="MSShapeGroup" fill="#0055A6" d="M90.239,10.181h0.417V9.704h0.338v0.477h0.419v0.299h-0.419v0.559
	h-0.338V10.48h-0.417V10.181"/>
<path id="Fill-110" sketch:type="MSShapeGroup" fill="#0055A6" d="M100.322,16.057c0-0.091-0.007-0.183-0.02-0.273
	c-0.031-0.23-0.033-0.429-0.01-0.592c0.301,0.118,0.504,0.193,0.918,0.88C101.211,16.072,100.552,15.653,100.322,16.057"/>
<path id="Fill-111" sketch:type="MSShapeGroup" fill="#0055A6" d="M99.744,17.147c-0.008-0.171-0.117-0.709-0.254-1.09
	c-0.168-0.465-0.072-1.143,0.131-1.553c0.195-0.396,0.305-0.77,0.269-1.181c0,0,0.392,0.135,0.616,0.277
	c0.037,0.477-0.233,0.953-0.361,1.225c-0.154,0.32-0.122,0.737-0.088,0.993C100.115,16.251,100.027,16.714,99.744,17.147"/>
<path id="Fill-112" sketch:type="MSShapeGroup" fill="#0055A6" d="M99.701,13.503c0.015-0.053,0.014-0.203-0.015-0.263
	c0,0-0.615-0.617-1.133-0.722c-0.327-0.067-0.53,0.082-0.625,0.165c0,0,0.182-0.022,0.457,0.208c0.276,0.231,0.618,0.51,0.879,0.58
	C99.521,13.54,99.578,13.519,99.701,13.503"/>
<path id="Fill-113" sketch:type="MSShapeGroup" fill="#0055A6" d="M97.877,12.729c-0.232,0.239-0.427,0.49-0.423,0.708
	c0.005,0.227,0.259,0.793,0.394,1.011c0.135,0.218,0.331,0.499,0.307,0.844c-0.013,0.172-0.127,0.349-0.264,0.494
	c0,0,0.754-0.184,0.846-0.663c0.081-0.428-0.096-0.729-0.217-0.966c-0.114-0.222-0.461-0.743-0.549-0.959
	C97.892,13.001,97.85,12.837,97.877,12.729"/>
<path id="Fill-114" sketch:type="MSShapeGroup" fill="#0055A6" d="M93.473,18.125c-0.152,0.547-0.409,1.062-0.66,1.467
	c-0.229,0.367-0.373,0.968-0.35,1.171c0,0-0.342-0.773-0.166-1.32C92.432,19.022,92.795,18.392,93.473,18.125"/>
<path id="Fill-115" sketch:type="MSShapeGroup" fill="#0055A6" d="M92.621,18.306c0,0-0.516,0.007-0.758,0.171
	c-0.311,0.212-0.607,0.672-0.721,1.226c0,0,0.523-0.093,0.781-0.358C92.182,19.078,92.501,18.681,92.621,18.306"/>
<path id="Fill-116" sketch:type="MSShapeGroup" fill="#0055A6" d="M95.301,19.266c0.098,0.009,0.363,0.071,0.492,0.11
	c0,0-0.44,0.132-0.659,0.319c-0.188,0.159-0.349,0.405-0.425,0.819c-0.107,0.578-0.438,1.202-0.538,1.389l-0.04-0.008
	c0.062-0.398-0.182-1.224-0.242-1.342c0,0,0.35-0.226,0.51-0.461C94.515,19.92,94.725,19.633,95.301,19.266"/>
<path id="Fill-117" sketch:type="MSShapeGroup" fill="#0055A6" d="M93.009,20.507c-0.129,0.304-0.47,0.842-0.312,1.404
	c0.159,0.562,0.517,0.804,0.736,1.279c0,0,0.176-0.858,0.137-1.521C93.532,21.006,93.297,20.749,93.009,20.507"/>
<path id="Fill-118" sketch:type="MSShapeGroup" fill="#0055A6" d="M90.895,22.079c0.021-0.327,0.764-1.12,0.727-1.549
	c-0.039-0.429-0.594-0.733-0.73-0.795h-0.007c-0.137,0.062-0.691,0.366-0.729,0.795s0.703,1.222,0.726,1.549H90.895"/>
<path id="Fill-119" sketch:type="MSShapeGroup" fill="#0055A6" d="M92.015,20.53c0,0-0.515,1.025-0.607,1.428
	c-0.089,0.397-0.007,0.663,0.169,0.904c0.174,0.242,0.469,0.5,0.743,1.007c0,0,0.317-0.429,0.356-0.656
	c0.037-0.226-0.023-0.765-0.092-0.991C92.516,21.997,92.242,21.271,92.015,20.53"/>
<path id="Fill-120" sketch:type="MSShapeGroup" fill="#0055A6" d="M90.893,24.497c0.236-0.209,0.444-0.518,0.51-0.702
	c0.064-0.184,0.084-0.453-0.072-0.658c-0.188-0.246-0.422-0.52-0.438-0.743h-0.012c-0.018,0.224-0.25,0.497-0.437,0.743
	c-0.155,0.205-0.138,0.474-0.071,0.658c0.064,0.184,0.275,0.493,0.511,0.702H90.893"/>
<path id="Fill-121" sketch:type="MSShapeGroup" fill="#0055A6" d="M91.752,23.804c0.112,0.125,0.713,0.868,0.794,1.085
	s0.219,0.626,0.031,0.91c-0.186,0.284-0.612,0.739-0.987,0.932c0,0,0.405-0.652,0.365-1.187c-0.027-0.341-0.285-0.646-0.334-0.855
	C91.572,24.48,91.605,24.129,91.752,23.804"/>
<path id="Fill-122" sketch:type="MSShapeGroup" fill="#0055A6" d="M92.928,23.393c-0.093,0.132-0.254,0.451-0.275,0.764
	c-0.021,0.306,0.027,0.553,0.191,1.003c0.205,0.567,0.521,1.199,0.671,1.482c0,0,0.282-0.415,0.437-0.785
	c0,0-0.441-0.621-0.628-1.061C93.104,24.279,93.013,23.8,92.928,23.393"/>
<path id="Fill-123" sketch:type="MSShapeGroup" fill="#0055A6" d="M93.133,23.153c0,0,0.189,1.459,1.024,2.544
	c0.565,0.734,1.024,0.989,1.329,0.989c0.459,0,0.918-0.393,1.074-0.843c0.154-0.45,0.105-1.148-0.191-1.396
	c0,0-0.275,0.876-0.862,0.908C94.842,25.393,93.986,24.629,93.133,23.153"/>
<path id="Fill-124" sketch:type="MSShapeGroup" fill="#0055A6" d="M93.818,22.543c-0.07,0.261-0.092,0.662,0,1.04
	c0.069,0.286,0.24,0.663,0.564,0.872c0.283,0.181,0.947,0.225,1.201-0.422C95.584,24.033,94.369,24.127,93.818,22.543"/>
<path id="Fill-125" sketch:type="MSShapeGroup" fill="#0055A6" d="M90.887,26.877c0.173-0.084,0.318-0.148,0.517-0.458
	c0.155-0.244,0.302-0.695,0.218-1.015c-0.103-0.396-0.312-0.556-0.437-0.803c-0.104,0.098-0.167,0.174-0.292,0.25h-0.007
	c-0.126-0.076-0.192-0.152-0.296-0.25c-0.125,0.247-0.334,0.407-0.438,0.803c-0.081,0.32,0.064,0.771,0.22,1.015
	C90.569,26.729,90.715,26.793,90.887,26.877L90.887,26.877"/>
<path id="Fill-126" sketch:type="MSShapeGroup" fill="#0055A6" d="M90.887,29.338c0.084-0.385,0.87-1.133,0.797-1.54
	c-0.107-0.609-0.49-0.48-0.791-0.738h-0.006c-0.303,0.257-0.688,0.128-0.796,0.738c-0.071,0.406,0.708,1.154,0.793,1.54H90.887"/>
<path id="Fill-127" sketch:type="MSShapeGroup" fill="#0055A6" d="M91.83,28.43c-0.168,0.438-0.764,0.994-0.76,1.336
	c0.01,0.909,0.395,1.465,0.488,1.765c0,0,0.707-0.578,0.831-1.241C92.453,29.951,92.38,28.932,91.83,28.43"/>
<path id="Fill-128" sketch:type="MSShapeGroup" fill="#0055A6" d="M92.619,29.071c-0.084-0.235-0.344-0.876-0.645-1.101
	c0,0-0.385-1.166,0.853-1.881c0,0,0.509,0.695,0.646,1.347C93.607,28.088,92.933,28.483,92.619,29.071"/>
<path id="Fill-129" sketch:type="MSShapeGroup" fill="#0055A6" d="M94.168,26.132c0.197,0.245,0.479,0.587,0.697,0.694
	c0,0,0.072,0.521,0.031,0.866c-0.063,0.513-0.385,1.038-0.52,1.422c0,0-0.542-0.727-0.605-1.155
	c-0.062-0.428-0.051-0.78-0.072-0.983C93.699,26.976,94.001,26.473,94.168,26.132"/>
<path id="Fill-130" sketch:type="MSShapeGroup" fill="#0055A6" d="M95.594,28.625c0.152-0.239,0.65-1.122,0.656-1.762
	c0,0-0.611,0.333-1.122,0.089c0,0-0.067,0.833,0.032,1.115C95.24,28.296,95.346,28.433,95.594,28.625"/>
<path id="Fill-131" sketch:type="MSShapeGroup" fill="#0055A6" d="M95.453,28.804c-0.101-0.088-0.344-0.319-0.443-0.441
	c0,0-0.404,0.763-0.474,0.986c0,0,0.203,0.053,0.425-0.113C95.183,29.069,95.234,29.027,95.453,28.804"/>
<path id="Fill-132" sketch:type="MSShapeGroup" fill="#0055A6" d="M93.578,28.356c0.049,0.193,0.704,1.128,0.814,1.243
	c0,0-0.049,0.339-0.293,0.826c-0.242,0.487-0.578,0.827-0.759,1c0,0-0.403-0.725-0.524-1.044c-0.136-0.365-0.119-0.725-0.061-0.858
	C92.892,29.208,93.365,28.753,93.578,28.356"/>
<path id="Fill-133" sketch:type="MSShapeGroup" fill="#0055A6" d="M91.491,32.887c0.093-0.265,0.089-0.573-0.013-0.783
	c-0.118-0.244-0.542-0.845-0.592-1.019c-0.053,0.174-0.472,0.774-0.591,1.019c-0.103,0.21-0.106,0.519-0.012,0.783
	c0.157,0.443,0.534,0.747,0.597,1.004h0.012C90.955,33.634,91.332,33.33,91.491,32.887z"/>
<path id="Fill-134" sketch:type="MSShapeGroup" fill="#0055A6" d="M92.594,30.804c-0.145,0.302-0.58,0.794-0.648,1.185
	c-0.054,0.307-0.006,0.557,0.074,0.769c0.08,0.211,0.344,0.622,0.518,0.937c0,0,0.598-0.58,0.729-0.994
	c0.1-0.312,0.063-0.756-0.08-1.031C93.041,31.393,92.73,31.091,92.594,30.804"/>
<path id="Fill-135" sketch:type="MSShapeGroup" fill="#0055A6" d="M94.288,30.72c-0.157,0.347-0.526,0.694-0.611,0.999
	c-0.099,0.359-0.131,0.589,0.038,1.006c0.148,0.369,0.33,0.583,0.393,0.807c0,0,0.484-0.645,0.566-0.914s0.106-0.713,0.008-0.994
	C94.58,31.342,94.406,30.975,94.288,30.72"/>
<path id="Fill-136" sketch:type="MSShapeGroup" fill="#0055A6" d="M90.887,38.85c0.031-0.316,0.667-1.294,0.697-2.332
	c0.016-0.52-0.436-1.332-0.691-1.641H90.88c-0.257,0.309-0.704,1.121-0.69,1.641C90.221,37.556,90.854,38.533,90.887,38.85
	L90.887,38.85"/>
<path id="Fill-137" sketch:type="MSShapeGroup" fill="#0055A6" d="M91.896,33.18c0,0,0.836,1.038,0.816,1.588
	c-0.024,0.687-0.468,1.142-0.53,1.564c0,0-0.438-0.51-0.604-0.852c-0.187-0.385-0.33-0.712-0.278-1.147
	C91.348,33.898,91.459,33.617,91.896,33.18"/>
<path id="Fill-138" sketch:type="MSShapeGroup" fill="#0055A6" d="M93.434,33.078c-0.131,0.198-0.504,0.877-0.398,1.281
	c0.105,0.403,0.518,0.973,0.654,1.217c0,0,0.33-0.699,0.405-1.019C94.169,34.237,94.1,33.719,93.434,33.078"/>
<path id="Fill-139" sketch:type="MSShapeGroup" fill="#0055A6" d="M91.459,40.515c0.051-0.807,0.496-1.29,0.572-1.71
	c0.088-0.461,0.059-0.902-0.291-1.435c-0.281,0.993-0.592,1.718-0.835,2.216c-0.006,0.013-0.012,0.027-0.019,0.041
	c-0.006-0.014-0.011-0.028-0.017-0.041c-0.243-0.498-0.556-1.223-0.836-2.216c-0.348,0.532-0.379,0.974-0.292,1.435
	c0.079,0.42,0.523,0.903,0.572,1.71c0.051,0.808-0.834,1.116-0.834,1.116c0.299,0.109,0.639,0.158,1.178-0.367
	c0.099-0.096,0.174-0.2,0.229-0.311c0.057,0.11,0.131,0.215,0.23,0.311c0.539,0.525,0.878,0.477,1.176,0.367
	C92.293,41.631,91.409,41.322,91.459,40.515"/>
<path id="Fill-140" sketch:type="MSShapeGroup" fill="#0055A6" d="M88.676,35.148c0.094,0.302,0.369,0.858,0.404,1.029
	c0.066,0.32-0.023,0.707-0.59,1.119c0,0-0.368-0.264-0.514-0.611c-0.135-0.326-0.057-0.555,0.086-0.723
	C88.203,35.793,88.535,35.402,88.676,35.148"/>
<path id="Fill-141" sketch:type="MSShapeGroup" fill="#0055A6" d="M89.869,36.343c0,0.162-0.117,1.075-0.369,1.528
	c-0.354,0.637-0.876,1.111-1.331,1.111c-0.423,0-0.512-0.259-0.722-0.365c0,0,0.107-0.553,0.581-0.698
	C88.612,37.741,89.507,37.021,89.869,36.343"/>
<path id="Fill-142" sketch:type="MSShapeGroup" fill="#0055A6" d="M88.348,37.507c-0.098-0.077-0.184-0.131-0.301-0.271
	c0,0-0.451,0.172-0.82,0.428c-0.371,0.256-0.734,0.691-0.93,0.92c0,0,0.555,0.148,0.906-0.017c0,0,0.129-0.545,0.523-0.788
	C87.814,37.726,88.091,37.643,88.348,37.507"/>
<path id="Fill-143" sketch:type="MSShapeGroup" fill="#0055A6" d="M87.885,37.039c-0.085-0.137-0.261-0.391-0.223-0.787
	c0,0-0.779,0.506-1.014,0.701s-0.721,0.712-0.829,0.882c0,0,0.589-0.132,1.042-0.287C87.359,37.377,87.703,37.148,87.885,37.039"/>
<path id="Fill-144" sketch:type="MSShapeGroup" fill="#0055A6" d="M86.564,37.908c-0.419,0.152-1.365,0.311-1.76,0.431
	c-0.396,0.12-0.682,0.331-1.061,0.756c0,0,0.58,0.165,0.891,0.268c0,0,0.494-0.347,1.034-0.56
	C86.02,38.664,86.191,38.283,86.564,37.908"/>
<path id="Fill-145" sketch:type="MSShapeGroup" fill="#0055A6" d="M85.687,40.773c0.091-0.102,0.204-0.221,0.116-0.462
	c-0.062-0.177-0.404-0.37-0.611-0.474c-0.338-0.165-1.278-0.424-1.584-0.517c0,0-0.152,0.185-0.234,0.379
	c-0.036,0.075,0.012,0.152,0.145,0.177c0.261,0.045,0.891-0.075,1.044,0.027c0.166,0.11,0.108,0.26,0.108,0.407
	c0,0,0.287-0.18,0.467-0.14C85.39,40.229,85.542,40.349,85.687,40.773"/>
<path id="Fill-146" sketch:type="MSShapeGroup" fill="#0055A6" d="M84.85,39.43c0.068,0.023,0.434,0.139,0.791,0.371
	c0,0,0.159-0.062,0.236-0.213c0.076-0.144,0.398-0.632,0.692-0.697c0,0-0.251-0.025-0.394-0.071c0,0-0.307,0.081-0.523,0.171
	C85.436,39.081,85.165,39.219,84.85,39.43"/>
<path id="Fill-147" sketch:type="MSShapeGroup" fill="#0055A6" d="M87.274,38.813c-0.058,0.027-0.152,0.073-0.372,0.083
	c0,0-0.828,0.59-0.924,1.177c-0.083,0.504,0.175,0.744,0.299,0.808c0.125,0.064,0.702,0.309,1.078-0.486
	c0,0-0.641,0.216-0.814-0.102c-0.174-0.316,0.107-0.777,0.282-0.91c0.228-0.175,0.64-0.294,0.888-0.248
	C87.711,39.135,87.512,38.938,87.274,38.813"/>
<path id="Fill-148" sketch:type="MSShapeGroup" fill="#0055A6" d="M81.859,45.561c0.101-0.432,0.212-0.888,0.404-1.307
	c0.373-0.812,1.29-2.979,3.2-3.361c0.181-0.035-0.206-0.492-0.378-0.47c-0.17,0.022-0.512,0.248-0.662,0.351
	c0,0,0-0.462-0.005-0.544c-0.005-0.083-0.075-0.114-0.15-0.11c-0.072,0.001-0.536-0.004-0.681,0.17
	c-0.436,0.518-1.171,1.912-1.586,2.951c-0.418,1.037-0.703,1.354-1.143,1.194c-0.439-0.157-0.701-0.676-1.469-0.518
	c-0.264,0.053-0.559,0.237-0.789,0.508c0.063,0.126,0.145,0.28,0.504,0.28c0.357,0,1.04,0.155,1.422,0.43
	C80.908,45.407,81.309,45.499,81.859,45.561"/>
<path id="Fill-149" sketch:type="MSShapeGroup" fill="#0055A6" d="M89.486,38.846c0.043,0.334,0.2,0.649,0.375,0.975
	c0,0-0.582,2.761-2.686,2.975c0,0,0.043-0.572,0.666-1.009c0.623-0.436,1.555-1.111,1.486-2.138c0,0-0.166,0.035-0.465,0.42
	s-0.955,1.496-1.969,1.504c0,0,0.148-0.521,0.598-0.821c0.45-0.298,1.023-0.683,1.281-1.146
	C89.029,39.145,89.305,38.932,89.486,38.846"/>
<path id="Fill-150" sketch:type="MSShapeGroup" fill="#0055A6" d="M88.494,48.898l1.279,1.842l0.97-1.775l-0.344-0.633
	c-0.253,0.469-0.524,0.973-0.679,1.246c-0.118-0.171-0.441-0.637-0.863-1.246L88.494,48.898"/>
<path id="Fill-151" sketch:type="MSShapeGroup" fill="#0055A6" d="M88.166,47.338c-1.246-1.795-2.787-4.02-2.943-4.244l0.484-0.357
	l-1.527-0.6l0.029,1.707l0.516-0.381l3.081,4.441L88.166,47.338"/>
<path id="Fill-152" sketch:type="MSShapeGroup" fill="#0055A6" d="M77.643,37.25c0.378-0.422,1.017-0.059,1.66,0.553
	c0.646,0.608,1.053,1.232,0.676,1.655c-0.348,0.39-1.016,0.058-1.661-0.552C77.673,38.297,77.266,37.672,77.643,37.25"/>
<path id="Fill-153" sketch:type="MSShapeGroup" fill="#0055A6" d="M78.684,44.751c-0.021-0.017-0.04-0.034-0.061-0.054
	c-0.342-0.309-0.537-0.783-0.537-1.302c0-0.998,0.789-1.81,1.759-1.81s1.758,0.812,1.758,1.81c0,0.136-0.025,0.355-0.025,0.355
	c0.081-0.155,0.369-0.845,0.429-0.97c-0.263-0.975-1.133-1.691-2.161-1.691c-0.885,0-1.651,0.53-2.016,1.298
	c0.139-0.912,0.579-1.733,0.894-2.037c0.373-0.363,1.01-0.479,1.01-0.479c-0.416,0.069-0.967-0.195-1.583-0.776
	c-0.585-0.553-0.886-1.034-0.903-1.438c0.037,0.57,0.02,0.889-0.137,1.352c-0.214,0.631-0.795,1.793-0.588,3.105
	c0.115,0.721,0.623,1.793,1.473,2.67c0.18,0.197,0.25,0.488,0.27,0.641c0,0,1.255,0,1.552,0.026c0,0,0.298-0.026,0.293-0.219
	c-0.005-0.19-0.171-0.239-0.319-0.239S79.018,45.007,78.684,44.751"/>
<path id="Fill-154" sketch:type="MSShapeGroup" fill="#0055A6" d="M85.613,45.189c-0.805,0.301-1.609,0.458-2.372,0.578
	c-0.496,0.079-0.981,0.105-1.447,0.082c0.009,0.079,0.007,0.185-0.038,0.262c0,0,0.094,0.111,0.094,0.236
	c0.473,0.02,0.965-0.01,1.467-0.089c0.832-0.132,1.71-0.306,2.592-0.648L85.613,45.189"/>
<path id="Fill-155" sketch:type="MSShapeGroup" fill="#0055A6" d="M86.936,45.126c1.068-0.602,2.113-1.527,3.053-3.007l0.17-0.291
	c-0.257,0.117-0.588,0.037-0.588,0.037c-0.015,0.024-0.057,0.09-0.078,0.127c-0.878,1.333-1.849,2.174-2.843,2.723L86.936,45.126"/>
<path id="Fill-156" sketch:type="MSShapeGroup" fill="#0055A6" d="M79.885,45.598c-0.146-0.024-0.615-0.012-0.898,0.033
	c-0.307,0.05-0.658,0.115-0.694,0.289c-0.036,0.166,0.077,0.343,0.231,0.594c0.098,0.155,0.325,0.066,0.453,0.018
	s0.85-0.447,0.967-0.578C80.061,45.821,80.108,45.637,79.885,45.598"/>
<path id="Fill-157" sketch:type="MSShapeGroup" fill="#0055A6" d="M80.623,46.089c-0.078-0.051-0.266-0.125-0.463-0.049
	c-0.195,0.076-0.908,0.509-0.955,0.711c-0.048,0.201,0.049,0.305,0.16,0.35c0.109,0.045,0.244,0.087,0.342,0.097
	c0.178,0.016,0.354-0.092,0.443-0.206c0.092-0.115,0.424-0.53,0.473-0.624C80.67,46.275,80.697,46.139,80.623,46.089"/>
<path id="Fill-158" sketch:type="MSShapeGroup" fill="#0055A6" d="M80.709,46.544c-0.102,0.118-0.391,0.479-0.425,0.537
	c-0.034,0.06,0.017,0.151,0.108,0.142c0.089-0.009,0.578-0.061,0.861-0.26c0.281-0.197,0.47-0.578,0.275-0.717
	C81.336,46.105,81.037,46.168,80.709,46.544"/>
<path id="Fill-159" sketch:type="MSShapeGroup" fill="#0055A6" d="M80.867,45.445c-0.093-0.023-0.463-0.121-0.544,0.006
	c-0.101,0.156-0.028,0.325,0.259,0.468c0.287,0.142,0.83,0.255,0.938,0.103C81.627,45.867,81.479,45.607,80.867,45.445"/>
<path id="Fill-160" sketch:type="MSShapeGroup" fill="#0055A6" d="M93.096,35.148c-0.093,0.302-0.367,0.858-0.402,1.029
	c-0.066,0.32,0.022,0.707,0.59,1.119c0,0,0.367-0.264,0.514-0.611c0.136-0.326,0.055-0.555-0.086-0.723
	C93.569,35.793,93.238,35.402,93.096,35.148"/>
<path id="Fill-161" sketch:type="MSShapeGroup" fill="#0055A6" d="M91.902,36.343c0,0.162,0.118,1.075,0.371,1.528
	c0.354,0.637,0.874,1.111,1.33,1.111c0.424,0,0.512-0.259,0.722-0.365c0,0-0.106-0.553-0.583-0.698
	C93.161,37.741,92.266,37.021,91.902,36.343"/>
<path id="Fill-162" sketch:type="MSShapeGroup" fill="#0055A6" d="M93.426,37.507c0.098-0.077,0.182-0.131,0.301-0.271
	c0,0,0.45,0.172,0.819,0.428c0.37,0.256,0.733,0.691,0.93,0.92c0,0-0.554,0.148-0.907-0.017c0,0-0.129-0.545-0.523-0.788
	C93.959,37.726,93.682,37.643,93.426,37.507"/>
<path id="Fill-163" sketch:type="MSShapeGroup" fill="#0055A6" d="M93.888,37.039c0.086-0.137,0.262-0.391,0.224-0.787
	c0,0,0.779,0.506,1.014,0.701s0.721,0.712,0.83,0.882c0,0-0.591-0.132-1.043-0.287C94.414,37.377,94.072,37.148,93.888,37.039"/>
<path id="Fill-164" sketch:type="MSShapeGroup" fill="#0055A6" d="M95.208,37.908c0.419,0.152,1.364,0.311,1.76,0.431
	s0.683,0.331,1.062,0.756c0,0-0.581,0.165-0.891,0.268c0,0-0.494-0.347-1.034-0.56C95.752,38.664,95.582,38.283,95.208,37.908"/>
<path id="Fill-165" sketch:type="MSShapeGroup" fill="#0055A6" d="M96.086,40.773c-0.09-0.102-0.203-0.221-0.116-0.462
	c0.062-0.177,0.405-0.37,0.612-0.474c0.339-0.165,1.279-0.424,1.584-0.517c0,0,0.152,0.185,0.233,0.379
	c0.036,0.075-0.011,0.152-0.144,0.177c-0.262,0.045-0.893-0.075-1.045,0.027c-0.165,0.11-0.107,0.26-0.107,0.407
	c0,0-0.287-0.18-0.469-0.14C96.383,40.229,96.23,40.349,96.086,40.773"/>
<path id="Fill-166" sketch:type="MSShapeGroup" fill="#0055A6" d="M96.924,39.43c-0.068,0.023-0.434,0.139-0.793,0.371
	c0,0-0.157-0.062-0.234-0.213c-0.076-0.144-0.398-0.632-0.691-0.697c0,0,0.248-0.025,0.393-0.071c0,0,0.307,0.081,0.523,0.171
	C96.338,39.081,96.608,39.219,96.924,39.43"/>
<path id="Fill-167" sketch:type="MSShapeGroup" fill="#0055A6" d="M94.5,38.813c0.057,0.027,0.15,0.073,0.369,0.083
	c0,0,0.828,0.59,0.926,1.177c0.084,0.504-0.174,0.744-0.299,0.808c-0.127,0.064-0.702,0.309-1.078-0.486
	c0,0,0.639,0.216,0.814-0.102c0.174-0.316-0.107-0.777-0.282-0.91c-0.228-0.175-0.639-0.294-0.891-0.248
	C94.06,39.135,94.262,38.938,94.5,38.813"/>
<path id="Fill-168" sketch:type="MSShapeGroup" fill="#0055A6" d="M99.913,45.561c-0.101-0.432-0.212-0.888-0.405-1.307
	c-0.371-0.812-1.288-2.979-3.197-3.361c-0.182-0.035,0.205-0.492,0.375-0.47c0.174,0.022,0.514,0.248,0.664,0.351
	c0,0,0-0.462,0.004-0.544c0.006-0.083,0.076-0.114,0.15-0.11c0.073,0.001,0.537-0.004,0.682,0.17
	c0.436,0.518,1.17,1.912,1.586,2.951c0.418,1.037,0.703,1.354,1.141,1.194c0.44-0.157,0.703-0.676,1.471-0.518
	c0.264,0.053,0.557,0.237,0.789,0.508c-0.063,0.126-0.145,0.28-0.503,0.28c-0.359,0-1.042,0.155-1.423,0.43
	C100.864,45.407,100.465,45.499,99.913,45.561"/>
<path id="Fill-169" sketch:type="MSShapeGroup" fill="#0055A6" d="M92.285,38.846c-0.039,0.334-0.199,0.649-0.373,0.975
	c0,0,0.582,2.761,2.685,2.975c0,0-0.042-0.572-0.664-1.009c-0.624-0.436-1.555-1.111-1.489-2.138c0,0,0.166,0.035,0.467,0.42
	c0.299,0.385,0.954,1.496,1.969,1.504c0,0-0.15-0.521-0.598-0.821c-0.449-0.298-1.023-0.683-1.281-1.146
	C92.742,39.145,92.469,38.932,92.285,38.846"/>
<path id="Fill-170" sketch:type="MSShapeGroup" fill="#0055A6" d="M90.891,41.521c0.121,0.368,0.918,1.522,1.267,1.852
	s1.197,1.201,1.649,1.639c0,0-1.291-0.33-2.016-1.008c0,0-0.519,0.311-0.895,0.311h-0.021c-0.376,0-0.894-0.311-0.894-0.311
	c-0.726,0.678-2.017,1.008-2.017,1.008c0.453-0.438,1.301-1.31,1.649-1.639c0.35-0.329,1.146-1.483,1.269-1.852H90.891"/>
<path id="Fill-171" sketch:type="MSShapeGroup" fill="#0055A6" d="M90.895,44.585c0.285,0,0.557-0.117,0.707-0.185
	c-0.15,0.33-0.439,0.843-0.713,1.057h-0.006c-0.273-0.214-0.561-0.727-0.713-1.057c0.152,0.067,0.42,0.185,0.706,0.185H90.895"/>
<path id="Fill-172" sketch:type="MSShapeGroup" fill="#0055A6" d="M91.998,50.74l5.051-7.277l0.516,0.381l0.029-1.707l-1.527,0.6
	l0.482,0.357c-0.246,0.358-4.022,5.801-4.498,6.484l-2.287-4.261l-0.281,0.442l-2.036,3.162l-0.509-0.35l-0.008,1.684l1.544-0.631
	l-0.517-0.353c0.279-0.437,1.385-2.151,1.754-2.725L91.998,50.74"/>
<path id="Fill-173" sketch:type="MSShapeGroup" fill="#0055A6" d="M92.922,47.881c-0.342-0.527-0.685-1.06-0.859-1.333
	c-0.127,0.244-0.389,0.724-0.677,1.253l-0.36-0.664l0.982-1.819l0.283,0.442l1.012,1.572L92.922,47.881"/>
<path id="Fill-174" sketch:type="MSShapeGroup" fill="#0055A6" d="M93.961,48.355l0.365,0.566l0.509-0.35l0.009,1.684l-1.545-0.631
	l0.516-0.353c-0.053-0.083-0.134-0.211-0.234-0.367L93.961,48.355"/>
<path id="Fill-175" sketch:type="MSShapeGroup" fill="#0055A6" d="M104.131,37.25c-0.379-0.422-1.017-0.059-1.662,0.553
	c-0.646,0.608-1.051,1.232-0.676,1.655c0.35,0.39,1.018,0.058,1.663-0.552C104.101,38.297,104.507,37.672,104.131,37.25"/>
<path id="Fill-176" sketch:type="MSShapeGroup" fill="#0055A6" d="M103.09,44.751c0.021-0.017,0.039-0.034,0.059-0.054
	c0.344-0.309,0.539-0.783,0.539-1.302c0-0.998-0.789-1.81-1.76-1.81c-0.969,0-1.757,0.812-1.757,1.81
	c0,0.136,0.025,0.355,0.025,0.355c-0.079-0.155-0.369-0.845-0.428-0.97c0.262-0.975,1.13-1.691,2.159-1.691
	c0.887,0,1.653,0.53,2.017,1.298c-0.139-0.912-0.581-1.733-0.894-2.037c-0.373-0.363-1.012-0.479-1.012-0.479
	c0.418,0.069,0.969-0.195,1.584-0.776c0.585-0.553,0.887-1.034,0.904-1.438c-0.037,0.57-0.02,0.889,0.137,1.352
	c0.213,0.631,0.794,1.793,0.587,3.105c-0.114,0.721-0.622,1.793-1.471,2.67c-0.183,0.197-0.251,0.488-0.271,0.641
	c0,0-1.253,0-1.551,0.026c0,0-0.298-0.026-0.293-0.219c0.006-0.19,0.171-0.239,0.318-0.239
	C102.133,44.992,102.756,45.007,103.09,44.751"/>
<path id="Fill-177" sketch:type="MSShapeGroup" fill="#0055A6" d="M94.835,45.125c-1.067-0.603-2.11-1.527-3.052-3.006l-0.168-0.291
	c0.256,0.117,0.588,0.037,0.588,0.037c0.016,0.024,0.056,0.09,0.078,0.127c0.876,1.331,1.848,2.172,2.841,2.721L94.835,45.125"/>
<path id="Fill-178" sketch:type="MSShapeGroup" fill="#0055A6" d="M96.155,45.188c0.808,0.303,1.612,0.46,2.376,0.58
	c0.496,0.079,0.982,0.105,1.447,0.082c-0.008,0.079-0.006,0.185,0.039,0.262c0,0-0.094,0.111-0.094,0.236
	c-0.475,0.02-0.965-0.01-1.467-0.089c-0.832-0.132-1.711-0.306-2.592-0.648L96.155,45.188"/>
<path id="Fill-179" sketch:type="MSShapeGroup" fill="#0055A6" d="M101.889,45.598c0.147-0.024,0.616-0.012,0.897,0.033
	c0.308,0.05,0.659,0.115,0.696,0.289c0.035,0.166-0.076,0.343-0.234,0.594c-0.097,0.155-0.324,0.066-0.453,0.018
	c-0.126-0.049-0.848-0.447-0.966-0.578C101.713,45.821,101.665,45.637,101.889,45.598"/>
<path id="Fill-180" sketch:type="MSShapeGroup" fill="#0055A6" d="M101.148,46.089c0.08-0.051,0.268-0.125,0.465-0.049
	c0.193,0.076,0.907,0.509,0.955,0.711c0.047,0.201-0.049,0.305-0.16,0.35c-0.109,0.045-0.246,0.087-0.342,0.097
	c-0.178,0.016-0.354-0.092-0.443-0.206c-0.091-0.115-0.425-0.53-0.475-0.624C101.102,46.275,101.076,46.139,101.148,46.089"/>
<path id="Fill-181" sketch:type="MSShapeGroup" fill="#0055A6" d="M101.063,46.544c0.103,0.118,0.392,0.479,0.426,0.537
	c0.032,0.06-0.017,0.151-0.106,0.142c-0.092-0.009-0.582-0.061-0.862-0.26c-0.282-0.197-0.471-0.578-0.276-0.717
	C100.437,46.105,100.738,46.168,101.063,46.544"/>
<path id="Fill-182" sketch:type="MSShapeGroup" fill="#0055A6" d="M100.905,45.445c0.093-0.023,0.464-0.121,0.545,0.006
	c0.101,0.156,0.028,0.325-0.259,0.468c-0.287,0.142-0.83,0.255-0.938,0.103C100.147,45.867,100.297,45.607,100.905,45.445"/>
</svg>
