<?xml version="1.0" encoding="utf-8"?>
<!-- Generator: Adobe Illustrator 16.0.0, SVG Export Plug-In . SVG Version: 6.00 Build 0)  -->
<!DOCTYPE svg PUBLIC "-//W3C//DTD SVG 1.0//EN" "http://www.w3.org/TR/2001/REC-SVG-20010904/DTD/svg10.dtd">
<svg version="1.0" id="Слой_1" xmlns="http://www.w3.org/2000/svg" xmlns:xlink="http://www.w3.org/1999/xlink" x="0px" y="0px"
	 width="729.503px" height="438.191px" viewBox="0 0 729.503 438.191" enable-background="new 0 0 729.503 438.191"
	 xml:space="preserve">
<polygon fill="#ED1B2E" points="510.047,0 498.743,0.288 487.583,1.152 476.639,2.52 465.839,4.464 455.183,6.912 444.815,9.864 
	434.591,13.32 424.655,17.208 414.936,21.6 405.503,26.496 396.359,31.752 387.431,37.44 378.863,43.56 370.583,50.04 
	362.663,56.952 355.103,64.152 347.831,71.784 340.919,79.704 334.439,87.984 328.319,96.552 322.631,105.48 317.375,114.624 
	312.551,124.056 308.231,133.704 304.271,143.639 300.815,153.792 297.935,164.16 295.487,174.672 293.544,185.472 292.175,196.344 
	291.311,207.432 291.023,218.664 291.311,229.968 292.175,241.127 293.544,252.072 295.487,262.944 297.935,273.528 
	300.815,283.968 304.271,294.12 308.231,304.126 312.551,313.848 317.375,323.28 322.631,332.496 328.319,341.423 334.439,349.992 
	340.919,358.272 347.831,366.264 355.103,373.896 362.663,381.167 370.583,388.08 378.863,394.559 387.431,400.68 396.359,406.44 
	405.503,411.696 414.936,416.52 424.655,420.912 434.591,424.872 444.815,428.328 455.183,431.28 465.839,433.728 476.639,435.67 
	487.583,437.04 498.743,437.902 510.047,438.191 521.352,437.902 532.511,437.04 543.455,435.67 554.255,433.728 564.911,431.28 
	575.352,428.328 585.503,424.872 595.511,420.912 605.231,416.52 614.664,411.696 623.879,406.44 632.735,400.68 641.375,394.559 
	649.655,388.08 657.647,381.167 665.279,373.896 672.479,366.264 679.391,358.272 685.943,349.992 692.063,341.423 697.751,332.496 
	703.007,323.28 707.903,313.848 712.295,304.126 716.183,294.12 719.639,283.968 722.591,273.528 725.039,262.944 726.983,252.072 
	728.352,241.127 729.215,229.968 729.503,218.664 729.215,207.432 728.352,196.344 726.983,185.472 725.039,174.672 722.591,164.16 
	719.639,153.792 716.183,143.639 712.295,133.704 707.903,124.056 703.007,114.624 697.751,105.48 692.063,96.552 685.943,87.984 
	679.391,79.704 672.479,71.784 665.279,64.152 657.647,56.952 649.655,50.04 641.375,43.56 632.735,37.44 623.879,31.752 
	614.664,26.496 605.231,21.6 595.511,17.208 585.503,13.32 575.352,9.864 564.911,6.912 554.255,4.464 543.455,2.52 532.511,1.152 
	521.352,0.288 "/>
<polygon fill="#0084C5" points="219.455,0 208.151,0.288 196.991,1.152 186.047,2.52 175.247,4.464 164.591,6.912 154.151,9.864 
	143.999,13.32 133.991,17.208 124.271,21.6 114.839,26.496 105.623,31.752 96.767,37.44 88.127,43.56 79.847,50.04 71.855,56.952 
	64.295,64.152 57.023,71.784 50.111,79.704 43.56,87.984 37.439,96.552 31.752,105.48 26.495,114.624 21.599,124.056 
	17.207,133.704 13.319,143.639 9.863,153.792 6.911,164.16 4.463,174.672 2.519,185.472 1.151,196.344 0.287,207.432 0,218.664 
	0.287,229.968 1.151,241.127 2.519,252.072 4.463,262.944 6.911,273.528 9.863,283.968 13.319,294.12 17.207,304.126 
	21.599,313.848 26.495,323.28 31.752,332.496 37.439,341.423 43.56,349.992 50.111,358.272 57.023,366.264 64.295,373.896 
	71.855,381.167 79.847,388.08 88.127,394.559 96.767,400.68 105.623,406.44 114.839,411.696 124.271,416.52 133.991,420.912 
	143.999,424.872 154.151,428.328 164.591,431.28 175.247,433.728 186.047,435.67 196.991,437.04 208.151,437.902 219.455,438.191 
	230.759,437.902 241.919,437.04 252.863,435.67 263.664,433.728 274.319,431.28 284.687,428.328 294.911,424.872 304.847,420.912 
	314.568,416.52 323.999,411.696 333.143,406.44 342.071,400.68 350.639,394.559 358.919,388.08 366.839,381.167 374.471,373.896 
	381.671,366.264 388.583,358.272 395.063,349.992 401.183,341.423 406.871,332.496 412.127,323.28 416.951,313.848 421.343,304.126 
	425.231,294.12 428.688,283.968 431.567,273.528 434.015,262.944 435.959,252.072 437.327,241.127 438.191,229.968 438.479,218.664 
	438.191,207.432 437.327,196.344 435.959,185.472 434.015,174.672 431.567,164.16 428.688,153.792 425.231,143.639 421.343,133.704 
	416.951,124.056 412.127,114.624 406.871,105.48 401.183,96.552 395.063,87.984 388.583,79.704 381.671,71.784 374.471,64.152 
	366.839,56.952 358.919,50.04 350.639,43.56 342.071,37.44 333.143,31.752 323.999,26.496 314.568,21.6 304.847,17.208 
	294.911,13.32 284.687,9.864 274.319,6.912 263.664,4.464 252.863,2.52 241.919,1.152 230.759,0.288 "/>
<polygon fill="#ED1B2E" points="337.751,83.448 448.847,83.448 448.847,71.208 348.479,71.208 "/>
<polygon fill="#ED1B2E" points="320.327,109.368 448.848,109.368 448.848,97.2 328.103,97.2 "/>
<polygon fill="#ED1B2E" points="307.295,135.72 448.847,135.72 448.847,123.48 313.271,123.48 "/>
<polygon fill="#ED1B2E" points="298.799,161.639 448.848,161.639 448.848,149.472 302.544,149.472 "/>
<polygon fill="#ED1B2E" points="293.255,187.632 448.847,187.632 448.847,175.392 295.487,175.392 "/>
<polygon fill="#ED1B2E" points="292.104,237.959 448.847,237.959 448.847,225.72 291.023,225.72 "/>
<polygon fill="#ED1B2E" points="295.847,265.392 448.848,265.392 448.848,253.152 293.616,253.152 "/>
<polygon fill="#ED1B2E" points="303.263,287.639 448.848,287.639 448.848,275.4 299.52,275.4 "/>
<polygon fill="#ED1B2E" points="314.351,314.712 448.847,314.712 448.847,302.472 308.447,302.472 "/>
<polygon fill="#ED1B2E" points="329.975,342.144 448.847,342.144 448.847,329.904 321.767,329.904 "/>
<polygon fill="#ED1B2E" points="349.559,368.497 447.768,368.497 447.768,356.256 338.831,356.256 "/>
<polygon fill="#FFFFFF" points="462.599,200.232 461.159,200.16 459.719,200.016 458.423,199.8 457.127,199.656 455.831,199.44 
	454.535,199.224 453.167,199.008 451.728,198.792 450.215,198.648 448.631,198.504 446.831,198.36 444.887,198.288 442.728,198.288 
	440.352,198.36 437.688,198.504 434.807,198.72 432.719,199.008 430.775,199.44 428.975,200.016 427.391,200.664 425.951,201.456 
	424.655,202.32 423.575,203.328 422.711,204.336 422.063,205.488 421.631,206.712 421.415,207.936 421.415,209.232 421.703,210.6 
	422.207,211.968 422.999,213.336 424.007,214.704 426.095,216.576 428.543,218.088 431.423,219.384 434.52,220.464 437.759,221.543 
	441.143,222.624 444.599,223.848 447.911,225.288 451.007,227.016 453.959,229.104 456.551,231.768 458.711,234.936 
	460.367,238.824 461.447,243.432 461.807,248.904 461.447,255.384 460.655,260.208 459.359,264.528 457.703,268.416 
	455.615,271.872 453.167,274.895 450.503,277.488 447.551,279.72 444.383,281.663 441.071,283.248 437.615,284.543 434.087,285.624 
	430.559,286.416 427.031,286.992 423.575,287.352 420.263,287.568 417.023,287.639 412.559,287.639 408.527,287.568 
	404.855,287.496 401.471,287.424 398.375,287.28 395.639,287.136 393.047,286.918 390.743,286.632 388.583,286.344 386.567,285.984 
	384.695,285.624 382.823,285.12 381.095,284.616 379.367,284.112 377.639,283.464 375.839,282.816 380.303,260.208 381.312,260.424 
	382.535,260.784 384.047,261.144 385.703,261.576 387.647,261.936 389.807,262.44 392.111,262.872 394.559,263.304 397.151,263.663 
	399.887,264.024 402.695,264.312 405.647,264.6 408.599,264.744 411.623,264.816 414.647,264.816 417.743,264.672 420.623,264.167 
	422.999,263.375 424.799,262.224 426.239,260.928 427.319,259.416 428.111,257.832 428.759,256.248 429.191,254.664 
	429.407,253.008 429.335,251.568 428.975,250.2 428.399,249.048 427.607,247.896 426.599,246.888 425.375,245.952 424.007,245.088 
	422.495,244.296 420.839,243.504 419.039,242.712 417.167,241.992 415.295,241.272 413.279,240.48 411.263,239.688 409.175,238.824 
	407.159,237.959 405.143,237.024 403.127,235.944 401.183,234.792 399.312,233.568 397.583,232.2 395.927,230.616 394.415,228.959 
	393.047,227.088 391.823,225.072 390.815,222.84 389.951,220.464 389.375,217.8 389.015,214.92 388.943,211.752 389.159,208.368 
	389.375,206.28 389.663,204.264 389.951,202.32 390.383,200.448 390.815,198.648 391.319,196.848 391.967,195.192 392.615,193.536 
	393.407,192.024 394.199,190.512 395.135,189.144 396.143,187.776 397.223,186.48 398.375,185.256 399.599,184.104 400.967,183.024 
	402.407,182.016 403.919,181.079 405.575,180.216 407.303,179.352 409.104,178.632 411.047,177.912 413.063,177.336 415.223,176.76 
	417.527,176.256 419.903,175.824 422.352,175.464 424.943,175.175 427.679,174.96 430.559,174.816 433.511,174.672 436.607,174.672 
	440.423,174.672 443.879,174.744 446.975,174.816 449.855,174.96 452.375,175.103 454.679,175.248 456.768,175.464 458.567,175.608 
	460.223,175.824 461.663,176.04 463.031,176.184 464.183,176.4 465.191,176.543 466.127,176.687 466.991,176.832 467.783,176.904 
	"/>
<polyline fill="none" stroke="#FFFFFF" stroke-width="0.215" points="462.599,200.232 462.599,200.232 461.159,200.16 
	459.719,200.016 458.423,199.8 457.127,199.656 455.831,199.44 454.535,199.224 453.167,199.008 451.728,198.792 450.215,198.648 
	448.631,198.504 446.831,198.36 444.887,198.288 442.728,198.288 440.352,198.36 437.688,198.504 434.807,198.72 432.719,199.008 
	430.775,199.44 428.975,200.016 427.391,200.664 425.951,201.456 424.655,202.32 423.575,203.328 422.711,204.336 422.063,205.488 
	421.631,206.712 421.415,207.936 421.415,209.232 421.703,210.6 422.207,211.968 422.999,213.336 424.007,214.704 426.095,216.576 
	428.543,218.088 431.423,219.384 434.52,220.464 437.759,221.543 441.143,222.624 444.599,223.848 447.911,225.288 451.007,227.016 
	453.959,229.104 456.551,231.768 458.711,234.936 460.367,238.824 461.447,243.432 461.807,248.904 461.447,255.384 
	460.655,260.208 459.359,264.528 457.703,268.416 455.615,271.872 453.167,274.895 450.503,277.488 447.551,279.72 444.383,281.663 
	441.071,283.248 437.615,284.543 434.087,285.624 430.559,286.416 427.031,286.992 423.575,287.352 420.263,287.568 
	417.023,287.639 412.559,287.639 408.527,287.568 404.855,287.496 401.471,287.424 398.375,287.28 395.639,287.136 393.047,286.918 
	390.743,286.632 388.583,286.344 386.567,285.984 384.695,285.624 382.823,285.12 381.095,284.616 379.367,284.112 377.639,283.464 
	375.839,282.816 380.303,260.208 381.312,260.424 382.535,260.784 384.047,261.144 385.703,261.576 387.647,261.936 389.807,262.44 
	392.111,262.872 394.559,263.304 397.151,263.663 399.887,264.024 402.695,264.312 405.647,264.6 408.599,264.744 411.623,264.816 
	414.647,264.816 417.743,264.672 420.623,264.167 422.999,263.375 424.799,262.224 426.239,260.928 427.319,259.416 
	428.111,257.832 428.759,256.248 429.191,254.664 429.407,253.008 429.335,251.568 428.975,250.2 428.399,249.048 427.607,247.896 
	426.599,246.888 425.375,245.952 424.007,245.088 422.495,244.296 420.839,243.504 419.039,242.712 417.167,241.992 
	415.295,241.272 413.279,240.48 411.263,239.688 409.175,238.824 407.159,237.959 405.143,237.024 403.127,235.944 401.183,234.792 
	399.312,233.568 397.583,232.2 395.927,230.616 394.415,228.959 393.047,227.088 391.823,225.072 390.815,222.84 389.951,220.464 
	389.375,217.8 389.015,214.92 388.943,211.752 389.159,208.368 389.375,206.28 389.663,204.264 389.951,202.32 390.383,200.448 
	390.815,198.648 391.319,196.848 391.967,195.192 392.615,193.536 393.407,192.024 394.199,190.512 395.135,189.144 
	396.143,187.776 397.223,186.48 398.375,185.256 399.599,184.104 400.967,183.024 402.407,182.016 403.919,181.079 405.575,180.216 
	407.303,179.352 409.104,178.632 411.047,177.912 413.063,177.336 415.223,176.76 417.527,176.256 419.903,175.824 422.352,175.464 
	424.943,175.175 427.679,174.96 430.559,174.816 433.511,174.672 436.607,174.672 440.423,174.672 443.879,174.744 446.975,174.816 
	449.855,174.96 452.375,175.103 454.679,175.248 456.768,175.464 458.567,175.608 460.223,175.824 461.663,176.04 463.031,176.184 
	464.183,176.4 465.191,176.543 466.127,176.687 466.991,176.832 467.783,176.904 462.599,200.232 "/>
<polygon fill="#FFFFFF" points="486.287,152.064 515.231,152.064 510.768,177.264 528.551,177.264 524.521,200.232 506.303,199.872 
	496.728,257.256 496.583,258.48 496.583,259.56 496.728,260.496 497.015,261.36 497.447,262.08 497.951,262.8 498.599,263.376 
	499.319,263.808 500.184,264.24 501.047,264.6 502.055,264.888 503.063,265.032 504.215,265.248 505.367,265.32 506.591,265.392 
	507.815,265.392 510.119,265.392 512.135,265.248 514.007,264.96 515.592,264.6 516.815,264.24 517.751,263.88 518.327,263.592 
	518.544,263.52 515.592,283.175 514.871,283.608 514.079,283.968 513.287,284.328 512.496,284.687 511.703,284.976 510.839,285.264 
	509.975,285.552 508.967,285.84 507.959,286.127 506.879,286.344 505.655,286.56 504.359,286.776 502.991,286.992 501.551,287.208 
	499.896,287.424 498.167,287.639 490.391,287.639 486.287,287.352 482.615,286.919 479.375,286.344 476.567,285.552 
	474.191,284.687 472.175,283.608 470.52,282.383 469.151,281.016 468.071,279.504 467.279,277.848 466.775,276.048 466.487,274.032 
	466.415,271.944 466.487,269.64 466.703,267.264 467.063,264.672 "/>
<polyline fill="none" stroke="#FFFFFF" stroke-width="0.215" points="486.287,152.064 515.231,152.064 510.768,177.264 
	528.551,177.264 524.521,200.232 506.303,199.872 496.728,257.256 496.583,258.48 496.583,259.56 496.728,260.496 497.015,261.36 
	497.447,262.08 497.951,262.8 498.599,263.376 499.319,263.808 500.184,264.24 501.047,264.6 502.055,264.888 503.063,265.032 
	504.215,265.248 505.367,265.32 506.591,265.392 507.815,265.392 510.119,265.392 512.135,265.248 514.007,264.96 515.592,264.6 
	516.815,264.24 517.751,263.88 518.327,263.592 518.544,263.52 515.592,283.175 514.871,283.608 514.079,283.968 513.287,284.328 
	512.496,284.687 511.703,284.976 510.839,285.264 509.975,285.552 508.967,285.84 507.959,286.127 506.879,286.344 505.655,286.56 
	504.359,286.776 502.991,286.992 501.551,287.208 499.896,287.424 498.167,287.639 490.391,287.639 486.287,287.352 
	482.615,286.919 479.375,286.344 476.567,285.552 474.191,284.687 472.175,283.608 470.52,282.383 469.151,281.016 468.071,279.504 
	467.279,277.848 466.775,276.048 466.487,274.032 466.415,271.944 466.487,269.64 466.703,267.264 467.063,264.672 486.287,152.064 
	"/>
<polygon fill="#FFFFFF" points="310.319,239.472 309.959,241.272 309.887,243.072 310.032,245.016 310.463,246.888 311.039,248.833 
	311.903,250.776 312.911,252.648 314.135,254.448 315.503,256.175 317.087,257.833 318.743,259.272 320.544,260.64 322.487,261.792 
	324.503,262.728 326.663,263.448 328.823,263.953 331.415,264.312 334.008,264.672 336.671,264.96 339.335,265.104 342.071,265.175 
	344.735,265.175 347.544,265.033 350.279,264.816 353.087,264.384 355.967,263.88 358.847,263.161 361.728,262.224 364.607,261.144 
	367.631,259.848 370.583,258.264 373.607,256.537 369.144,282.096 367.487,282.96 365.831,283.752 364.319,284.4 362.735,284.976 
	361.151,285.552 359.567,285.984 357.911,286.344 356.111,286.705 354.239,286.919 352.223,287.136 349.991,287.352 
	347.615,287.424 345.023,287.568 342.143,287.568 338.975,287.639 335.521,287.639 333,287.639 330.407,287.497 327.887,287.352 
	325.295,287.064 322.631,286.705 320.039,286.272 317.447,285.696 314.855,285.121 312.335,284.329 309.815,283.537 307.367,282.6 
	304.919,281.52 302.544,280.296 300.239,279 298.08,277.56 295.919,275.976 293.903,274.249 291.959,272.376 290.087,270.36 
	288.431,268.201 286.847,265.824 285.407,263.376 284.111,260.712 282.959,257.904 281.951,254.88 281.159,251.712 280.511,248.4 
	280.08,244.8 279.792,241.056 279.792,237.168 279.936,232.993 280.295,228.672 280.511,227.161 280.728,225.432 281.015,223.705 
	281.375,221.833 281.735,219.888 282.239,217.872 282.815,215.784 283.391,213.624 284.111,211.392 284.903,209.232 285.839,207 
	286.847,204.768 288,202.536 289.223,200.304 290.592,198.072 292.032,195.912 293.688,193.824 295.415,191.736 297.287,189.72 
	299.375,187.848 301.535,185.976 303.911,184.248 306.431,182.664 309.167,181.151 312.047,179.856 315.143,178.632 
	318.383,177.552 321.839,176.687 325.511,175.968 329.399,175.464 333.431,175.175 337.751,175.031 339.767,175.031 
	341.783,175.175 343.871,175.32 345.959,175.536 348.047,175.824 350.208,176.256 352.295,176.76 354.383,177.336 356.471,177.983 
	358.559,178.776 360.575,179.639 362.521,180.648 364.391,181.8 366.264,183.024 367.991,184.464 369.72,185.976 371.304,187.632 
	372.815,189.432 374.184,191.448 375.407,193.536 376.56,195.84 377.567,198.288 378.432,200.952 379.079,203.76 379.655,206.784 
	380.016,209.952 380.159,213.336 380.159,216.936 379.943,220.752 379.583,224.785 378.936,229.033 378.071,233.497 
	376.919,239.833 302.111,239.833 306.575,219.816 351.431,219.816 351.647,217.08 351.647,214.56 351.503,212.184 351.071,210.024 
	350.496,208.08 349.775,206.28 348.839,204.696 347.759,203.256 346.535,201.96 345.167,200.88 343.728,200.016 342.215,199.296 
	340.559,198.72 338.831,198.288 337.032,198.072 335.159,198 333.143,198 331.271,198.288 329.399,198.648 327.671,199.224 
	326.015,200.016 324.431,200.952 322.919,202.032 321.551,203.256 320.255,204.696 319.104,206.208 318.023,207.864 
	317.015,209.664 316.151,211.536 315.431,213.552 314.855,215.712 314.351,217.944 "/>
<polyline fill="none" stroke="#FFFFFF" stroke-width="0.215" points="310.319,239.472 310.319,239.472 309.959,241.272 
	309.887,243.072 310.032,245.016 310.463,246.888 311.039,248.833 311.903,250.776 312.911,252.648 314.135,254.448 
	315.503,256.175 317.087,257.833 318.743,259.272 320.544,260.64 322.487,261.792 324.503,262.728 326.663,263.448 328.823,263.953 
	331.415,264.312 334.008,264.672 336.671,264.96 339.335,265.104 342.071,265.175 344.735,265.175 347.544,265.033 350.279,264.816 
	353.087,264.384 355.967,263.88 358.847,263.161 361.728,262.224 364.607,261.144 367.631,259.848 370.583,258.264 373.607,256.537 
	369.144,282.096 367.487,282.96 365.831,283.752 364.319,284.4 362.735,284.976 361.151,285.552 359.567,285.984 357.911,286.344 
	356.111,286.705 354.239,286.919 352.223,287.136 349.991,287.352 347.615,287.424 345.023,287.568 342.143,287.568 
	338.975,287.639 335.521,287.639 333,287.639 330.407,287.497 327.887,287.352 325.295,287.064 322.631,286.705 320.039,286.272 
	317.447,285.696 314.855,285.121 312.335,284.329 309.815,283.537 307.367,282.6 304.919,281.52 302.544,280.296 300.239,279 
	298.08,277.56 295.919,275.976 293.903,274.249 291.959,272.376 290.087,270.36 288.431,268.201 286.847,265.824 285.407,263.376 
	284.111,260.712 282.959,257.904 281.951,254.88 281.159,251.712 280.511,248.4 280.08,244.8 279.792,241.056 279.792,237.168 
	279.936,232.993 280.295,228.672 280.511,227.161 280.728,225.432 281.015,223.705 281.375,221.833 281.735,219.888 
	282.239,217.872 282.815,215.784 283.391,213.624 284.111,211.392 284.903,209.232 285.839,207 286.847,204.768 288,202.536 
	289.223,200.304 290.592,198.072 292.032,195.912 293.688,193.824 295.415,191.736 297.287,189.72 299.375,187.848 301.535,185.976 
	303.911,184.248 306.431,182.664 309.167,181.151 312.047,179.856 315.143,178.632 318.383,177.552 321.839,176.687 
	325.511,175.968 329.399,175.464 333.431,175.175 337.751,175.031 339.767,175.031 341.783,175.175 343.871,175.32 345.959,175.536 
	348.047,175.824 350.208,176.256 352.295,176.76 354.383,177.336 356.471,177.983 358.559,178.776 360.575,179.639 362.521,180.648 
	364.391,181.8 366.264,183.024 367.991,184.464 369.72,185.976 371.304,187.632 372.815,189.432 374.184,191.448 375.407,193.536 
	376.56,195.84 377.567,198.288 378.432,200.952 379.079,203.76 379.655,206.784 380.016,209.952 380.159,213.336 380.159,216.936 
	379.943,220.752 379.583,224.785 378.936,229.033 378.071,233.497 376.919,239.833 302.111,239.833 306.575,219.816 
	351.431,219.816 351.647,217.08 351.647,214.56 351.503,212.184 351.071,210.024 350.496,208.08 349.775,206.28 348.839,204.696 
	347.759,203.256 346.535,201.96 345.167,200.88 343.728,200.016 342.215,199.296 340.559,198.72 338.831,198.288 337.032,198.072 
	335.159,198 333.143,198 331.271,198.288 329.399,198.648 327.671,199.224 326.015,200.016 324.431,200.952 322.919,202.032 
	321.551,203.256 320.255,204.696 319.104,206.208 318.023,207.864 317.015,209.664 316.151,211.536 315.431,213.552 
	314.855,215.712 314.351,217.944 310.319,239.472 "/>
<polygon fill="#FFFFFF" points="270.287,264.672 266.183,287.639 240.191,287.639 240.479,285.48 240.767,283.32 241.055,281.375 
	241.343,279.576 241.631,278.064 241.847,276.768 242.135,275.904 242.423,275.4 241.055,276.984 239.327,278.568 237.383,280.08 
	235.151,281.52 232.775,282.888 230.183,284.184 227.447,285.335 224.639,286.416 221.687,287.352 218.663,288.144 215.639,288.72 
	212.615,289.151 209.591,289.368 206.639,289.44 203.759,289.224 200.951,288.792 197.279,287.928 194.039,286.776 191.087,285.407 
	188.495,283.895 186.191,282.24 184.247,280.368 182.519,278.424 181.079,276.264 179.855,274.104 178.847,271.872 178.055,269.568 
	177.407,267.192 176.975,264.888 176.687,262.512 176.543,260.208 176.471,257.976 176.759,253.944 177.407,250.128 
	178.343,246.456 179.711,243 181.367,239.76 183.239,236.736 185.471,233.928 187.847,231.264 190.511,228.888 193.319,226.8 
	196.343,224.856 199.511,223.2 202.823,221.76 206.207,220.608 209.663,219.744 213.191,219.096 213.335,219.096 213.839,219.024 
	214.631,218.952 215.711,218.808 216.935,218.664 218.375,218.52 219.959,218.304 221.687,218.16 223.415,218.016 225.143,217.8 
	226.943,217.656 228.671,217.512 230.255,217.368 231.767,217.296 233.135,217.224 234.287,217.224 235.511,217.224 
	236.735,217.224 237.959,217.224 239.255,217.296 240.479,217.296 241.631,217.368 242.783,217.368 243.935,217.368 244.943,217.44 
	245.879,217.44 246.671,217.512 247.391,217.512 247.967,217.584 248.399,217.584 248.687,217.584 248.759,217.584 248.975,216.864 
	249.479,215.136 249.839,213.12 249.839,211.32 249.695,210.024 249.479,208.8 249.119,207.648 248.615,206.568 248.039,205.56 
	247.319,204.624 246.599,203.76 245.735,202.896 244.799,202.176 243.863,201.6 242.783,201.024 241.703,200.52 240.551,200.16 
	239.327,199.872 238.103,199.656 236.879,199.512 233.927,199.44 230.831,199.512 227.591,199.584 224.279,199.8 220.967,200.016 
	217.655,200.304 214.343,200.664 211.103,201.024 208.007,201.528 205.055,201.96 202.391,202.464 199.871,203.04 197.639,203.616 
	195.767,204.192 194.255,204.768 193.175,205.416 200.591,180.936 202.751,179.928 205.055,178.992 207.359,178.2 209.807,177.552 
	212.327,177.048 214.919,176.615 217.655,176.256 220.463,175.968 223.343,175.824 226.295,175.68 229.319,175.608 232.487,175.608 
	235.799,175.608 239.111,175.608 242.567,175.68 246.167,175.752 249.119,176.04 252.215,176.471 255.455,177.264 258.695,178.2 
	261.935,179.424 265.176,180.936 268.2,182.664 271.08,184.68 273.743,186.984 276.119,189.504 278.135,192.312 279.719,195.408 
	280.871,198.792 281.52,202.464 281.592,206.352 281.015,210.6 "/>
<polyline fill="none" stroke="#FFFFFF" stroke-width="0.215" points="270.287,264.672 266.183,287.639 240.191,287.639 
	240.479,285.48 240.767,283.32 241.055,281.375 241.343,279.576 241.631,278.064 241.847,276.768 242.135,275.904 242.423,275.4 
	241.055,276.984 239.327,278.568 237.383,280.08 235.151,281.52 232.775,282.888 230.183,284.184 227.447,285.335 224.639,286.416 
	221.687,287.352 218.663,288.144 215.639,288.72 212.615,289.151 209.591,289.368 206.639,289.44 203.759,289.224 200.951,288.792 
	197.279,287.928 194.039,286.776 191.087,285.407 188.495,283.895 186.191,282.24 184.247,280.368 182.519,278.424 181.079,276.264 
	179.855,274.104 178.847,271.872 178.055,269.568 177.407,267.192 176.975,264.888 176.687,262.512 176.543,260.208 
	176.471,257.976 176.759,253.944 177.407,250.128 178.343,246.456 179.711,243 181.367,239.76 183.239,236.736 185.471,233.928 
	187.847,231.264 190.511,228.888 193.319,226.8 196.343,224.856 199.511,223.2 202.823,221.76 206.207,220.608 209.663,219.744 
	213.191,219.096 213.335,219.096 213.839,219.024 214.631,218.952 215.711,218.808 216.935,218.664 218.375,218.52 219.959,218.304 
	221.687,218.16 223.415,218.016 225.143,217.8 226.943,217.656 228.671,217.512 230.255,217.368 231.767,217.296 233.135,217.224 
	234.287,217.224 235.511,217.224 236.735,217.224 237.959,217.224 239.255,217.296 240.479,217.296 241.631,217.368 
	242.783,217.368 243.935,217.368 244.943,217.44 245.879,217.44 246.671,217.512 247.391,217.512 247.967,217.584 248.399,217.584 
	248.687,217.584 248.759,217.584 248.975,216.864 249.479,215.136 249.839,213.12 249.839,211.32 249.695,210.024 249.479,208.8 
	249.119,207.648 248.615,206.568 248.039,205.56 247.319,204.624 246.599,203.76 245.735,202.896 244.799,202.176 243.863,201.6 
	242.783,201.024 241.703,200.52 240.551,200.16 239.327,199.872 238.103,199.656 236.879,199.512 233.927,199.44 230.831,199.512 
	227.591,199.584 224.279,199.8 220.967,200.016 217.655,200.304 214.343,200.664 211.103,201.024 208.007,201.528 205.055,201.96 
	202.391,202.464 199.871,203.04 197.639,203.616 195.767,204.192 194.255,204.768 193.175,205.416 200.591,180.936 202.751,179.928 
	205.055,178.992 207.359,178.2 209.807,177.552 212.327,177.048 214.919,176.615 217.655,176.256 220.463,175.968 223.343,175.824 
	226.295,175.68 229.319,175.608 232.487,175.608 235.799,175.608 239.111,175.608 242.567,175.68 246.167,175.752 249.119,176.04 
	252.215,176.471 255.455,177.264 258.695,178.2 261.935,179.424 265.176,180.936 268.2,182.664 271.08,184.68 273.743,186.984 
	276.119,189.504 278.135,192.312 279.719,195.408 280.871,198.792 281.52,202.464 281.592,206.352 281.015,210.6 270.287,264.672 
	"/>
<polygon fill="#0084C5" points="245.447,237.6 245.375,237.024 244.943,236.592 244.223,236.232 243.287,236.016 242.063,235.873 
	240.767,235.8 239.255,235.8 237.671,235.8 236.015,235.944 234.287,236.16 232.631,236.376 230.975,236.665 229.391,236.952 
	227.879,237.24 226.583,237.6 225.431,237.96 224.783,238.104 223.919,238.392 222.839,238.752 221.688,239.256 220.463,239.76 
	219.095,240.408 217.728,241.2 216.359,241.992 214.991,243 213.695,244.081 212.471,245.232 211.391,246.528 210.383,247.896 
	209.663,249.408 209.087,251.064 208.728,252.792 208.583,256.32 209.087,259.056 209.951,261.216 211.247,262.8 212.831,263.88 
	214.487,264.6 216.287,264.96 218.015,265.032 221.183,264.96 223.991,264.672 226.655,264.168 229.031,263.52 231.191,262.8 
	233.135,261.936 234.863,260.928 236.375,259.848 237.743,258.768 238.896,257.544 239.903,256.392 240.767,255.168 
	241.487,253.944 242.063,252.792 242.495,251.64 242.855,250.56 243.215,248.976 243.575,247.32 243.935,245.592 244.295,243.792 
	244.583,242.064 244.871,240.48 245.159,238.968 "/>
<polygon fill="#FFFFFF" points="52.991,287.639 24.839,287.639 48.527,152.064 97.487,152.064 102.311,232.776 135.647,152.064 
	186.479,152.064 162.719,287.639 134.568,287.639 152.351,186.12 151.271,186.12 109.367,287.639 77.831,287.639 77.543,283.392 
	76.895,272.088 75.959,256.104 74.88,237.744 73.799,219.24 72.863,202.896 72.215,191.088 71.927,186.12 71.855,186.12 
	71.567,186.12 71.279,186.12 70.919,186.12 70.631,186.12 70.487,186.12 70.776,186.12 "/>
<polyline fill="none" stroke="#FFFFFF" stroke-width="0.215" points="52.991,287.639 24.839,287.639 48.527,152.064 97.487,152.064 
	102.311,232.776 135.647,152.064 186.479,152.064 162.719,287.639 134.568,287.639 152.351,186.12 151.271,186.12 109.367,287.639 
	77.831,287.639 77.543,283.392 76.895,272.088 75.959,256.104 74.88,237.744 73.799,219.24 72.863,202.896 72.215,191.088 
	71.927,186.12 71.855,186.12 71.567,186.12 71.279,186.12 70.919,186.12 70.631,186.12 70.487,186.12 70.776,186.12 52.991,287.639 
	"/>
<polygon fill="#FFFFFF" points="523.367,287.639 552.671,287.639 562.679,229.104 563.111,226.8 563.616,224.568 564.191,222.336 
	564.911,220.249 565.703,218.16 566.712,216.216 567.936,214.344 569.303,212.544 570.959,210.96 572.832,209.52 575.063,208.224 
	577.511,207.072 580.392,206.136 583.631,205.416 587.231,204.984 591.264,204.696 591.623,204.696 592.055,204.768 592.631,204.84 
	593.207,204.84 593.712,204.912 594.144,204.984 594.432,205.056 594.575,205.056 594.647,204.624 594.936,203.4 595.295,201.528 
	595.871,199.152 596.592,196.488 597.383,193.608 598.319,190.728 599.399,187.992 600.191,185.976 601.127,184.032 
	602.063,182.088 603.071,180.288 603.936,178.776 604.655,177.552 605.159,176.76 605.303,176.471 605.159,176.471 604.799,176.328 
	604.295,176.256 603.575,176.112 602.855,175.968 601.991,175.896 601.199,175.752 600.479,175.752 597.312,175.968 
	594.432,176.328 591.768,176.904 589.319,177.552 587.016,178.416 584.927,179.352 582.911,180.504 581.111,181.728 
	579.312,183.096 577.655,184.608 576.144,186.192 574.56,187.92 573.047,189.72 571.607,191.664 570.095,193.68 568.583,195.768 
	571.967,177.264 542.664,176.904 "/>
<polyline fill="none" stroke="#FFFFFF" stroke-width="0.215" points="523.367,287.639 552.671,287.639 562.679,229.104 
	563.111,226.8 563.616,224.568 564.191,222.336 564.911,220.249 565.703,218.16 566.712,216.216 567.936,214.344 569.303,212.544 
	570.959,210.96 572.832,209.52 575.063,208.224 577.511,207.072 580.392,206.136 583.631,205.416 587.231,204.984 591.264,204.696 
	591.623,204.696 592.055,204.768 592.631,204.84 593.207,204.84 593.712,204.912 594.144,204.984 594.432,205.056 594.575,205.056 
	594.647,204.624 594.936,203.4 595.295,201.528 595.871,199.152 596.592,196.488 597.383,193.608 598.319,190.728 599.399,187.992 
	600.191,185.976 601.127,184.032 602.063,182.088 603.071,180.288 603.936,178.776 604.655,177.552 605.159,176.76 605.303,176.471 
	605.159,176.471 604.799,176.328 604.295,176.256 603.575,176.112 602.855,175.968 601.991,175.896 601.199,175.752 
	600.479,175.752 597.312,175.968 594.432,176.328 591.768,176.904 589.319,177.552 587.016,178.416 584.927,179.352 
	582.911,180.504 581.111,181.728 579.312,183.096 577.655,184.608 576.144,186.192 574.56,187.92 573.047,189.72 571.607,191.664 
	570.095,193.68 568.583,195.768 571.967,177.264 542.664,176.904 523.367,287.639 "/>
<polygon fill="#FFFFFF" points="650.159,175.752 653.399,175.824 656.568,176.04 659.664,176.328 662.688,176.76 665.568,177.336 
	668.375,178.055 671.039,178.848 673.703,179.784 676.223,180.864 678.6,182.016 680.976,183.24 683.135,184.608 685.295,186.12 
	687.312,187.704 689.184,189.36 690.983,191.16 692.711,193.032 694.295,195.048 695.735,197.064 697.104,199.224 698.399,201.456 
	699.479,203.832 700.56,206.208 701.423,208.728 702.215,211.248 702.863,213.912 703.439,216.648 703.871,219.456 704.159,222.264 
	704.303,225.216 704.375,228.24 704.303,231.264 704.087,234.936 703.655,238.464 703.151,241.848 702.503,245.16 701.783,248.328 
	700.848,251.352 699.839,254.304 698.759,257.112 697.463,259.776 696.167,262.368 694.655,264.816 693.144,267.12 691.487,269.352 
	689.688,271.44 687.815,273.384 685.871,275.256 683.855,276.984 681.768,278.639 679.535,280.151 677.303,281.52 674.927,282.816 
	672.479,283.968 670.031,285.048 667.439,285.984 664.848,286.848 662.111,287.568 659.375,288.144 656.641,288.648 
	653.759,289.008 650.879,289.296 647.927,289.44 644.976,289.512 642.023,289.44 639.071,289.296 636.263,289.008 633.455,288.576 
	630.719,288.072 627.983,287.496 625.392,286.776 622.871,285.912 620.352,284.976 617.976,283.895 615.671,282.744 
	613.439,281.448 611.279,280.08 609.263,278.568 607.247,276.984 605.375,275.256 603.647,273.456 601.919,271.512 600.407,269.496 
	598.896,267.335 597.6,265.104 596.303,262.728 595.223,260.28 594.215,257.76 593.352,255.096 592.56,252.288 591.911,249.408 
	591.407,246.456 591.047,243.36 590.831,240.192 590.76,236.88 590.831,233.496 591.047,230.04 591.407,226.728 591.911,223.488 
	592.56,220.392 593.279,217.368 594.144,214.416 595.079,211.608 596.159,208.872 597.312,206.208 598.607,203.688 600.047,201.312 
	601.56,198.936 603.144,196.776 604.871,194.616 606.671,192.672 608.544,190.728 610.56,188.928 612.647,187.272 614.807,185.688 
	617.039,184.248 619.415,182.952 621.863,181.656 624.383,180.576 626.903,179.567 629.568,178.704 632.303,177.912 
	635.111,177.264 637.991,176.687 640.943,176.328 643.967,175.968 647.063,175.824 "/>
<polyline fill="none" stroke="#FFFFFF" stroke-width="0.215" points="650.159,175.752 650.159,175.752 653.399,175.824 
	656.568,176.04 659.664,176.328 662.688,176.76 665.568,177.336 668.375,178.055 671.039,178.848 673.703,179.784 676.223,180.864 
	678.6,182.016 680.976,183.24 683.135,184.608 685.295,186.12 687.312,187.704 689.184,189.36 690.983,191.16 692.711,193.032 
	694.295,195.048 695.735,197.064 697.104,199.224 698.399,201.456 699.479,203.832 700.56,206.208 701.423,208.728 702.215,211.248 
	702.863,213.912 703.439,216.648 703.871,219.456 704.159,222.264 704.303,225.216 704.375,228.24 704.303,231.264 704.087,234.936 
	703.655,238.464 703.151,241.848 702.503,245.16 701.783,248.328 700.848,251.352 699.839,254.304 698.759,257.112 697.463,259.776 
	696.167,262.368 694.655,264.816 693.144,267.12 691.487,269.352 689.688,271.44 687.815,273.384 685.871,275.256 683.855,276.984 
	681.768,278.639 679.535,280.151 677.303,281.52 674.927,282.816 672.479,283.968 670.031,285.048 667.439,285.984 664.848,286.848 
	662.111,287.568 659.375,288.144 656.641,288.648 653.759,289.008 650.879,289.296 647.927,289.44 644.976,289.512 642.023,289.44 
	639.071,289.296 636.263,289.008 633.455,288.576 630.719,288.072 627.983,287.496 625.392,286.776 622.871,285.912 
	620.352,284.976 617.976,283.895 615.671,282.744 613.439,281.448 611.279,280.08 609.263,278.568 607.247,276.984 605.375,275.256 
	603.647,273.456 601.919,271.512 600.407,269.496 598.896,267.335 597.6,265.104 596.303,262.728 595.223,260.28 594.215,257.76 
	593.352,255.096 592.56,252.288 591.911,249.408 591.407,246.456 591.047,243.36 590.831,240.192 590.76,236.88 590.831,233.496 
	591.047,230.04 591.407,226.728 591.911,223.488 592.56,220.392 593.279,217.368 594.144,214.416 595.079,211.608 596.159,208.872 
	597.312,206.208 598.607,203.688 600.047,201.312 601.56,198.936 603.144,196.776 604.871,194.616 606.671,192.672 608.544,190.728 
	610.56,188.928 612.647,187.272 614.807,185.688 617.039,184.248 619.415,182.952 621.863,181.656 624.383,180.576 626.903,179.567 
	629.568,178.704 632.303,177.912 635.111,177.264 637.991,176.687 640.943,176.328 643.967,175.968 647.063,175.824 
	650.159,175.752 "/>
<polygon fill="#ED1B2E" points="627.191,228.672 626.759,232.704 626.544,236.448 626.544,239.832 626.759,243 627.191,245.88 
	627.839,248.4 628.631,250.704 629.64,252.792 630.863,254.592 632.23,256.104 633.743,257.4 635.398,258.408 637.199,259.2 
	639.215,259.776 641.303,260.064 643.535,260.208 645.984,260.136 648.359,259.848 650.592,259.344 652.751,258.552 
	654.767,257.543 656.711,256.248 658.511,254.736 660.239,252.936 661.751,250.919 663.191,248.616 664.559,246.024 
	665.711,243.216 666.791,240.12 667.727,236.736 668.447,233.064 669.095,229.104 669.455,226.008 669.671,223.056 669.671,220.176 
	669.455,217.44 669.095,214.92 668.52,212.472 667.727,210.24 666.791,208.152 665.64,206.28 664.343,204.696 662.831,203.256 
	661.175,202.104 659.303,201.168 657.287,200.592 655.127,200.232 652.751,200.232 649.799,200.448 647.062,200.952 
	644.544,201.816 642.167,202.896 640.007,204.336 637.991,205.92 636.191,207.72 634.606,209.736 633.095,211.896 631.799,214.2 
	630.646,216.504 629.712,218.952 628.847,221.4 628.127,223.848 627.623,226.296 "/>
</svg>
