<?xml version="1.0" encoding="utf-8"?>
<!-- Generator: Adobe Illustrator 16.0.0, SVG Export Plug-In . SVG Version: 6.00 Build 0)  -->
<!DOCTYPE svg PUBLIC "-//W3C//DTD SVG 1.0//EN" "http://www.w3.org/TR/2001/REC-SVG-20010904/DTD/svg10.dtd">
<svg version="1.0" id="Слой_1" xmlns="http://www.w3.org/2000/svg" xmlns:xlink="http://www.w3.org/1999/xlink" x="0px" y="0px"
	 width="245.984px" height="91.128px" viewBox="0 0 245.984 91.128" enable-background="new 0 0 245.984 91.128"
	 xml:space="preserve">
<g>
	<defs>
		<rect id="SVGID_1_" y="0" width="245.984" height="91.128"/>
	</defs>
	<clipPath id="SVGID_2_">
		<use xlink:href="#SVGID_1_"  overflow="visible"/>
	</clipPath>
	<path clip-path="url(#SVGID_2_)" fill="#FAA61A" d="M23.721,58.759c-1.489-0.998-3.505-1.869-6.354-1.869
		c-3.076,0-5.551,0.638-5.551,3.912c0,5.777,11.215,3.621,11.215,15.994c0,11.272-7.403,14.195-14.099,14.195
		c-2.979,0-6.405-0.986-8.932-2.107l1.819-8.285c1.523,1.387,4.599,2.334,7.113,2.334c2.397,0,6.152-0.653,6.152-4.837
		c0-6.548-11.209-4.112-11.209-15.607c0-10.512,6.548-13.661,12.863-13.661c3.557,0,6.899,0.521,8.858,1.824L23.721,58.759"/>
	<path clip-path="url(#SVGID_2_)" fill="#FAA61A" d="M41.989,70.246c0.033-0.688,0.056-1.234,0.056-1.654
		c0-2.65-1.337-4.203-3.597-4.203c-2.43,0-4.157,2.089-4.853,5.823L41.989,70.246 M46.242,89.598
		c-2.588,0.895-5.109,1.325-7.794,1.325c-8.496,0-12.931-5.011-12.931-14.568c0-11.162,5.642-19.397,13.299-19.397
		c6.271,0,10.27,4.603,10.27,11.831c0,2.39-0.272,4.73-0.924,8.027H33c-0.046,0.487-0.063,0.729-0.063,1.012
		c0,3.791,2.272,5.706,6.684,5.706c2.719,0,5.177-0.635,7.901-2.062L46.242,89.598z"/>
	<path clip-path="url(#SVGID_2_)" fill="#FAA61A" d="M68.519,89.586c-1.569,0.755-3.665,1.254-6.757,1.254
		c-6.65,0-10.773-6.646-10.773-14.738c0-10.592,5.964-19.039,14.743-19.039c1.915,0,4.838,0.827,7.143,2.164l-1.682,7.768
		c-1.632-1.073-3.331-1.753-5.081-1.753c-4.067,0-6.972,3.728-6.972,10.406c0,3.846,2.106,7.002,5.437,7.002
		c1.982,0,3.376-0.419,5.081-1.416L68.519,89.586"/>
	<path clip-path="url(#SVGID_2_)" fill="#FAA61A" d="M96.975,81.442c-0.39,2.798-0.753,5.517-0.968,8.437h-7.324l0.618-5.258h-0.074
		c-2.294,3.572-4.667,6.003-8.813,6.003c-4.6,0-7.092-4.835-7.092-11.153c0-2.179,0.136-3.41,0.623-6.812l2.073-15.056h8.151
		l-2.186,15.101c-0.221,1.624-0.532,3.232-0.532,4.909c0,1.903,0.866,3.829,3.064,3.712c3.341,0,5.313-4.086,5.874-8.854
		l2.248-14.867h7.89L96.975,81.442"/>
	<path clip-path="url(#SVGID_2_)" fill="#FAA61A" d="M117.582,57.287c-0.233-0.064-0.499-0.092-0.782-0.092
		c-2.469,0-3.919,1.428-6.236,5.291l0.674-4.936h-6.888L99.7,90.082h7.607c2.736-19.9,3.461-23.325,7.109-23.325
		c0.215,0,0.237,0,0.554,0.038c0.686-3.936,1.609-6.819,2.889-9.451L117.582,57.287"/>
	<path clip-path="url(#SVGID_2_)" fill="#FAA61A" d="M132.463,70.246c0.053-0.688,0.08-1.234,0.08-1.654
		c0-2.65-1.348-4.203-3.599-4.203c-2.43,0-4.157,2.089-4.86,5.823L132.463,70.246 M136.74,89.598
		c-2.595,0.895-5.121,1.325-7.796,1.325c-8.513,0-12.942-5.011-12.942-14.568c0-11.162,5.647-19.397,13.299-19.397
		c6.272,0,10.283,4.603,10.283,11.831c0,2.39-0.283,4.73-0.958,8.027h-15.131c-0.045,0.487-0.073,0.729-0.073,1.012
		c0,3.791,2.266,5.706,6.68,5.706c2.719,0,5.183-0.635,7.907-2.062L136.74,89.598z"/>
	<path clip-path="url(#SVGID_2_)" fill="#FAA61A" d="M167.961,51.332l-1.246,8.666c-2.708-1.529-4.679-2.165-6.809-2.165
		c-5.692,0-9.669,6.194-9.669,14.996c0,6.075,2.662,9.753,7.097,9.753c1.893,0,3.96-0.646,6.475-2.061l-1.319,9.122
		c-2.815,0.868-4.656,1.167-6.746,1.167c-8.202,0-13.311-6.631-13.311-17.269c0-14.314,7.052-24.306,17.151-24.306
		c1.308,0,2.463,0.166,3.42,0.43l3.115,0.884C167.082,50.931,167.281,51,167.961,51.332"/>
	<path clip-path="url(#SVGID_2_)" fill="#FAA61A" d="M191.443,71.662c0-8.198-4.049-14.575-11.662-14.575
		c-8.762,0-14.438,7.756-14.438,19.179c0,8.175,3.354,14.863,11.651,14.863C185.366,91.128,191.443,85.199,191.443,71.662
		 M183.431,71.526c0,7.374-2.284,11.717-5.881,11.717c-2.628,0.079-4.22-2.847-4.22-7.228c0-5.177,2.328-11.045,6.061-11.045
		C182.393,64.97,183.431,68.15,183.431,71.526"/>
	<path clip-path="url(#SVGID_2_)" fill="#FAA61A" d="M205.706,82.083c3.585,0,6.056-4.516,6.056-10.962
		c0-4.146-1.41-6.369-4.027-6.369c-3.461,0-5.92,4.519-5.92,10.942C201.814,79.931,203.135,82.083,205.706,82.083 M216.955,89.734
		h-7.187l0.367-3.176c-2.091,2.504-4.265,3.612-7.046,3.612c-5.546,0-9.205-5.376-9.205-13.509c0-10.8,5.682-19.961,12.399-19.961
		c2.962,0,5.211,1.4,7.29,4.482l1.676-11.438h7.488L216.955,89.734z"/>
	<path clip-path="url(#SVGID_2_)" fill="#FAA61A" d="M238.639,70.246c0.033-0.688,0.056-1.234,0.056-1.654
		c0-2.65-1.331-4.203-3.597-4.203c-2.43,0-4.152,2.089-4.854,5.823L238.639,70.246 M242.914,89.598
		c-2.629,0.895-5.121,1.325-7.816,1.325c-8.495,0-12.943-5.011-12.943-14.568c0-11.162,5.659-19.397,13.311-19.397
		c6.271,0,10.264,4.603,10.264,11.831c0,2.39-0.26,4.73-0.934,8.027h-15.146c-0.051,0.487-0.062,0.729-0.062,1.012
		c0,3.791,2.271,5.706,6.684,5.706c2.725,0,5.178-0.635,7.907-2.062L242.914,89.598z"/>
	<polygon clip-path="url(#SVGID_2_)" fill="#ED1C24" points="34.251,40.828 26.112,40.828 30.773,10.09 20.357,40.828 
		14.778,40.828 14.104,10.271 9.193,40.828 1.569,40.828 7.931,0.828 19.661,0.828 19.983,25.58 27.902,0.828 40.561,0.828 	"/>
	<path clip-path="url(#SVGID_2_)" fill="#ED1C24" d="M61.15,40.828h-6.746l0.148-3.376c-2.057,2.692-4.804,3.942-8.537,3.942
		c-4.429,0-7.454-3.625-7.454-8.862c0-7.942,5.286-12.552,14.32-12.552c0.922,0,2.101,0.071,3.313,0.241
		c0.255-1.076,0.323-1.54,0.323-2.11c0-2.149-1.416-2.965-5.234-2.965c-2.305,0-4.95,0.352-6.774,0.93l-1.133,0.328l-0.714,0.211
		l1.122-7.295c4.067-1.265,6.746-1.752,9.765-1.752c7.001,0,10.711,3.304,10.711,9.538c0,1.62-0.119,2.821-0.674,6.454
		l-1.705,11.524l-0.278,2.081l-0.209,1.658l-0.142,1.133L61.15,40.828 M55.225,26.339c-0.86-0.102-1.24-0.14-1.823-0.14
		c-4.617,0-6.956,1.68-6.956,4.966c0,2.024,1.15,3.315,2.929,3.315C52.688,34.48,55.09,31.165,55.225,26.339"/>
	<path clip-path="url(#SVGID_2_)" fill="#ED1C24" d="M66.962,18.586c0,4.105,1.891,6.945,6.174,9.067
		c3.279,1.631,3.8,2.107,3.8,3.587c0,2.02-1.456,2.957-4.662,2.957c-2.418,0-4.678-0.405-7.283-1.303l-1.128,7.503l0.368,0.079
		l1.496,0.317c0.481,0.103,1.189,0.193,2.124,0.295c1.943,0.182,3.432,0.268,4.486,0.268c8.547,0,12.501-3.451,12.501-10.86
		c0-4.451-1.649-7.083-5.721-9.055c-3.398-1.62-3.784-2.001-3.784-3.512c0-1.763,1.349-2.669,3.965-2.669
		c1.597,0,3.761,0.189,5.828,0.483l1.162-7.511C84.164,7.87,81.009,7.59,79.139,7.59C70.071,7.59,66.928,12.583,66.962,18.586"/>
	<path clip-path="url(#SVGID_2_)" fill="#ED1C24" d="M99.077,40.431c-2.215,0.736-3.965,1.072-5.845,1.072
		c-4.158,0-6.429-2.533-6.429-7.155c0-0.906,0.068-1.885,0.232-2.915l0.504-3.172l0.374-2.591l3.535-22.195h8.099L98.618,8.3h4.169
		l-1.144,7.908h-4.158l-2.152,13.575c-0.073,0.6-0.136,1.042-0.136,1.347c0,1.666,0.85,2.41,2.776,2.41
		c0.94,0,1.648-0.098,2.192-0.302L99.077,40.431"/>
	<path clip-path="url(#SVGID_2_)" fill="#ED1C24" d="M120.312,20.777c0.046-0.68,0.057-1.235,0.057-1.647
		c0-2.658-1.434-4.21-3.857-4.21c-2.583,0-4.436,2.073-5.194,5.834L120.312,20.777 M124.883,40.144
		c-2.787,0.876-5.482,1.318-8.371,1.307c-9.085,0-13.833-5-13.833-14.561c0-11.177,6.04-19.405,14.246-19.405
		c6.695,0,10.994,4.61,10.994,11.838c0,2.394-0.289,4.727-1.013,8.024h-16.201c-0.068,0.494-0.08,0.721-0.08,1.008
		c0,3.803,2.426,5.717,7.165,5.717c2.906,0,5.523-0.63,8.451-2.069L124.883,40.144z"/>
	<path clip-path="url(#SVGID_2_)" fill="#ED1C24" d="M147.854,8.032c-0.256-0.049-0.539-0.083-0.833-0.083
		c-2.685,0-4.203,1.42-6.695,5.295l0.726-4.944h-7.381l-5.004,32.528h8.188c2.928-19.881,3.676-23.314,7.602-23.314
		c0.237,0,0.26,0,0.594,0.034c0.726-3.919,1.717-6.8,3.082-9.429L147.854,8.032"/>
	<path clip-path="url(#SVGID_2_)" fill="#ED1C24" d="M174.894,2.085l-1.331,8.677c-2.895-1.54-5.023-2.144-7.295-2.144
		c-6.066,0-10.354,6.166-10.354,14.968c0,6.08,2.877,9.743,7.611,9.743c2.011,0,4.22-0.646,6.922-2.062l-1.422,9.13
		c-2.99,0.861-4.939,1.167-7.199,1.167c-8.785,0-14.251-6.627-14.251-17.264c0-14.308,7.55-24.3,18.353-24.3
		c1.393,0,2.639,0.136,3.652,0.431l3.359,0.88C173.936,1.708,174.161,1.768,174.894,2.085"/>
	<path clip-path="url(#SVGID_2_)" fill="#ED1C24" d="M194.859,40.828h-6.758l0.159-3.376c-2.056,2.692-4.809,3.942-8.536,3.942
		c-4.43,0-7.465-3.625-7.465-8.862c0-7.942,5.279-12.552,14.33-12.552c0.918,0,2.107,0.071,3.313,0.241
		c0.249-1.076,0.323-1.54,0.323-2.11c0-2.149-1.416-2.965-5.233-2.965c-2.317,0-4.956,0.352-6.764,0.93l-1.161,0.328l-0.703,0.211
		l1.134-7.295c4.072-1.265,6.746-1.752,9.742-1.752c7.013,0,10.722,3.304,10.722,9.538c0,1.62-0.141,2.821-0.668,6.454
		l-1.717,11.524l-0.254,2.081l-0.227,1.658l-0.148,1.133L194.859,40.828 M188.929,26.339c-0.849-0.102-1.24-0.14-1.811-0.14
		c-4.635,0-6.979,1.68-6.979,4.966c0,2.024,1.16,3.315,2.938,3.315C186.408,34.48,188.781,31.165,188.929,26.339"/>
	<path clip-path="url(#SVGID_2_)" fill="#ED1C24" d="M217.617,8.032c-0.243-0.049-0.51-0.083-0.82-0.083
		c-2.674,0-4.203,1.42-6.707,5.295l0.726-4.944h-7.369l-4.984,32.528h8.162c2.928-19.881,3.698-23.314,7.595-23.314
		c0.256,0,0.238-0.022,0.572,0.034c0.736-3.919,1.733-6.8,3.104-9.429L217.617,8.032"/>
	<path clip-path="url(#SVGID_2_)" fill="#ED1C24" d="M227.762,33.17c3.807,0,6.469-4.52,6.469-10.959
		c0-4.134-1.518-6.385-4.333-6.385c-3.692,0-6.315,4.539-6.315,10.939C223.582,31.025,224.992,33.17,227.762,33.17 M239.787,40.828
		h-7.709l0.402-3.187c-2.243,2.518-4.549,3.617-7.527,3.617c-5.959,0-9.861-5.37-9.861-13.503c0-10.819,6.066-19.953,13.271-19.953
		c3.166,0,5.562,1.371,7.816,4.452l1.772-11.426h8.032L239.787,40.828z"/>
</g>
</svg>
