<?xml version="1.0" encoding="utf-8"?>
<!-- Generator: Adobe Illustrator 16.0.0, SVG Export Plug-In . SVG Version: 6.00 Build 0)  -->
<!DOCTYPE svg PUBLIC "-//W3C//DTD SVG 1.0//EN" "http://www.w3.org/TR/2001/REC-SVG-20010904/DTD/svg10.dtd">
<svg version="1.0" id="Слой_1" xmlns="http://www.w3.org/2000/svg" xmlns:xlink="http://www.w3.org/1999/xlink" x="0px" y="0px"
	 width="211.513px" height="126.556px" viewBox="0 0 211.513 126.556" enable-background="new 0 0 211.513 126.556"
	 xml:space="preserve">
<g>
	<defs>
		<rect id="SVGID_1_" width="211.513" height="126.556"/>
	</defs>
	<clipPath id="SVGID_2_">
		<use xlink:href="#SVGID_1_"  overflow="visible"/>
	</clipPath>
	<path clip-path="url(#SVGID_2_)" fill="#ED1C2E" d="M126.557,63.279c0,34.949-28.329,63.277-63.275,63.277
		C28.331,126.556,0,98.228,0,63.279C0,28.331,28.331,0,63.282,0C98.228,0,126.557,28.331,126.557,63.279"/>
	<path clip-path="url(#SVGID_2_)" fill="#FCB131" d="M148.235,0c-16.354,0-31.25,6.203-42.482,16.379
		c-2.284,2.074-4.418,4.314-6.385,6.699h12.783c1.746,2.126,3.355,4.361,4.823,6.702H94.542c-1.341,2.151-2.562,4.386-3.645,6.702
		h29.724c1.016,2.169,1.91,4.403,2.68,6.699H88.216c-0.731,2.183-1.346,4.418-1.839,6.698h38.758c0.928,4.32,1.421,8.802,1.421,13.4
		c0,7.025-1.144,13.787-3.257,20.102H88.216c0.769,2.296,1.664,4.531,2.678,6.704h29.726c-1.086,2.31-2.301,4.546-3.65,6.7H94.542
		c1.464,2.334,3.077,4.572,4.827,6.695h12.779c-1.965,2.387-4.1,4.627-6.391,6.701c11.231,10.176,26.125,16.375,42.479,16.375
		c34.946,0,63.277-28.328,63.277-63.277C211.513,28.334,183.182,0,148.235,0"/>
	<path clip-path="url(#SVGID_2_)" fill="#003473" d="M53.5,81.837h-5.693l0.131-2.706c-1.736,2.139-4.053,3.157-7.2,3.157
		c-3.722,0-6.276-2.907-6.276-7.129c0-6.357,4.44-10.064,12.061-10.064c0.781,0,1.778,0.072,2.801,0.201
		c0.212-0.861,0.268-1.228,0.268-1.692c0-1.728-1.196-2.377-4.405-2.377c-3.361-0.034-6.133,0.803-7.273,1.177
		c0.073-0.434,0.954-5.871,0.954-5.871c3.421-1.006,5.679-1.382,8.22-1.382c5.901,0,9.026,2.648,9.019,7.654
		c0.012,1.343-0.211,2.996-0.557,5.173C54.954,71.756,53.674,79.865,53.5,81.837 M48.503,70.207
		c-0.72-0.082-1.039-0.107-1.534-0.107c-3.893,0-5.862,1.337-5.862,3.975c0,1.625,0.961,2.658,2.461,2.658
		C46.367,76.732,48.384,74.068,48.503,70.207"/>
	<polygon clip-path="url(#SVGID_2_)" fill="#003473" points="31.587,81.837 24.717,81.837 28.655,57.167 19.866,81.837 
		15.185,81.837 14.606,57.303 10.47,81.837 4.039,81.837 9.411,49.74 19.29,49.74 19.887,67.707 25.914,49.74 36.901,49.74 	"/>
	<path clip-path="url(#SVGID_2_)" fill="#003473" d="M161.724,81.837h-5.691l0.13-2.706c-1.737,2.139-4.054,3.157-7.198,3.157
		c-3.727,0-6.276-2.907-6.276-7.129c0-6.357,4.44-10.064,12.06-10.064c0.779,0,1.775,0.072,2.799,0.201
		c0.213-0.861,0.268-1.228,0.268-1.692c0-1.728-1.194-2.377-4.403-2.377c-3.362-0.034-6.134,0.803-7.276,1.177
		c0.076-0.434,0.959-5.871,0.959-5.871c3.42-1.006,5.68-1.382,8.216-1.382c5.905,0,9.026,2.648,9.021,7.654
		c0.012,1.343-0.209,2.996-0.557,5.173C163.179,71.756,161.896,79.865,161.724,81.837 M156.724,70.207
		c-0.721-0.082-1.035-0.107-1.529-0.107c-3.896,0-5.863,1.337-5.863,3.975c0,1.625,0.957,2.658,2.461,2.658
		C154.589,76.732,156.606,74.068,156.724,70.207"/>
	<path clip-path="url(#SVGID_2_)" fill="#003473" d="M84.031,81.441c-1.881,0.592-3.347,0.848-4.936,0.848
		c-3.512,0-5.429-2.018-5.429-5.734c-0.048-1.154,0.505-4.189,0.942-6.957c0.397-2.439,2.979-17.813,2.979-17.813h6.828
		l-0.796,3.951h4.124l-0.931,6.274h-4.14c-0.793,4.963-1.924,11.147-1.936,11.967c0,1.346,0.718,1.934,2.352,1.934
		c0.784,0,1.389-0.08,1.852-0.246L84.031,81.441"/>
	<path clip-path="url(#SVGID_2_)" fill="#003473" d="M101.128,65.755c0.04-0.545,0.724-4.659-3.178-4.659
		c-2.174,0-3.73,1.658-4.361,4.659H101.128 M104.967,81.23c-2.346,0.717-4.607,1.066-7.006,1.059
		c-7.645-0.01-11.629-4-11.629-11.645c0-8.922,5.067-15.492,11.951-15.492c5.629,0,9.227,3.678,9.227,9.443
		c0,1.918-0.247,3.785-0.844,6.422H93.067c-0.459,3.787,1.963,5.363,5.938,5.363c2.442,0,4.648-0.504,7.098-1.641L104.967,81.23z"/>
	<path clip-path="url(#SVGID_2_)" fill="#003473" d="M57.621,63.989c0,3.298,1.6,5.575,5.23,7.286
		c2.781,1.309,3.214,1.695,3.214,2.881c0,1.625-1.229,2.363-3.945,2.363c-2.051,0-3.958-0.322-6.157-1.033
		c0,0-0.9,5.756-0.943,6.031c1.56,0.338,2.953,0.652,7.148,0.771c7.248,0,10.597-2.76,10.597-8.725c0-3.586-1.4-5.691-4.843-7.275
		c-2.879-1.319-3.212-1.617-3.212-2.835c0-1.411,1.144-2.132,3.363-2.132c1.348,0,3.19,0.144,4.937,0.391l0.977-6.054
		c-1.779-0.283-4.476-0.507-6.046-0.507C60.256,55.152,57.596,59.165,57.621,63.989"/>
	<path clip-path="url(#SVGID_2_)" fill="#003473" d="M138.378,55.841c1.908,0,3.689,0.496,6.139,1.732l1.125-6.965
		c-1.01-0.396-4.551-2.717-7.551-2.717c-4.596,0-8.485,2.284-11.217,6.045c-3.988-1.32-5.629,1.348-7.637,4.008l-1.785,0.416
		c0.135-0.875,0.258-1.745,0.219-2.625h-6.312c-0.859,8.081-2.387,16.263-3.582,24.347l-0.312,1.756h6.873
		c1.146-7.452,1.773-12.225,2.156-15.457l2.588-1.434c0.389-1.441,1.596-1.925,4.024-1.866c-0.317,1.702-0.489,3.495-0.489,5.35
		c0,8.541,4.614,13.857,12.006,13.857c1.904,0,3.541-0.25,6.074-0.939l1.203-7.314c-2.277,1.119-4.143,1.646-5.834,1.646
		c-3.994,0-6.41-2.949-6.41-7.82C129.655,60.792,133.247,55.841,138.378,55.841"/>
	<path clip-path="url(#SVGID_2_)" fill="#003473" d="M187.948,75.808c-2.338,0-3.521-1.734-3.521-5.146
		c0-5.131,2.213-8.768,5.328-8.768c2.361,0,3.641,1.796,3.641,5.112C193.396,72.181,191.146,75.808,187.948,75.808 M196.54,49.741
		l-1.527,9.273c-1.875-2.471-3.893-4.261-6.557-4.261c-3.467,0-6.621,2.628-8.687,6.498c-2.879-0.597-5.851-1.612-5.851-1.612
		l-0.002,0.025c0.229-2.163,0.326-3.479,0.303-3.929h-6.311c-0.857,8.081-2.387,16.263-3.58,24.347l-0.316,1.756h6.875
		c0.928-6.023,1.637-11.031,2.16-14.998c2.35-2.122,3.525-3.971,5.895-3.851c-1.05,2.542-1.664,5.468-1.664,8.47
		c0,6.523,3.299,10.83,8.295,10.83c2.518,0,4.449-0.869,6.334-2.881l-0.324,2.428h6.5l5.232-32.095H196.54z"/>
	<polygon clip-path="url(#SVGID_2_)" fill="#FFFFFF" points="33.564,79.933 26.695,79.933 30.631,55.261 21.844,79.933 
		17.162,79.933 16.583,55.404 12.447,79.933 6.017,79.933 11.388,47.839 21.267,47.839 21.542,67.707 28.208,47.839 38.877,47.839 	
		"/>
	<path clip-path="url(#SVGID_2_)" fill="#FFFFFF" d="M55.477,79.933h-5.691l0.13-2.703c-1.736,2.135-4.053,3.156-7.2,3.156
		c-3.723,0-6.275-2.91-6.275-7.133c0-6.357,4.439-10.059,12.06-10.059c0.78,0,1.778,0.07,2.8,0.203
		c0.213-0.864,0.269-1.231,0.269-1.699c0-1.726-1.197-2.37-4.405-2.37c-3.363-0.04-6.133,0.798-7.273,1.171
		c0.072-0.432,0.953-5.869,0.953-5.869c3.423-1.004,5.681-1.384,8.222-1.384c5.899,0,9.023,2.652,9.017,7.656
		c0.012,1.341-0.21,3-0.555,5.171C56.932,69.851,55.652,77.962,55.477,79.933 M50.481,68.306c-0.72-0.084-1.038-0.107-1.533-0.107
		c-3.894,0-5.865,1.334-5.865,3.971c0,1.623,0.962,2.662,2.463,2.662C48.345,74.832,50.362,72.167,50.481,68.306"/>
	<path clip-path="url(#SVGID_2_)" fill="#FFFFFF" d="M147.618,48.703l-1.125,6.965c-2.453-1.233-4.229-1.732-6.137-1.732
		c-5.129,0-8.727,4.957-8.727,12.027c0,4.871,2.418,7.814,6.412,7.814c1.691,0,3.561-0.523,5.834-1.646l-1.207,7.314
		c-2.529,0.69-4.166,0.941-6.07,0.941c-7.396,0-12.004-5.318-12.004-13.857c0-11.474,6.369-19.493,15.473-19.493
		C143.067,47.036,146.61,48.307,147.618,48.703"/>
	<path clip-path="url(#SVGID_2_)" fill="#FFFFFF" d="M163.7,79.933h-5.691l0.13-2.703c-1.737,2.135-4.054,3.156-7.198,3.156
		c-3.727,0-6.275-2.91-6.275-7.133c0-6.357,4.436-10.059,12.059-10.059c0.779,0,1.775,0.07,2.797,0.203
		c0.213-0.864,0.27-1.231,0.27-1.699c0-1.726-1.194-2.37-4.404-2.37c-3.359-0.04-6.129,0.798-7.271,1.171
		c0.073-0.432,0.953-5.869,0.953-5.869c3.424-1.004,5.68-1.384,8.221-1.384c5.899,0,9.025,2.652,9.018,7.656
		c0.014,1.341-0.21,3-0.555,5.171C165.155,69.851,163.876,77.962,163.7,79.933 M158.7,68.306c-0.717-0.084-1.035-0.107-1.529-0.107
		c-3.893,0-5.863,1.334-5.863,3.971c0,1.623,0.962,2.662,2.462,2.662C156.565,74.832,158.585,72.167,158.7,68.306"/>
	<path clip-path="url(#SVGID_2_)" fill="#FFFFFF" d="M86.007,79.537c-1.879,0.592-3.345,0.85-4.934,0.85
		c-3.512,0-5.43-2.02-5.43-5.732c-0.048-1.158,0.507-4.187,0.943-6.959c0.396-2.441,2.979-17.813,2.979-17.813h6.828l-0.798,3.95
		H89.1l-0.933,6.272H84.65c-0.793,4.968-1.925,11.148-1.938,11.968c0,1.35,0.72,1.934,2.354,1.934c0.782,0,1.388-0.076,1.852-0.245
		L86.007,79.537"/>
	<path clip-path="url(#SVGID_2_)" fill="#FFFFFF" d="M103.108,63.851c0.037-0.546,0.723-4.659-3.179-4.659
		c-2.174,0-3.729,1.661-4.363,4.659H103.108 M106.946,79.33c-2.346,0.718-4.613,1.059-7.008,1.057
		c-7.646-0.006-11.629-4-11.629-11.645c0-8.925,5.068-15.495,11.947-15.495c5.634,0,9.229,3.678,9.229,9.451
		c0,1.913-0.25,3.78-0.84,6.417H95.046c-0.462,3.787,1.963,5.367,5.934,5.367c2.443,0,4.649-0.506,7.103-1.646L106.946,79.33z"/>
	<path clip-path="url(#SVGID_2_)" fill="#FFFFFF" d="M59.597,62.083c0,3.305,1.602,5.577,5.233,7.289
		c2.781,1.31,3.211,1.696,3.211,2.882c0,1.627-1.226,2.361-3.945,2.361c-2.05,0-3.956-0.318-6.156-1.027c0,0-0.9,5.751-0.943,6.023
		c1.561,0.342,2.954,0.654,7.148,0.775c7.25,0,10.598-2.759,10.598-8.725c0-3.588-1.402-5.691-4.843-7.271
		c-2.88-1.325-3.211-1.618-3.211-2.838c0-1.411,1.141-2.137,3.362-2.137c1.347,0,3.19,0.15,4.936,0.396l0.978-6.053
		c-1.779-0.281-4.475-0.511-6.047-0.511C62.233,53.247,59.574,57.261,59.597,62.083"/>
	<path clip-path="url(#SVGID_2_)" fill="#FFFFFF" d="M189.925,73.902c3.201,0,5.448-3.625,5.448-8.795
		c0-3.317-1.28-5.118-3.642-5.118c-3.115,0-5.328,3.637-5.328,8.77C186.403,72.176,187.589,73.902,189.925,73.902 M200.059,79.933
		h-6.496l0.321-2.43c-1.884,2.014-3.816,2.883-6.334,2.883c-4.993,0-8.295-4.303-8.295-10.832c0-8.683,5.121-16,11.177-16
		c2.665,0,4.683,1.087,6.562,3.56l1.523-9.275h6.775L200.059,79.933z"/>
	<path clip-path="url(#SVGID_2_)" fill="#FFFFFF" d="M169.888,53.832c-0.859,8.079-2.387,16.262-3.582,24.345l-0.312,1.756h6.871
		c2.457-15.962,3.049-19.077,6.905-18.688c0.612-3.267,1.755-6.128,2.606-7.57c-2.877-0.6-4.484,1.026-6.59,4.116
		c0.168-1.337,0.471-2.634,0.413-3.959H169.888"/>
	<path clip-path="url(#SVGID_2_)" fill="#FFFFFF" d="M113.339,53.832c-0.864,8.079-2.393,16.262-3.586,24.345l-0.312,1.756h6.873
		c2.459-15.962,3.049-19.077,6.898-18.688c0.617-3.267,1.762-6.128,2.611-7.57c-2.875-0.6-4.484,1.026-6.586,4.116
		c0.166-1.337,0.471-2.634,0.41-3.959H113.339"/>
</g>
</svg>
