<?xml version="1.0" encoding="UTF-8" standalone="no"?>
<svg width="112px" height="150px" viewBox="0 0 112 150" version="1.1" xmlns="http://www.w3.org/2000/svg" xmlns:xlink="http://www.w3.org/1999/xlink" xmlns:sketch="http://www.bohemiancoding.com/sketch/ns">
    <!-- Generator: Sketch 3.3.3 (12081) - http://www.bohemiancoding.com/sketch -->
    <title>Group</title>
    <desc>Created with Sketch.</desc>
    <defs></defs>
    <g id="Page-1" stroke="none" stroke-width="1" fill="none" fill-rule="evenodd" sketch:type="MSPage">
        <g id="icons-copy-2" sketch:type="MSArtboardGroup" transform="translate(-307.000000, -68.000000)">
            <g id="Group" sketch:type="MSLayerGroup" transform="translate(307.000000, 68.000000)">
                <rect id="Rectangle-69-Copy-11" stroke="#D7D7D7" stroke-width="0.1" fill="#D7D7D7" sketch:type="MSShapeGroup" x="0" y="6" width="112" height="144"></rect>
                <path d="M0,6 C0,6 0,0 7,0 L108,0 L108,144 L7,144 C0,144 0,150 0,150 L0,6 Z" id="Rectangle-73-Copy-7" stroke="#979797" stroke-width="0.1" fill="#FFFFFF" sketch:type="MSShapeGroup"></path>
                <path d="M7,60 L101,60 L101,66 L7,66 L7,60 Z" id="Fill-69-Copy-215" fill="#D7D7D7" sketch:type="MSShapeGroup"></path>
                <g id="Group-Copy-14" transform="translate(7.000000, 70.000000)" fill="#D7D7D7" sketch:type="MSShapeGroup">
                    <path d="M72,0 L94,0 L94,2 L72,2 L72,0 Z" id="Fill-69-Copy-150"></path>
                    <path d="M72,5 L94,5 L94,7 L72,7 L72,5 Z" id="Fill-69-Copy-151"></path>
                    <path d="M0,0 L22,0 L22,2 L0,2 L0,0 Z" id="Fill-69-Copy-152"></path>
                    <path d="M24,0 L70,0 L70,32 L24,32 L24,0 Z" id="Fill-69-Copy-153"></path>
                    <path d="M0,5 L22,5 L22,7 L0,7 L0,5 Z" id="Fill-69-Copy-154"></path>
                    <path d="M72,10 L94,10 L94,12 L72,12 L72,10 Z" id="Fill-69-Copy-155"></path>
                    <path d="M0,10 L22,10 L22,12 L0,12 L0,10 Z" id="Fill-69-Copy-156"></path>
                    <path d="M72,15 L94,15 L94,17 L72,17 L72,15 Z" id="Fill-69-Copy-157"></path>
                    <path d="M0,15 L22,15 L22,17 L0,17 L0,15 Z" id="Fill-69-Copy-158"></path>
                    <path d="M72,20 L94,20 L94,22 L72,22 L72,20 Z" id="Fill-69-Copy-159"></path>
                    <path d="M0,20 L22,20 L22,22 L0,22 L0,20 Z" id="Fill-69-Copy-160"></path>
                    <path d="M72,25 L94,25 L94,27 L72,27 L72,25 Z" id="Fill-69-Copy-161"></path>
                    <path d="M0,25 L22,25 L22,27 L0,27 L0,25 Z" id="Fill-69-Copy-162"></path>
                    <path d="M72,30 L94,30 L94,32 L72,32 L72,30 Z" id="Fill-69-Copy-163"></path>
                    <path d="M0,30 L22,30 L22,32 L0,32 L0,30 Z" id="Fill-69-Copy-164"></path>
                    <path d="M72,35 L94,35 L94,37 L72,37 L72,35 Z" id="Fill-69-Copy-165"></path>
                    <path d="M48,35 L70,35 L70,37 L48,37 L48,35 Z" id="Fill-69-Copy-166"></path>
                    <path d="M24,35 L46,35 L46,37 L24,37 L24,35 Z" id="Fill-69-Copy-167"></path>
                    <path d="M0,35 L22,35 L22,37 L0,37 L0,35 Z" id="Fill-69-Copy-168"></path>
                    <path d="M72,40 L94,40 L94,42 L72,42 L72,40 Z" id="Fill-69-Copy-169"></path>
                    <path d="M48,40 L70,40 L70,42 L48,42 L48,40 Z" id="Fill-69-Copy-170"></path>
                    <path d="M24,40 L46,40 L46,42 L24,42 L24,40 Z" id="Fill-69-Copy-171"></path>
                    <path d="M0,40 L22,40 L22,42 L0,42 L0,40 Z" id="Fill-69-Copy-172"></path>
                    <path d="M72,45 L94,45 L94,47 L72,47 L72,45 Z" id="Fill-69-Copy-173"></path>
                    <path d="M48,45 L70,45 L70,47 L48,47 L48,45 Z" id="Fill-69-Copy-174"></path>
                    <path d="M24,45 L46,45 L46,47 L24,47 L24,45 Z" id="Fill-69-Copy-175"></path>
                    <path d="M0,45 L22,45 L22,47 L0,47 L0,45 Z" id="Fill-69-Copy-176"></path>
                    <path d="M72,50 L94,50 L94,52 L72,52 L72,50 Z" id="Fill-69-Copy-177"></path>
                    <path d="M48,50 L70,50 L70,52 L48,52 L48,50 Z" id="Fill-69-Copy-178"></path>
                    <path d="M24,50 L46,50 L46,52 L24,52 L24,50 Z" id="Fill-69-Copy-179"></path>
                    <path d="M0,50 L22,50 L22,52 L0,52 L0,50 Z" id="Fill-69-Copy-180"></path>
                    <path d="M72,55 L94,55 L94,57 L72,57 L72,55 Z" id="Fill-69-Copy-181"></path>
                    <path d="M48,55 L70,55 L70,57 L48,57 L48,55 Z" id="Fill-69-Copy-182"></path>
                    <path d="M24,55 L46,55 L46,57 L24,57 L24,55 Z" id="Fill-69-Copy-183"></path>
                    <path d="M0,55 L22,55 L22,57 L0,57 L0,55 Z" id="Fill-69-Copy-184"></path>
                    <path d="M72,60 L94,60 L94,62 L72,62 L72,60 Z" id="Fill-69-Copy-208"></path>
                    <path d="M48,60 L70,60 L70,62 L48,62 L48,60 Z" id="Fill-69-Copy-201"></path>
                    <path d="M24,60 L46,60 L46,62 L24,62 L24,60 Z" id="Fill-69-Copy-202"></path>
                    <path d="M0,60 L22,60 L22,62 L0,62 L0,60 Z" id="Fill-69-Copy-203"></path>
                    <path d="M72,65 L94,65 L94,67 L72,67 L72,65 Z" id="Fill-69-Copy-204"></path>
                    <path d="M48,65 L70,65 L70,67 L48,67 L48,65 Z" id="Fill-69-Copy-205"></path>
                    <path d="M24,65 L46,65 L46,67 L24,67 L24,65 Z" id="Fill-69-Copy-206"></path>
                    <path d="M0,65 L22,65 L22,67 L0,67 L0,65 Z" id="Fill-69-Copy-207"></path>
                </g>
            </g>
        </g>
    </g>
</svg>