<?xml version="1.0" encoding="utf-8"?>
<!-- Generator: Adobe Illustrator 16.0.0, SVG Export Plug-In . SVG Version: 6.00 Build 0)  -->
<!DOCTYPE svg PUBLIC "-//W3C//DTD SVG 1.0//EN" "http://www.w3.org/TR/2001/REC-SVG-20010904/DTD/svg10.dtd">
<svg version="1.0" id="Слой_1" xmlns="http://www.w3.org/2000/svg" xmlns:xlink="http://www.w3.org/1999/xlink" x="0px" y="0px"
	 width="307px" height="50px" viewBox="0 0 227.214 37.433" enable-background="new 0 0 227.214 37.433"
	 xml:space="preserve">
<g>
	<defs>
		<rect id="SVGID_1_" width="307" height="50"/>
	</defs>
	<clipPath id="SVGID_2_">
		<use xlink:href="#SVGID_1_"  overflow="visible"/>
	</clipPath>
	<path clip-path="url(#SVGID_2_)" fill="#1E478E" d="M73.623,30.696c-1.028,0.514-3.342,1.102-6.352,1.102
		c-8.556,0-12.963-5.361-12.963-12.411c0-8.446,6.023-13.147,13.514-13.147c2.901,0,5.103,0.587,6.095,1.102l-1.138,4.443
		c-1.139-0.478-2.718-0.918-4.701-0.918c-4.443,0-7.896,2.68-7.896,8.189c0,4.957,2.939,8.078,7.933,8.078
		c1.689,0,3.562-0.368,4.664-0.808L73.623,30.696z"/>
	<path clip-path="url(#SVGID_2_)" fill="#1E478E" d="M76.033,13.621c1.358-0.184,4.442-0.44,7.233-0.44
		c3.048,0,8.886,0.329,8.886,4.589c0,2.313-1.873,3.524-3.671,3.892v0.074c2.68,0.441,4.442,1.946,4.442,4.37
		c0,5.104-6.94,5.544-10.611,5.544c-2.497,0-5.141-0.184-6.279-0.33V13.621z M81.503,28.198c0.588,0.073,1.029,0.073,1.873,0.073
		c1.91,0,3.82-0.549,3.82-2.313c0-1.542-1.47-2.275-4.077-2.275h-1.616V28.198z M81.541,20.45h1.432
		c2.241,0,3.672-0.586,3.672-1.946c0-1.175-0.955-1.909-3.195-1.909c-0.77,0-1.285,0.074-1.909,0.147V20.45z"/>
	<path clip-path="url(#SVGID_2_)" fill="#1E478E" d="M110.848,31.392h-5.509v-6.755H104.2c-1.174,0-2.019,0.55-2.57,1.284
		c-0.955,0.919-1.395,2.606-1.946,4.003c-0.219,0.514-0.403,0.882-0.698,1.468h-5.948c0.44-0.551,0.77-1.248,1.102-1.981
		c0.587-1.432,1.395-3.744,2.534-4.958c0.588-0.623,1.321-1.102,2.276-1.321v-0.109c-2.02-0.221-4.626-1.579-4.626-4.445
		c0-2.24,1.248-3.524,3.047-4.369c1.653-0.809,4.15-1.065,6.61-1.065c2.79,0,5.288,0.184,6.867,0.403V31.392z M105.339,16.742
		c-0.477-0.074-1.029-0.147-1.908-0.147c-1.801,0-3.342,0.698-3.342,2.312c0,1.581,1.761,2.352,3.414,2.352
		c0.881,0,1.359-0.038,1.836-0.038V16.742z"/>
	<path clip-path="url(#SVGID_2_)" fill="#1E478E" d="M115.63,20.45h2.644c2.276,0,3.379-0.771,3.379-1.763
		c0-1.028-1.064-1.797-3.048-1.797c-1.579,0-3.231,0.549-4.516,1.283l-1.101-3.267c2.127-1.285,4.809-1.836,7.305-1.836
		c3.27,0,7.27,1.138,7.27,4.811c0,2.35-2.128,3.562-3.892,3.965v0.146c2.205,0.258,4.665,1.506,4.665,4.222
		c0,4.37-5.251,5.509-8.922,5.509c-2.496,0-5.068-0.588-6.978-1.726l1.175-3.452c1.21,0.661,3.269,1.213,5.142,1.249
		c2.35,0,3.449-0.846,3.449-1.91c0-1.432-1.505-2.019-3.891-2.019h-2.682V20.45z"/>
	<path clip-path="url(#SVGID_2_)" fill="#1E478E" d="M135.746,13.438v5.324c0.773-0.111,1.836-0.22,2.827-0.22
		c4.188,0,8.594,1.468,8.594,6.242c0,2.275-0.99,3.817-2.461,4.81c-2.313,1.616-5.802,2.021-8.555,2.021
		c-2.018,0-4.114-0.11-5.984-0.331V13.438H135.746z M135.71,27.721c0.515,0.036,1.029,0.11,1.872,0.11
		c1.837,0,4.04-0.624,4.04-2.792c0-2.203-2.387-2.717-4.111-2.717c-0.735,0-1.25,0.11-1.801,0.185V27.721z"/>
	<path clip-path="url(#SVGID_2_)" fill="#339B47" d="M168.867,6.644v4.589h-10.869v4.223c0.844-0.109,2.019-0.184,3.012-0.184
		c2.496,0,5.104,0.625,6.976,2.022c1.726,1.248,2.865,3.194,2.865,5.911c0,2.423-0.919,4.295-2.351,5.581
		c-2.387,2.129-6.278,2.864-10.062,2.864c-2.754,0-4.772-0.184-6.02-0.367V6.644H168.867z M157.961,27.317
		c0.624,0.111,1.396,0.147,2.167,0.147c1.357,0,2.718-0.441,3.635-1.285c0.735-0.661,1.212-1.652,1.212-2.864
		c0-1.25-0.514-2.167-1.322-2.791c-0.992-0.772-2.386-1.101-3.708-1.101c-0.624,0-1.286,0.072-1.983,0.146V27.317z"/>
	<path clip-path="url(#SVGID_2_)" fill="#339B47" d="M188.106,27.023c0,1.727,0.073,3.379,0.257,4.369h-5.03l-0.331-1.799h-0.109
		c-1.177,1.433-3.012,2.204-5.141,2.204c-3.637,0-5.802-2.644-5.802-5.509c0-4.663,4.185-6.902,10.539-6.866v-0.257
		c0-0.955-0.515-2.314-3.271-2.314c-1.834,0-3.779,0.625-4.956,1.359l-1.026-3.599c1.248-0.697,3.707-1.579,6.976-1.579
		c5.986,0,7.895,3.525,7.895,7.748V27.023z M182.671,22.911c-2.937-0.037-5.214,0.662-5.214,2.827c0,1.434,0.957,2.13,2.205,2.13
		c1.394,0,2.532-0.918,2.899-2.057c0.073-0.294,0.109-0.623,0.109-0.953V22.911z"/>
	<polygon clip-path="url(#SVGID_2_)" fill="#339B47" points="195.973,13.438 195.973,19.938 201.628,19.938 201.628,13.438 
		207.246,13.438 207.246,31.392 201.628,31.392 201.628,24.27 195.973,24.27 195.973,31.392 190.392,31.392 190.392,13.438 	"/>
	<path clip-path="url(#SVGID_2_)" fill="#339B47" d="M215.463,13.438v7.16h0.626l4.514-7.16h6.538l-6.61,7.709
		c2.13,0.404,3.452,2.352,4.518,4.958c0.588,1.47,1.283,3.599,2.167,5.287h-5.841c-0.477-0.771-0.917-2.055-1.614-3.965
		c-0.809-2.057-1.909-3.157-3.745-3.157h-0.552v7.122h-5.543V13.438H215.463z"/>
	<path clip-path="url(#SVGID_2_)" fill="#1E478E" d="M40.176,0.5c0.085,0,0.167,0.005,0.251,0.006V0H12.353
		C5.532,0,0,5.533,0,12.355c0,0.039,0.004,0.081,0.004,0.124h28.072C28.143,5.851,33.533,0.5,40.176,0.5"/>
	<path clip-path="url(#SVGID_2_)" fill="#00A94F" d="M0.251,36.934c-0.084,0-0.165-0.004-0.251-0.005v0.504h28.074
		c6.821,0,12.353-5.53,12.353-12.353c0-0.043-0.004-0.083-0.004-0.125H12.351C12.284,31.582,6.894,36.934,0.251,36.934"/>
	<path clip-path="url(#SVGID_2_)" fill="#00A94F" d="M40.176,24.456c0.078,0,0.156-0.003,0.235-0.005
		c-0.324-6.445-5.591-11.585-12.086-11.716C28.396,19.221,33.673,24.456,40.176,24.456"/>
	<path clip-path="url(#SVGID_2_)" fill="#1E478E" d="M0.016,12.985C0.341,19.43,5.606,24.569,12.103,24.7
		C12.031,18.215,6.753,12.977,0.25,12.977C0.172,12.977,0.094,12.982,0.016,12.985"/>
</g>
</svg>
