<?xml version="1.0" encoding="utf-8"?>
<!-- Generator: Adobe Illustrator 16.0.0, SVG Export Plug-In . SVG Version: 6.00 Build 0)  -->
<!DOCTYPE svg PUBLIC "-//W3C//DTD SVG 1.0//EN" "http://www.w3.org/TR/2001/REC-SVG-20010904/DTD/svg10.dtd">
<svg version="1.0" id="Слой_1" xmlns="http://www.w3.org/2000/svg" xmlns:xlink="http://www.w3.org/1999/xlink" x="0px" y="0px"
	 width="190.05px" height="81.885px" viewBox="0 0 190.05 81.885" enable-background="new 0 0 190.05 81.885" xml:space="preserve">
<g>
	<defs>
		<rect id="SVGID_1_" width="190.05" height="81.885"/>
	</defs>
	<clipPath id="SVGID_2_">
		<use xlink:href="#SVGID_1_"  overflow="visible"/>
	</clipPath>
	<g clip-path="url(#SVGID_2_)">
		<defs>
			<path id="SVGID_3_" d="M147.728,53.991l0.661,3.231c0,0,1.848,8.942,2.235,10.817h-8.036c0.803-2.156,3.855-10.473,3.855-10.473
				c-0.002,0.002-0.002,0.003-0.003,0.003C146.423,57.57,147.251,55.369,147.728,53.991 M147.047,43.891
				c-2.319,0-4.052,0.662-5.064,3.106l-14.381,34.344h10.166c0,0,1.665-4.617,2.036-5.639c1.115,0,10.989,0.02,12.396,0.02
				c0.291,1.308,1.177,5.619,1.177,5.619h8.976l-7.825-37.45H147.047z M42.952,43.868l-0.124,0.776
				c13.398,3.429,19.82,9.932,23.365,19.23c-2.747-7.167-9.21-11.129-12.497-12.291l7.894,29.714l10.243-0.024L87.07,43.885H76.818
				l-9.477,25.549l-1.014-5.196c-0.029-0.081-0.059-0.163-0.09-0.244c0.032,0.084,0.063,0.168,0.095,0.253l-3.391-17.218
				c-0.584-2.374-2.285-3.078-4.39-3.16H42.952z M90.983,43.854l-6.045,37.473h9.673l6.054-37.473H90.983z M104.68,55.569
				c-0.062,5.385,4.802,8.386,8.479,10.178c3.766,1.837,5.039,3.01,5.02,4.649c-0.028,2.514-3.008,3.66-5.793,3.66
				c-3.877,0-5.933-0.564-9.113-1.962l-1.245-0.596l-1.354,8.381c2.258,1.047,6.44,1.955,10.777,2.005
				c10.177,0,16.776-5.026,16.855-12.807c0.032-4.271-2.552-7.504-8.124-10.178c-3.392-1.734-5.462-2.886-5.438-4.644
				c0-1.562,1.75-3.229,5.542-3.229c3.165-0.05,5.458,0.681,7.241,1.439l0.868,0.431l1.318-8.123
				c-1.918-0.752-4.932-1.571-8.682-1.571C111.471,43.203,104.733,48.287,104.68,55.569 M173.22,17.326l3.68,17.213l-0.575,1.157
				c-0.737,1.265-1.838,1.843-3.105,1.843c-0.831,0-1.429-0.108-1.985-0.252l0.028,3.58c0.381,0.108,0.804,0.18,1.562,0.18
				c3.364,0,5.558-1.338,7.773-5.641l9.451-18.405h-4.303l-5.78,12.185l-2.136-12.438L173.22,17.326z M67.632,11.409l-3.548,23.058
				h5.728l3.549-23.058H67.632z M92.837,11.409l-3.55,23.058h5.729l3.55-23.058H92.837z M36.927,14.894
				c2.769,0,3.892,2.006,3.722,5.586h-9.164C32.495,16.708,34.636,14.894,36.927,14.894 M25.326,22.961
				c-1.278,8.307,2.977,11.983,9.421,11.983c3.724,0,6.901-1.098,9.648-2.817l0.023-4.487c-2.803,1.766-5.407,2.865-8.366,2.865
				c-3.533,0-5.618-1.958-5.214-6.445h14.799c0.051-0.334,0.187-0.907,0.26-1.384c1.007-6.54-1.296-11.743-8.218-11.743
				C31.665,10.933,26.48,15.467,25.326,22.961 M55.94,16.04l-0.003-4.631h-4.869l-3.549,23.058h5.729l2.035-13.224
				c2.005-2.482,5.259-4.391,8.876-4.631l-0.033-5.679C60.516,11.123,57.88,13.366,55.94,16.04 M112.064,14.894
				c2.769,0,3.892,2.006,3.723,5.586h-9.165C107.632,16.708,109.772,14.894,112.064,14.894 M100.464,22.961
				c-1.279,8.307,2.978,11.983,9.421,11.983c3.725,0,6.9-1.098,9.648-2.817l0.022-4.487c-2.803,1.766-5.405,2.865-8.365,2.865
				c-3.534,0-5.619-1.958-5.215-6.445h14.8c0.05-0.334,0.187-0.907,0.261-1.384c1.006-6.54-1.297-11.743-8.218-11.743
				C106.803,10.933,101.617,15.467,100.464,22.961 M158.006,30.67l1.218-7.919c1.286-1.302,2.738-2.279,4.185-2.279
				c1.953,0,3.07,1.664,2.554,5.027c-0.612,3.977-2.532,5.64-5.28,5.64C159.452,31.139,158.86,30.994,158.006,30.67 M156.995,9.046
				l-3.768,24.48c2.058,0.723,4.269,1.158,6.98,1.158c5.207,0,9.177-3.002,10.168-9.438c0.901-5.858-1.568-8.606-5.257-8.606
				c-2.206,0-4.011,1.157-5.311,2.313l1.631-10.593L156.995,9.046z M0,2.339l7.159,32.27h6.205L30.82,1.527h-6.588l-12.475,24.92
				L6.859,1.193L0,2.339z M68.203,4.297c-0.294,1.909,1.028,3.245,2.937,3.245c1.862,0,3.595-1.336,3.889-3.245
				c0.301-1.958-1.013-3.343-2.876-3.343C70.244,0.954,68.503,2.339,68.203,4.297 M93.407,4.297
				c-0.294,1.909,1.027,3.245,2.937,3.245c1.862,0,3.597-1.336,3.89-3.245c0.302-1.958-1.014-3.343-2.876-3.343
				C95.449,0.954,93.708,2.339,93.407,4.297 M80.176,7.447l-0.609,3.962h-3.342l-0.719,4.678h3.341l-2.828,18.38h5.679l2.83-18.38
				h5.107l0.004-4.678h-4.391l0.521-3.389c0.317-2.053,1.499-2.912,3.456-2.912c0.954,0,1.799,0.096,2.357,0.191L91.539,0.62
				c-0.559-0.094-1.308-0.19-2.31-0.19C84.503,0.43,80.963,2.339,80.176,7.447 M128.966,23.248c0.779-5.06,3.35-7.495,6.357-7.495
				c1.958,0,3.004,0.334,4.334,1.003l-1.529,9.929c-1.821,1.91-3.635,3.15-5.735,3.15C129.862,29.835,128.276,27.735,128.966,23.248
				 M142.096,0.907l-1.712,11.123c-1.311-0.477-3.019-0.86-5.215-0.86c-5.347,0-10.66,3.82-11.982,12.412
				c-1.197,7.782,2.116,11.362,6.939,11.362c3.198,0,5.706-1.718,7.631-3.676l-0.015,3.199h4.917L147.964,0L142.096,0.907z"/>
		</defs>
		<clipPath id="SVGID_4_">
			<use xlink:href="#SVGID_3_"  overflow="visible"/>
		</clipPath>
		<defs>
			<filter id="Adobe_OpacityMaskFilter" filterUnits="userSpaceOnUse" x="0" y="0" width="190.049" height="81.885">
				<feColorMatrix  type="matrix" values="1 0 0 0 0  0 1 0 0 0  0 0 1 0 0  0 0 0 1 0"/>
			</filter>
		</defs>
		<mask maskUnits="userSpaceOnUse" x="0" y="0" width="190.049" height="81.885" id="SVGID_5_">
			<g filter="url(#Adobe_OpacityMaskFilter)">
				
					<linearGradient id="SVGID_6_" gradientUnits="userSpaceOnUse" x1="0" y1="81.8848" x2="1" y2="81.8848" gradientTransform="matrix(190.0498 0 0 -190.0498 0 15603.0674)">
					<stop  offset="0" style="stop-color:#FFFFFF"/>
					<stop  offset="1" style="stop-color:#D1D1D1"/>
				</linearGradient>
				<rect clip-path="url(#SVGID_4_)" fill="url(#SVGID_6_)" width="190.049" height="81.885"/>
			</g>
		</mask>
		
			<linearGradient id="SVGID_7_" gradientUnits="userSpaceOnUse" x1="-4.882812e-04" y1="81.8848" x2="0.9995" y2="81.8848" gradientTransform="matrix(190.0498 0 0 -190.0498 0 15603.0684)">
			<stop  offset="0" style="stop-color:#191E5F"/>
			<stop  offset="1" style="stop-color:#142787"/>
		</linearGradient>
		<rect clip-path="url(#SVGID_4_)" mask="url(#SVGID_5_)" fill="url(#SVGID_7_)" width="190.049" height="81.885"/>
	</g>
</g>
</svg>
