<?xml version="1.0" encoding="utf-8"?>
<!-- Generator: Adobe Illustrator 16.0.0, SVG Export Plug-In . SVG Version: 6.00 Build 0)  -->
<!DOCTYPE svg PUBLIC "-//W3C//DTD SVG 1.0//EN" "http://www.w3.org/TR/2001/REC-SVG-20010904/DTD/svg10.dtd">
<svg version="1.0" id="Слой_1" xmlns="http://www.w3.org/2000/svg" xmlns:xlink="http://www.w3.org/1999/xlink" x="0px" y="0px"
	 width="150.23px" height="46.061px" viewBox="0 0 150.23 46.061" enable-background="new 0 0 150.23 46.061" xml:space="preserve">
<g>
	<defs>
		<rect id="SVGID_1_" width="150.23" height="46.061"/>
	</defs>
	<clipPath id="SVGID_2_">
		<use xlink:href="#SVGID_1_"  overflow="visible"/>
	</clipPath>
	<g clip-path="url(#SVGID_2_)">
		<defs>
			<polygon id="SVGID_3_" points="60.469,0.43 72.632,0.43 65.022,45.054 52.864,45.054 			"/>
		</defs>
		<clipPath id="SVGID_4_">
			<use xlink:href="#SVGID_3_"  overflow="visible"/>
		</clipPath>
		<defs>
			<filter id="Adobe_OpacityMaskFilter" filterUnits="userSpaceOnUse" x="52.45" y="0.247" width="20.596" height="44.991">
				<feColorMatrix  type="matrix" values="1 0 0 0 0  0 1 0 0 0  0 0 1 0 0  0 0 0 1 0"/>
			</filter>
		</defs>
		<mask maskUnits="userSpaceOnUse" x="52.45" y="0.247" width="20.596" height="44.991" id="SVGID_5_">
			<g filter="url(#Adobe_OpacityMaskFilter)">
				
					<linearGradient id="SVGID_6_" gradientUnits="userSpaceOnUse" x1="0" y1="46.061" x2="1" y2="46.061" gradientTransform="matrix(119.8915 -1.1119 1.1119 119.8915 -44.4027 -5499.0791)">
					<stop  offset="0" style="stop-color:#FFFFFF"/>
					<stop  offset="1" style="stop-color:#D1D1D1"/>
				</linearGradient>
				<polygon clip-path="url(#SVGID_4_)" fill="url(#SVGID_6_)" points="52.866,45.238 73.046,45.05 72.63,0.247 52.45,0.434 				"/>
			</g>
		</mask>
		
			<linearGradient id="SVGID_7_" gradientUnits="userSpaceOnUse" x1="0" y1="46.062" x2="1" y2="46.062" gradientTransform="matrix(119.8915 -1.1119 1.1119 119.8915 -44.4027 -5499.0796)">
			<stop  offset="0" style="stop-color:#25255D"/>
			<stop  offset="1" style="stop-color:#2A3581"/>
		</linearGradient>
		<polygon clip-path="url(#SVGID_4_)" mask="url(#SVGID_5_)" fill="url(#SVGID_7_)" points="52.866,45.238 73.046,45.05 
			72.63,0.247 52.45,0.434 		"/>
	</g>
	<g clip-path="url(#SVGID_2_)">
		<defs>
			<path id="SVGID_8_" d="M98.295,0C86.277,0,77.811,6.052,77.738,14.726c-0.067,6.412,6.045,9.989,10.658,12.124
				c4.734,2.187,6.325,3.582,6.304,5.535c-0.031,2.991-3.781,4.356-7.277,4.356c-4.869,0-7.454-0.676-11.45-2.342l-1.565-0.709
				l-1.708,9.99c2.841,1.245,8.095,2.324,13.549,2.38c12.785,0,21.085-5.983,21.18-15.246c0.045-5.076-3.194-8.939-10.212-12.124
				c-4.251-2.064-6.854-3.442-6.827-5.532c0-1.854,2.203-3.838,6.965-3.838c3.978-0.062,6.859,0.806,9.104,1.709l1.09,0.515
				l1.649-9.671C106.787,0.97,103.01,0,98.295,0z"/>
		</defs>
		<clipPath id="SVGID_9_">
			<use xlink:href="#SVGID_8_"  overflow="visible"/>
		</clipPath>
		<defs>
			<filter id="Adobe_OpacityMaskFilter_1_" filterUnits="userSpaceOnUse" x="72.272" y="-0.338" width="37.351" height="46.738">
				<feColorMatrix  type="matrix" values="1 0 0 0 0  0 1 0 0 0  0 0 1 0 0  0 0 0 1 0"/>
			</filter>
		</defs>
		<mask maskUnits="userSpaceOnUse" x="72.272" y="-0.338" width="37.351" height="46.738" id="SVGID_10_">
			<g filter="url(#Adobe_OpacityMaskFilter_1_)">
				
					<linearGradient id="SVGID_11_" gradientUnits="userSpaceOnUse" x1="0" y1="46.061" x2="1" y2="46.061" gradientTransform="matrix(148.9151 -1.3811 1.3811 148.9151 -57.3635 -6835.3735)">
					<stop  offset="0" style="stop-color:#FFFFFF"/>
					<stop  offset="1" style="stop-color:#D1D1D1"/>
				</linearGradient>
				<polygon clip-path="url(#SVGID_9_)" fill="url(#SVGID_11_)" points="72.702,46.4 109.623,46.057 109.192,-0.338 72.272,0.004 
									"/>
			</g>
		</mask>
		
			<linearGradient id="SVGID_12_" gradientUnits="userSpaceOnUse" x1="0" y1="46.061" x2="1" y2="46.061" gradientTransform="matrix(148.9151 -1.3811 1.3811 148.9151 -57.3635 -6835.3735)">
			<stop  offset="0" style="stop-color:#25255D"/>
			<stop  offset="1" style="stop-color:#2A3581"/>
		</linearGradient>
		<polygon clip-path="url(#SVGID_9_)" mask="url(#SVGID_10_)" fill="url(#SVGID_12_)" points="72.702,46.4 109.623,46.057 
			109.192,-0.338 72.272,0.004 		"/>
	</g>
	<g clip-path="url(#SVGID_2_)">
		<defs>
			<path id="SVGID_13_" d="M131.846,12.846l0.822,3.848c0,0,2.329,10.652,2.816,12.885l-10.098,0.001
				c1.006-2.57,4.848-12.475,4.848-12.475c-0.002,0.003-0.003,0.004-0.003,0.004C130.207,17.109,131.245,14.487,131.846,12.846
				 M130.987,0.818c-2.911,0-5.091,0.795-6.369,3.701l-18.063,40.894h12.772c0,0,2.088-5.499,2.56-6.705
				c1.396,0,13.804,0.019,15.577,0.019c0.364,1.562,1.48,6.687,1.48,6.687h11.286l-9.845-44.595H130.987z"/>
		</defs>
		<clipPath id="SVGID_14_">
			<use xlink:href="#SVGID_13_"  overflow="visible"/>
		</clipPath>
		<defs>
			<filter id="Adobe_OpacityMaskFilter_2_" filterUnits="userSpaceOnUse" x="106.142" y="0.413" width="44.502" height="45.405">
				<feColorMatrix  type="matrix" values="1 0 0 0 0  0 1 0 0 0  0 0 1 0 0  0 0 0 1 0"/>
			</filter>
		</defs>
		<mask maskUnits="userSpaceOnUse" x="106.142" y="0.413" width="44.502" height="45.405" id="SVGID_15_">
			<g filter="url(#Adobe_OpacityMaskFilter_2_)">
				
					<linearGradient id="SVGID_16_" gradientUnits="userSpaceOnUse" x1="0" y1="46.061" x2="1" y2="46.061" gradientTransform="matrix(148.9151 -1.3811 1.3811 148.9151 -57.3635 -6834.8735)">
					<stop  offset="0" style="stop-color:#FFFFFF"/>
					<stop  offset="1" style="stop-color:#D1D1D1"/>
				</linearGradient>
				<polygon clip-path="url(#SVGID_14_)" fill="url(#SVGID_16_)" points="106.559,45.818 150.644,45.41 150.227,0.413 
					106.142,0.822 				"/>
			</g>
		</mask>
		
			<linearGradient id="SVGID_17_" gradientUnits="userSpaceOnUse" x1="0" y1="46.061" x2="1" y2="46.061" gradientTransform="matrix(148.9151 -1.3811 1.3811 148.9151 -57.3635 -6834.8735)">
			<stop  offset="0" style="stop-color:#25255D"/>
			<stop  offset="1" style="stop-color:#2A3581"/>
		</linearGradient>
		<polygon clip-path="url(#SVGID_14_)" mask="url(#SVGID_15_)" fill="url(#SVGID_17_)" points="106.559,45.818 150.644,45.41 
			150.227,0.413 106.142,0.822 		"/>
	</g>
	<g clip-path="url(#SVGID_2_)">
		<defs>
			<path id="SVGID_18_" d="M42.723,0.808l-11.908,30.43l-1.269-6.184c-2.217-7.129-9.123-14.853-16.844-18.719L23.59,45.36
				l12.868-0.014L55.607,0.808H42.723z"/>
		</defs>
		<clipPath id="SVGID_19_">
			<use xlink:href="#SVGID_18_"  overflow="visible"/>
		</clipPath>
		<defs>
			<filter id="Adobe_OpacityMaskFilter_3_" filterUnits="userSpaceOnUse" x="12.289" y="0.41" width="43.731" height="45.348">
				<feColorMatrix  type="matrix" values="1 0 0 0 0  0 1 0 0 0  0 0 1 0 0  0 0 0 1 0"/>
			</filter>
		</defs>
		<mask maskUnits="userSpaceOnUse" x="12.289" y="0.41" width="43.731" height="45.348" id="SVGID_20_">
			<g filter="url(#Adobe_OpacityMaskFilter_3_)">
				
					<linearGradient id="SVGID_21_" gradientUnits="userSpaceOnUse" x1="0" y1="46.061" x2="1" y2="46.061" gradientTransform="matrix(119.8915 -1.1119 1.1119 119.8915 -44.3402 -5498.9541)">
					<stop  offset="0" style="stop-color:#FFFFFF"/>
					<stop  offset="1" style="stop-color:#D1D1D1"/>
				</linearGradient>
				<polygon clip-path="url(#SVGID_19_)" fill="url(#SVGID_21_)" points="12.706,45.758 56.02,45.356 55.604,0.41 12.289,0.812 				
					"/>
			</g>
		</mask>
		
			<linearGradient id="SVGID_22_" gradientUnits="userSpaceOnUse" x1="0" y1="46.061" x2="1" y2="46.061" gradientTransform="matrix(119.8915 -1.1119 1.1119 119.8915 -44.3402 -5498.9546)">
			<stop  offset="0" style="stop-color:#25255D"/>
			<stop  offset="1" style="stop-color:#2A3581"/>
		</linearGradient>
		<polygon clip-path="url(#SVGID_19_)" mask="url(#SVGID_20_)" fill="url(#SVGID_22_)" points="12.706,45.758 56.02,45.356 
			55.604,0.41 12.289,0.812 		"/>
	</g>
	<g clip-path="url(#SVGID_2_)">
		<defs>
			<path id="SVGID_23_" d="M0.155,0.78L0,1.709c15.259,3.694,25.355,12.62,29.546,23.345L25.282,4.548
				c-0.737-2.826-2.872-3.67-5.514-3.768H0.155z"/>
		</defs>
		<clipPath id="SVGID_24_">
			<use xlink:href="#SVGID_23_"  overflow="visible"/>
		</clipPath>
		<defs>
			<filter id="Adobe_OpacityMaskFilter_4_" filterUnits="userSpaceOnUse" x="-0.225" y="0.506" width="29.996" height="24.822">
				<feColorMatrix  type="matrix" values="1 0 0 0 0  0 1 0 0 0  0 0 1 0 0  0 0 0 1 0"/>
			</filter>
		</defs>
		<mask maskUnits="userSpaceOnUse" x="-0.225" y="0.506" width="29.996" height="24.822" id="SVGID_25_">
			<g filter="url(#Adobe_OpacityMaskFilter_4_)">
				
					<linearGradient id="SVGID_26_" gradientUnits="userSpaceOnUse" x1="0" y1="46.061" x2="1" y2="46.061" gradientTransform="matrix(119.8915 -1.1119 1.1119 119.8915 -44.4652 -5509.3291)">
					<stop  offset="0" style="stop-color:#FFFFFF"/>
					<stop  offset="1" style="stop-color:#D1D1D1"/>
				</linearGradient>
				<polygon clip-path="url(#SVGID_24_)" fill="url(#SVGID_26_)" points="0.002,25.328 29.771,25.052 29.543,0.506 -0.225,0.782 
									"/>
			</g>
		</mask>
		
			<linearGradient id="SVGID_27_" gradientUnits="userSpaceOnUse" x1="0" y1="46.062" x2="1" y2="46.062" gradientTransform="matrix(119.8915 -1.1119 1.1119 119.8915 -44.4652 -5509.3296)">
			<stop  offset="0" style="stop-color:#25255D"/>
			<stop  offset="1" style="stop-color:#2A3581"/>
		</linearGradient>
		<polygon clip-path="url(#SVGID_24_)" mask="url(#SVGID_25_)" fill="url(#SVGID_27_)" points="0.002,25.328 29.771,25.052 
			29.543,0.506 -0.225,0.782 		"/>
	</g>
	<g clip-path="url(#SVGID_2_)">
		<defs>
			<path id="SVGID_28_" d="M13.18,8.031l2.108-0.403l-3.584-1.613C12.667,6.535,12.928,7.096,13.18,8.031"/>
		</defs>
		<clipPath id="SVGID_29_">
			<use xlink:href="#SVGID_28_"  overflow="visible"/>
		</clipPath>
		<defs>
			<filter id="Adobe_OpacityMaskFilter_5_" filterUnits="userSpaceOnUse" x="11.686" y="5.982" width="3.621" height="2.083">
				<feColorMatrix  type="matrix" values="1 0 0 0 0  0 1 0 0 0  0 0 1 0 0  0 0 0 1 0"/>
			</filter>
		</defs>
		<mask maskUnits="userSpaceOnUse" x="11.686" y="5.982" width="3.621" height="2.083" id="SVGID_30_">
			<g filter="url(#Adobe_OpacityMaskFilter_5_)">
				
					<linearGradient id="SVGID_31_" gradientUnits="userSpaceOnUse" x1="0" y1="46.061" x2="1" y2="46.061" gradientTransform="matrix(148.9151 -1.3811 1.3811 148.9151 -57.6135 -6852.1235)">
					<stop  offset="0" style="stop-color:#FFFFFF"/>
					<stop  offset="1" style="stop-color:#D1D1D1"/>
				</linearGradient>
				<polygon clip-path="url(#SVGID_29_)" fill="url(#SVGID_31_)" points="11.704,8.064 15.307,8.031 15.288,5.982 11.686,6.015 				
					"/>
			</g>
		</mask>
		
			<linearGradient id="SVGID_32_" gradientUnits="userSpaceOnUse" x1="0" y1="46.061" x2="1" y2="46.061" gradientTransform="matrix(148.9151 -1.3811 1.3811 148.9151 -57.6135 -6852.1235)">
			<stop  offset="0" style="stop-color:#25255D"/>
			<stop  offset="1" style="stop-color:#2A3581"/>
		</linearGradient>
		<polygon clip-path="url(#SVGID_29_)" mask="url(#SVGID_30_)" fill="url(#SVGID_32_)" points="11.704,8.064 15.307,8.031 
			15.288,5.982 11.686,6.015 		"/>
	</g>
</g>
</svg>
