<?xml version="1.0" encoding="utf-8"?>
<!-- Generator: Adobe Illustrator 16.0.0, SVG Export Plug-In . SVG Version: 6.00 Build 0)  -->
<!DOCTYPE svg PUBLIC "-//W3C//DTD SVG 1.0//EN" "http://www.w3.org/TR/2001/REC-SVG-20010904/DTD/svg10.dtd">
<svg version="1.0" id="Слой_1" xmlns="http://www.w3.org/2000/svg" xmlns:xlink="http://www.w3.org/1999/xlink" x="0px" y="0px"
	 width="151.123px" height="74.708px" viewBox="0 0 151.123 74.708" enable-background="new 0 0 151.123 74.708"
	 xml:space="preserve">
<g>
	<defs>
		<rect id="SVGID_1_" width="151.123" height="74.708"/>
	</defs>
	<clipPath id="SVGID_2_">
		<use xlink:href="#SVGID_1_"  overflow="visible"/>
	</clipPath>
	<g clip-path="url(#SVGID_2_)">
		<defs>
			<path id="SVGID_3_" d="M149.217,60.249l-1.605,10.174l-4.913-10.174h-1.964l-2.282,14.14l2.019-0.043h0.001h0.147l1.55-10.93
				l5.305,10.93h1.686l1.964-14.097H149.217z M60.344,60.249l-1.93,14.14h2.017l0.002-0.01l5.325-0.033l0.268-2l-5.32,0.032
				l0.585-4.285l4.053-0.032l0.266-2l-4.046,0.031l0.526-3.852l5.153-0.032l0.266-2.001L60.344,60.249z M70.179,60.249l-1.931,14.14
				h2.019l0.001-0.01l5.326-0.033l0.268-2l-5.32,0.032l1.869-12.171L70.179,60.249z M79.803,60.249l-1.931,14.14h2.019l0.001-0.01
				l5.326-0.033l0.268-2l-5.319,0.032l0.585-4.285l4.052-0.032l0.268-2l-4.046,0.031l0.526-3.852l5.151-0.032l0.268-2.001
				L79.803,60.249z M101.469,60.249l-0.27,1.991h3.977l-1.683,12.148h2.019v-0.01l0.146-0.033l1.544-12.105l4.42-0.032l0.266-2.001
				L101.469,60.249z M115.889,61.934l2.481,0.033c2.236,0.029,1.099,4.656-0.757,4.656h-2.322L115.889,61.934z M118.504,60.207
				l-4.297,0.042l-2.105,14.14l2.02-0.043h0.002h0.146l0.74-5.981l1.087-0.001l3.258,5.982h2.182l-3.193-5.978
				c3.996-0.984,5.162-8.161,0.211-8.161C118.537,60.207,118.52,60.207,118.504,60.207 M88.169,67.219
				c-0.498,4.137,1.953,7.489,5.478,7.489c1.305,0,2.571-0.46,3.679-1.249v-2.384c-0.95,0.964-2.166,1.561-3.429,1.561
				c-2.55,0-4.322-2.426-3.964-5.417c0.361-2.991,2.721-5.417,5.269-5.417c1.23,0,2.283,0.566,2.998,1.489l1.082-1.874
				c-0.973-1.055-2.3-1.688-3.831-1.688C91.929,59.73,88.667,63.083,88.169,67.219 M126.003,67.219
				c0.346-2.991,2.616-5.801,5.067-5.801s4.158,2.81,3.81,5.801c-0.346,2.991-2.646,5.801-5.098,5.801S125.656,70.21,126.003,67.219
				 M124.304,67.219c-0.478,4.137,1.881,7.489,5.271,7.489c3.388,0,6.524-3.353,7.005-7.489c0.479-4.136-1.88-7.489-5.271-7.489
				C127.922,59.73,124.784,63.083,124.304,67.219"/>
		</defs>
		<clipPath id="SVGID_4_">
			<use xlink:href="#SVGID_3_"  overflow="visible"/>
		</clipPath>
		<defs>
			<filter id="Adobe_OpacityMaskFilter" filterUnits="userSpaceOnUse" x="58.414" y="59.73" width="92.709" height="14.979">
				<feColorMatrix  type="matrix" values="1 0 0 0 0  0 1 0 0 0  0 0 1 0 0  0 0 0 1 0"/>
			</filter>
		</defs>
		<mask maskUnits="userSpaceOnUse" x="58.414" y="59.73" width="92.709" height="14.979" id="SVGID_5_">
			<g filter="url(#Adobe_OpacityMaskFilter)">
				
					<linearGradient id="SVGID_6_" gradientUnits="userSpaceOnUse" x1="-4.882812e-04" y1="74.7085" x2="0.9995" y2="74.7085" gradientTransform="matrix(92.709 0 0 -92.709 58.4375 6993.3584)">
					<stop  offset="0" style="stop-color:#FFFFFF"/>
					<stop  offset="1" style="stop-color:#D1D1D1"/>
				</linearGradient>
				<rect x="58.414" y="59.73" clip-path="url(#SVGID_4_)" fill="url(#SVGID_6_)" width="92.709" height="14.979"/>
			</g>
		</mask>
		
			<linearGradient id="SVGID_7_" gradientUnits="userSpaceOnUse" x1="-4.882812e-04" y1="74.7085" x2="0.9995" y2="74.7085" gradientTransform="matrix(92.709 0 0 -92.709 58.4375 6993.3584)">
			<stop  offset="0" style="stop-color:#25255D"/>
			<stop  offset="1" style="stop-color:#2A3581"/>
		</linearGradient>
		
			<rect x="58.414" y="59.73" clip-path="url(#SVGID_4_)" mask="url(#SVGID_5_)" fill="url(#SVGID_7_)" width="92.709" height="14.979"/>
	</g>
	<g clip-path="url(#SVGID_2_)">
		<defs>
			<polygon id="SVGID_8_" points="60.468,0.431 52.864,45.053 65.021,45.053 72.632,0.431 			"/>
		</defs>
		<clipPath id="SVGID_9_">
			<use xlink:href="#SVGID_8_"  overflow="visible"/>
		</clipPath>
		<defs>
			<filter id="Adobe_OpacityMaskFilter_1_" filterUnits="userSpaceOnUse" x="52.45" y="0.247" width="20.596" height="44.99">
				<feColorMatrix  type="matrix" values="1 0 0 0 0  0 1 0 0 0  0 0 1 0 0  0 0 0 1 0"/>
			</filter>
		</defs>
		<mask maskUnits="userSpaceOnUse" x="52.45" y="0.247" width="20.596" height="44.99" id="SVGID_10_">
			<g filter="url(#Adobe_OpacityMaskFilter_1_)">
				
					<linearGradient id="SVGID_11_" gradientUnits="userSpaceOnUse" x1="0" y1="74.7085" x2="1" y2="74.7085" gradientTransform="matrix(119.8915 -1.1119 1.1119 119.8915 -76.2557 -8933.6445)">
					<stop  offset="0" style="stop-color:#FFFFFF"/>
					<stop  offset="1" style="stop-color:#D1D1D1"/>
				</linearGradient>
				<polygon clip-path="url(#SVGID_9_)" fill="url(#SVGID_11_)" points="52.866,45.237 73.046,45.049 72.63,0.247 52.45,0.435 				
					"/>
			</g>
		</mask>
		
			<linearGradient id="SVGID_12_" gradientUnits="userSpaceOnUse" x1="0" y1="74.7085" x2="1" y2="74.7085" gradientTransform="matrix(119.8915 -1.1119 1.1119 119.8915 -76.2558 -8933.6445)">
			<stop  offset="0" style="stop-color:#25255D"/>
			<stop  offset="1" style="stop-color:#2A3581"/>
		</linearGradient>
		<polygon clip-path="url(#SVGID_9_)" mask="url(#SVGID_10_)" fill="url(#SVGID_12_)" points="52.866,45.237 73.046,45.049 
			72.63,0.247 52.45,0.435 		"/>
	</g>
	<g clip-path="url(#SVGID_2_)">
		<defs>
			<path id="SVGID_13_" d="M98.295,0C86.277,0,77.811,6.053,77.738,14.727c-0.067,6.412,6.045,9.989,10.658,12.124
				c4.734,2.187,6.325,3.582,6.304,5.535c-0.031,2.991-3.781,4.357-7.277,4.357c-4.869,0-7.454-0.676-11.45-2.342l-1.565-0.71
				l-1.708,9.991c2.841,1.244,8.095,2.324,13.549,2.38c12.785,0,21.085-5.982,21.18-15.246c0.045-5.076-3.194-8.939-10.212-12.124
				c-4.251-2.064-6.854-3.441-6.827-5.532c0-1.855,2.203-3.838,6.965-3.838c3.978-0.062,6.859,0.806,9.104,1.709l1.09,0.515
				l1.649-9.671C106.787,0.971,103.01,0,98.295,0z"/>
		</defs>
		<clipPath id="SVGID_14_">
			<use xlink:href="#SVGID_13_"  overflow="visible"/>
		</clipPath>
		<defs>
			<filter id="Adobe_OpacityMaskFilter_2_" filterUnits="userSpaceOnUse" x="72.272" y="-0.338" width="37.351" height="46.738">
				<feColorMatrix  type="matrix" values="1 0 0 0 0  0 1 0 0 0  0 0 1 0 0  0 0 0 1 0"/>
			</filter>
		</defs>
		<mask maskUnits="userSpaceOnUse" x="72.272" y="-0.338" width="37.351" height="46.738" id="SVGID_15_">
			<g filter="url(#Adobe_OpacityMaskFilter_2_)">
				
					<linearGradient id="SVGID_16_" gradientUnits="userSpaceOnUse" x1="0" y1="74.7085" x2="1" y2="74.7085" gradientTransform="matrix(148.9151 -1.3811 1.3811 148.9151 -96.9276 -11101.3906)">
					<stop  offset="0" style="stop-color:#FFFFFF"/>
					<stop  offset="1" style="stop-color:#D1D1D1"/>
				</linearGradient>
				<polygon clip-path="url(#SVGID_14_)" fill="url(#SVGID_16_)" points="72.702,46.4 109.623,46.057 109.192,-0.338 72.272,0.004 
									"/>
			</g>
		</mask>
		
			<linearGradient id="SVGID_17_" gradientUnits="userSpaceOnUse" x1="0" y1="74.7085" x2="1" y2="74.7085" gradientTransform="matrix(148.9151 -1.3811 1.3811 148.9151 -96.9276 -11101.3906)">
			<stop  offset="0" style="stop-color:#25255D"/>
			<stop  offset="1" style="stop-color:#2A3581"/>
		</linearGradient>
		<polygon clip-path="url(#SVGID_14_)" mask="url(#SVGID_15_)" fill="url(#SVGID_17_)" points="72.702,46.4 109.623,46.057 
			109.192,-0.338 72.272,0.004 		"/>
	</g>
	<g clip-path="url(#SVGID_2_)">
		<defs>
			<path id="SVGID_18_" d="M131.846,12.848l0.822,3.847c0,0,2.329,10.651,2.816,12.885l-10.098,0.001V29.58
				c1.006-2.57,4.848-12.474,4.848-12.474c-0.002,0.003-0.003,0.004-0.003,0.004C130.207,17.109,131.245,14.487,131.846,12.848
				 M130.987,0.818c-2.911,0-5.091,0.795-6.369,3.7l-18.063,40.895h12.772c0,0,2.088-5.499,2.56-6.706
				c1.396,0,13.804,0.019,15.577,0.019c0.364,1.562,1.48,6.688,1.48,6.688h11.286l-9.845-44.595H130.987z"/>
		</defs>
		<clipPath id="SVGID_19_">
			<use xlink:href="#SVGID_18_"  overflow="visible"/>
		</clipPath>
		<defs>
			<filter id="Adobe_OpacityMaskFilter_3_" filterUnits="userSpaceOnUse" x="106.142" y="0.414" width="44.502" height="45.405">
				<feColorMatrix  type="matrix" values="1 0 0 0 0  0 1 0 0 0  0 0 1 0 0  0 0 0 1 0"/>
			</filter>
		</defs>
		<mask maskUnits="userSpaceOnUse" x="106.142" y="0.414" width="44.502" height="45.405" id="SVGID_20_">
			<g filter="url(#Adobe_OpacityMaskFilter_3_)">
				
					<linearGradient id="SVGID_21_" gradientUnits="userSpaceOnUse" x1="0" y1="74.7085" x2="1" y2="74.7085" gradientTransform="matrix(148.9151 -1.3811 1.3811 148.9151 -96.9276 -11100.8906)">
					<stop  offset="0" style="stop-color:#FFFFFF"/>
					<stop  offset="1" style="stop-color:#D1D1D1"/>
				</linearGradient>
				<polygon clip-path="url(#SVGID_19_)" fill="url(#SVGID_21_)" points="106.559,45.819 150.644,45.41 150.227,0.414 
					106.142,0.822 				"/>
			</g>
		</mask>
		
			<linearGradient id="SVGID_22_" gradientUnits="userSpaceOnUse" x1="0" y1="74.7085" x2="1" y2="74.7085" gradientTransform="matrix(148.9151 -1.3811 1.3811 148.9151 -96.9276 -11100.8906)">
			<stop  offset="0" style="stop-color:#25255D"/>
			<stop  offset="1" style="stop-color:#2A3581"/>
		</linearGradient>
		<polygon clip-path="url(#SVGID_19_)" mask="url(#SVGID_20_)" fill="url(#SVGID_22_)" points="106.559,45.819 150.644,45.41 
			150.227,0.414 106.142,0.822 		"/>
	</g>
	<g clip-path="url(#SVGID_2_)">
		<defs>
			<path id="SVGID_23_" d="M42.723,0.808L30.815,31.238l-1.269-6.185c-2.217-7.128-9.123-14.852-16.844-18.718L23.59,45.361
				l12.868-0.016L55.607,0.808H42.723z"/>
		</defs>
		<clipPath id="SVGID_24_">
			<use xlink:href="#SVGID_23_"  overflow="visible"/>
		</clipPath>
		<defs>
			<filter id="Adobe_OpacityMaskFilter_4_" filterUnits="userSpaceOnUse" x="12.289" y="0.41" width="43.731" height="45.349">
				<feColorMatrix  type="matrix" values="1 0 0 0 0  0 1 0 0 0  0 0 1 0 0  0 0 0 1 0"/>
			</filter>
		</defs>
		<mask maskUnits="userSpaceOnUse" x="12.289" y="0.41" width="43.731" height="45.349" id="SVGID_25_">
			<g filter="url(#Adobe_OpacityMaskFilter_4_)">
				
					<linearGradient id="SVGID_26_" gradientUnits="userSpaceOnUse" x1="0" y1="74.7085" x2="1" y2="74.7085" gradientTransform="matrix(119.8915 -1.1119 1.1119 119.8915 -76.1932 -8933.5195)">
					<stop  offset="0" style="stop-color:#FFFFFF"/>
					<stop  offset="1" style="stop-color:#D1D1D1"/>
				</linearGradient>
				<polygon clip-path="url(#SVGID_24_)" fill="url(#SVGID_26_)" points="12.706,45.758 56.02,45.357 55.604,0.41 12.289,0.812 				
					"/>
			</g>
		</mask>
		
			<linearGradient id="SVGID_27_" gradientUnits="userSpaceOnUse" x1="0" y1="74.7085" x2="1" y2="74.7085" gradientTransform="matrix(119.8915 -1.1119 1.1119 119.8915 -76.1933 -8933.5195)">
			<stop  offset="0" style="stop-color:#25255D"/>
			<stop  offset="1" style="stop-color:#2A3581"/>
		</linearGradient>
		<polygon clip-path="url(#SVGID_24_)" mask="url(#SVGID_25_)" fill="url(#SVGID_27_)" points="12.706,45.758 56.02,45.357 
			55.604,0.41 12.289,0.812 		"/>
	</g>
	<g clip-path="url(#SVGID_2_)">
		<defs>
			<path id="SVGID_28_" d="M0.155,0.78L0,1.708C15.259,5.403,25.355,14.33,29.546,25.054L25.282,4.548
				c-0.737-2.826-2.872-3.67-5.514-3.768H0.155z"/>
		</defs>
		<clipPath id="SVGID_29_">
			<use xlink:href="#SVGID_28_"  overflow="visible"/>
		</clipPath>
		<defs>
			<filter id="Adobe_OpacityMaskFilter_5_" filterUnits="userSpaceOnUse" x="-0.225" y="0.506" width="29.996" height="24.821">
				<feColorMatrix  type="matrix" values="1 0 0 0 0  0 1 0 0 0  0 0 1 0 0  0 0 0 1 0"/>
			</filter>
		</defs>
		<mask maskUnits="userSpaceOnUse" x="-0.225" y="0.506" width="29.996" height="24.821" id="SVGID_30_">
			<g filter="url(#Adobe_OpacityMaskFilter_5_)">
				
					<linearGradient id="SVGID_31_" gradientUnits="userSpaceOnUse" x1="0" y1="74.7085" x2="1" y2="74.7085" gradientTransform="matrix(119.8915 -1.1119 1.1119 119.8915 -76.3182 -8943.8945)">
					<stop  offset="0" style="stop-color:#FFFFFF"/>
					<stop  offset="1" style="stop-color:#D1D1D1"/>
				</linearGradient>
				<polygon clip-path="url(#SVGID_29_)" fill="url(#SVGID_31_)" points="0.002,25.328 29.771,25.051 29.543,0.506 -0.225,0.783 
									"/>
			</g>
		</mask>
		
			<linearGradient id="SVGID_32_" gradientUnits="userSpaceOnUse" x1="0" y1="74.7085" x2="1" y2="74.7085" gradientTransform="matrix(119.8915 -1.1119 1.1119 119.8915 -76.3183 -8943.8945)">
			<stop  offset="0" style="stop-color:#25255D"/>
			<stop  offset="1" style="stop-color:#2A3581"/>
		</linearGradient>
		<polygon clip-path="url(#SVGID_29_)" mask="url(#SVGID_30_)" fill="url(#SVGID_32_)" points="0.002,25.328 29.771,25.051 
			29.543,0.506 -0.225,0.783 		"/>
	</g>
	<g clip-path="url(#SVGID_2_)">
		<defs>
			<path id="SVGID_33_" d="M13.18,8.03l2.108-0.402l-3.584-1.613C12.667,6.536,12.928,7.096,13.18,8.03"/>
		</defs>
		<clipPath id="SVGID_34_">
			<use xlink:href="#SVGID_33_"  overflow="visible"/>
		</clipPath>
		<defs>
			<filter id="Adobe_OpacityMaskFilter_6_" filterUnits="userSpaceOnUse" x="11.686" y="5.982" width="3.621" height="2.082">
				<feColorMatrix  type="matrix" values="1 0 0 0 0  0 1 0 0 0  0 0 1 0 0  0 0 0 1 0"/>
			</filter>
		</defs>
		<mask maskUnits="userSpaceOnUse" x="11.686" y="5.982" width="3.621" height="2.082" id="SVGID_35_">
			<g filter="url(#Adobe_OpacityMaskFilter_6_)">
				
					<linearGradient id="SVGID_36_" gradientUnits="userSpaceOnUse" x1="0" y1="74.7095" x2="1" y2="74.7095" gradientTransform="matrix(148.9151 -1.3811 1.3811 148.9151 -97.1776 -11118.1406)">
					<stop  offset="0" style="stop-color:#FFFFFF"/>
					<stop  offset="1" style="stop-color:#D1D1D1"/>
				</linearGradient>
				<polygon clip-path="url(#SVGID_34_)" fill="url(#SVGID_36_)" points="11.704,8.064 15.307,8.03 15.288,5.982 11.686,6.016 				
					"/>
			</g>
		</mask>
		
			<linearGradient id="SVGID_37_" gradientUnits="userSpaceOnUse" x1="0" y1="74.7095" x2="1" y2="74.7095" gradientTransform="matrix(148.9151 -1.3811 1.3811 148.9151 -97.1776 -11118.1406)">
			<stop  offset="0" style="stop-color:#25255D"/>
			<stop  offset="1" style="stop-color:#2A3581"/>
		</linearGradient>
		<polygon clip-path="url(#SVGID_34_)" mask="url(#SVGID_35_)" fill="url(#SVGID_37_)" points="11.704,8.064 15.307,8.03 
			15.288,5.982 11.686,6.016 		"/>
	</g>
</g>
</svg>
