<?xml version="1.0" encoding="utf-8"?>

<!-- License Agreement at http://iconmonstr.com/license/ -->

<!DOCTYPE svg PUBLIC "-//W3C//DTD SVG 1.1//EN" "http://www.w3.org/Graphics/SVG/1.1/DTD/svg11.dtd">
<svg version="1.1" xmlns="http://www.w3.org/2000/svg" xmlns:xlink="http://www.w3.org/1999/xlink" x="0px" y="0px"
	 width="512px" height="512px" viewBox="0 0 512 512" enable-background="new 0 0 512 512" xml:space="preserve">
<path id="vk-icon" fill-rule="evenodd" clip-rule="evenodd" d="M275.945,373.711c10.448,0,14.737-6.977,14.599-15.707
	c-0.533-32.912,12.26-50.619,35.345-27.531c25.555,25.553,30.838,43.238,61.851,43.238c11.798,0,43.484,0,54.937,0
	c43.218,0,4.705-43.371-25.742-71.629c-28.948-26.87-30.307-27.504-5.379-59.847c30.951-40.14,71.393-91.858,35.608-91.858
	c-7.005,0-2.006,0-68.347,0c-13.261,0-14.217,7.748-18.928,18.87c-17.07,40.279-49.538,92.471-61.873,84.501
	c-12.9-8.337-6.993-36.612-6.004-85.617c0.261-12.942,0.195-21.833-19.586-26.424c-54.009-12.535-100.81,12.122-81.692,15.682
	c26.963,5.028,24.377,58.695,18.088,83.89c-10.951,43.87-52.114-34.752-69.274-73.896c-4.128-9.419-5.39-17.006-20.165-17.006
	c-8.102,0-43.862,0-55.881,0c-10.773,0-16.055,4.934-12.294,14.939c3.761,10.005,46.999,106.727,98.119,161.909
	C196.64,378.297,243.405,373.711,275.945,373.711z"/>
</svg>
